ISO-10303-21;
HEADER;
FILE_DESCRIPTION (( 'STEP AP214' ),
    '1' );
FILE_NAME ('mocap_fix.STEP',
    '2026-09-14T17:58:04',
    ( '' ),
    ( '' ),
    'SwSTEP 2.0',
    'SolidWorks 2024',
    '' );
FILE_SCHEMA (( 'AUTOMOTIVE_DESIGN' ));
ENDSEC;

DATA;
#1 = CARTESIAN_POINT ( 'NONE',  ( 2.850000000000001421, 5.000000000000000000, 3.000000000000000000 ) ) ;
#2 = CARTESIAN_POINT ( 'NONE',  ( 0.000000000000000000, 10.00000000000000000, 0.000000000000000000 ) ) ;
#3 = VERTEX_POINT ( 'NONE', #134 ) ;
#4 = VERTEX_POINT ( 'NONE', #239 ) ;
#5 = PRODUCT_DEFINITION_FORMATION_WITH_SPECIFIED_SOURCE ( 'ANY', '', #249, .NOT_KNOWN. ) ;
#6 = EDGE_CURVE ( 'NONE', #279, #4, #8, .T. ) ;
#7 = DIRECTION ( 'NONE',  ( 1.000000000000000000, 0.000000000000000000, 0.000000000000000000 ) ) ;
#8 = LINE ( 'NONE', #214, #277 ) ;
#9 = AXIS2_PLACEMENT_3D ( 'NONE', #259, #50, #311 ) ;
#10 = DIRECTION ( 'NONE',  ( -0.000000000000000000, -0.000000000000000000, 1.000000000000000000 ) ) ;
#11 = EDGE_CURVE ( 'NONE', #3, #279, #87, .T. ) ;
#12 = VERTEX_POINT ( 'NONE', #291 ) ;
#13 = DIRECTION ( 'NONE',  ( 0.000000000000000000, 1.000000000000000000, 0.000000000000000000 ) ) ;
#14 = FACE_OUTER_BOUND ( 'NONE', #310, .T. ) ;
#15 = DIRECTION ( 'NONE',  ( -1.000000000000000000, -0.000000000000000000, -0.000000000000000000 ) ) ;
#16 = PLANE ( 'NONE',  #316 ) ;
#17 = UNCERTAINTY_MEASURE_WITH_UNIT (LENGTH_MEASURE( 1.000000000000000082E-05 ), #318, 'distance_accuracy_value', 'NONE');
#18 = CARTESIAN_POINT ( 'NONE',  ( 7.150000000000000355, 5.000000000000000000, 0.000000000000000000 ) ) ;
#19 = ADVANCED_FACE ( 'NONE', ( #61 ), #216, .F. ) ;
#20 = CARTESIAN_POINT ( 'NONE',  ( 0.000000000000000000, 10.00000000000000000, 0.000000000000000000 ) ) ;
#21 = EDGE_LOOP ( 'NONE', ( #305, #293 ) ) ;
#22 = DIRECTION ( 'NONE',  ( 1.000000000000000000, 0.000000000000000000, 0.000000000000000000 ) ) ;
#23 = ORIENTED_EDGE ( 'NONE', *, *, #100, .T. ) ;
#24 = VECTOR ( 'NONE', #178, 1000.000000000000000 ) ;
#25 = SURFACE_SIDE_STYLE ('',( #129 ) ) ;
#26 = ORIENTED_EDGE ( 'NONE', *, *, #92, .T. ) ;
#27 = DIRECTION ( 'NONE',  ( -0.000000000000000000, -0.000000000000000000, 1.000000000000000000 ) ) ;
#28 = FACE_OUTER_BOUND ( 'NONE', #133, .T. ) ;
#29 = CARTESIAN_POINT ( 'NONE',  ( 24.99999999999999645, 5.000000000000000000, 3.000000000000000000 ) ) ;
#30 = ORIENTED_EDGE ( 'NONE', *, *, #225, .F. ) ;
#31 = EDGE_CURVE ( 'NONE', #335, #32, #39, .T. ) ;
#32 = VERTEX_POINT ( 'NONE', #36 ) ;
#33 = ORIENTED_EDGE ( 'NONE', *, *, #31, .F. ) ;
#34 = EDGE_CURVE ( 'NONE', #335, #3, #215, .T. ) ;
#35 = CARTESIAN_POINT ( 'NONE',  ( 0.000000000000000000, 0.000000000000000000, 0.000000000000000000 ) ) ;
#36 = CARTESIAN_POINT ( 'NONE',  ( 30.00000000000000000, 10.00000000000000000, 0.000000000000000000 ) ) ;
#37 = PRODUCT_DEFINITION ( 'UNKNOWN', '', #5, #223 ) ;
#38 = VECTOR ( 'NONE', #116, 1000.000000000000000 ) ;
#39 = LINE ( 'NONE', #268, #155 ) ;
#40 = LINE ( 'NONE', #197, #82 ) ;
#41 = DIRECTION ( 'NONE',  ( 0.000000000000000000, 0.000000000000000000, -1.000000000000000000 ) ) ;
#42 = VECTOR ( 'NONE', #313, 1000.000000000000000 ) ;
#43 = CIRCLE ( 'NONE', #230, 1.649999999999998579 ) ;
#44 = ADVANCED_FACE ( 'NONE', ( #273 ), #122, .F. ) ;
#45 = CARTESIAN_POINT ( 'NONE',  ( 0.000000000000000000, 10.00000000000000000, 3.000000000000000000 ) ) ;
#46 = PRODUCT_DEFINITION_SHAPE ( 'NONE', 'NONE',  #37 ) ;
#47 = CARTESIAN_POINT ( 'NONE',  ( 30.00000000000000000, 0.000000000000000000, 3.000000000000000000 ) ) ;
#48 = FACE_BOUND ( 'NONE', #312, .T. ) ;
#49 = VECTOR ( 'NONE', #96, 1000.000000000000000 ) ;
#50 = DIRECTION ( 'NONE',  ( 0.000000000000000000, 0.000000000000000000, 1.000000000000000000 ) ) ;
#51 = SURFACE_STYLE_USAGE ( .BOTH. , #25 ) ;
#52 = EDGE_LOOP ( 'NONE', ( #320, #58, #113, #111 ) ) ;
#53 = EDGE_CURVE ( 'NONE', #81, #161, #117, .T. ) ;
#54 = CARTESIAN_POINT ( 'NONE',  ( 0.000000000000000000, 0.000000000000000000, 3.000000000000000000 ) ) ;
#55 = DIRECTION ( 'NONE',  ( 0.000000000000000000, 0.000000000000000000, 1.000000000000000000 ) ) ;
#56 = ORIENTED_EDGE ( 'NONE', *, *, #284, .F. ) ;
#57 = ADVANCED_BREP_SHAPE_REPRESENTATION ( 'mocap_fix', ( #218, #131 ), #66 ) ;
#58 = ORIENTED_EDGE ( 'NONE', *, *, #6, .F. ) ;
#59 = ORIENTED_EDGE ( 'NONE', *, *, #163, .T. ) ;
#60 = ORIENTED_EDGE ( 'NONE', *, *, #159, .T. ) ;
#61 = FACE_OUTER_BOUND ( 'NONE', #102, .T. ) ;
#62 = APPLICATION_PROTOCOL_DEFINITION ( 'draft international standard', 'automotive_design', 1998, #74 ) ;
#63 = ORIENTED_EDGE ( 'NONE', *, *, #205, .T. ) ;
#64 = FACE_OUTER_BOUND ( 'NONE', #90, .T. ) ;
#65 = CARTESIAN_POINT ( 'NONE',  ( 0.000000000000000000, 10.00000000000000000, 3.000000000000000000 ) ) ;
#66 =( GEOMETRIC_REPRESENTATION_CONTEXT ( 3 ) GLOBAL_UNCERTAINTY_ASSIGNED_CONTEXT ( ( #17 ) ) GLOBAL_UNIT_ASSIGNED_CONTEXT ( ( #318, #88, #191 ) ) REPRESENTATION_CONTEXT ( 'NONE', 'WORKASPACE' ) );
#67 = PRODUCT_RELATED_PRODUCT_CATEGORY ( 'part', '', ( #249 ) ) ;
#68 = CARTESIAN_POINT ( 'NONE',  ( 2.850000000000001421, 5.000000000000000000, -0.001000000000000132727 ) ) ;
#69 = AXIS2_PLACEMENT_3D ( 'NONE', #124, #227, #103 ) ;
#70 = AXIS2_PLACEMENT_3D ( 'NONE', #140, #247, #294 ) ;
#71 = DIRECTION ( 'NONE',  ( -1.000000000000000000, 0.000000000000000000, -0.000000000000000000 ) ) ;
#72 = CARTESIAN_POINT ( 'NONE',  ( 26.64999999999999503, 5.000000000000000000, 0.000000000000000000 ) ) ;
#73 = ADVANCED_FACE ( 'NONE', ( #48, #250, #14 ), #93, .T. ) ;
#74 = APPLICATION_CONTEXT ( 'automotive_design' ) ;
#75 = CARTESIAN_POINT ( 'NONE',  ( 24.99999999999999645, 5.000000000000000000, -0.001000000000000132727 ) ) ;
#76 = CARTESIAN_POINT ( 'NONE',  ( 24.99999999999999645, 5.000000000000000000, -0.001000000000000132727 ) ) ;
#77 = ORIENTED_EDGE ( 'NONE', *, *, #317, .F. ) ;
#78 = EDGE_CURVE ( 'NONE', #233, #334, #324, .T. ) ;
#79 = DIRECTION ( 'NONE',  ( -0.000000000000000000, -0.000000000000000000, 1.000000000000000000 ) ) ;
#80 = VECTOR ( 'NONE', #300, 1000.000000000000000 ) ;
#81 = VERTEX_POINT ( 'NONE', #18 ) ;
#82 = VECTOR ( 'NONE', #137, 1000.000000000000000 ) ;
#83 = VECTOR ( 'NONE', #13, 1000.000000000000000 ) ;
#84 = EDGE_LOOP ( 'NONE', ( #153, #179, #258, #63 ) ) ;
#85 = ADVANCED_FACE ( 'NONE', ( #301, #221, #195 ), #326, .F. ) ;
#86 = CARTESIAN_POINT ( 'NONE',  ( 0.000000000000000000, 0.000000000000000000, 0.000000000000000000 ) ) ;
#87 = LINE ( 'NONE', #190, #302 ) ;
#88 =( NAMED_UNIT ( * ) PLANE_ANGLE_UNIT ( ) SI_UNIT ( $, .RADIAN. ) );
#89 = ORIENTED_EDGE ( 'NONE', *, *, #31, .T. ) ;
#90 = EDGE_LOOP ( 'NONE', ( #164, #231, #241, #267 ) ) ;
#91 = CARTESIAN_POINT ( 'NONE',  ( 7.150000000000000355, 5.000000000000000000, 3.000000000000000000 ) ) ;
#92 = EDGE_CURVE ( 'NONE', #188, #335, #139, .T. ) ;
#93 = PLANE ( 'NONE',  #224 ) ;
#94 = CARTESIAN_POINT ( 'NONE',  ( 23.34999999999999787, 5.000000000000000000, 3.000000000000000000 ) ) ;
#95 = EDGE_CURVE ( 'NONE', #3, #183, #168, .T. ) ;
#96 = DIRECTION ( 'NONE',  ( 0.000000000000000000, 1.000000000000000000, 0.000000000000000000 ) ) ;
#97 = DIRECTION ( 'NONE',  ( -0.000000000000000000, -0.000000000000000000, 1.000000000000000000 ) ) ;
#98 = ORIENTED_EDGE ( 'NONE', *, *, #125, .T. ) ;
#99 = CARTESIAN_POINT ( 'NONE',  ( 23.34999999999999787, 5.000000000000000000, -0.001000000000000132727 ) ) ;
#100 = EDGE_CURVE ( 'NONE', #115, #209, #199, .T. ) ;
#101 = DIRECTION ( 'NONE',  ( -0.000000000000000000, -0.000000000000000000, 1.000000000000000000 ) ) ;
#102 = EDGE_LOOP ( 'NONE', ( #30, #104, #260, #234 ) ) ;
#103 = DIRECTION ( 'NONE',  ( -1.000000000000000000, 0.000000000000000000, 0.000000000000000000 ) ) ;
#104 = ORIENTED_EDGE ( 'NONE', *, *, #78, .T. ) ;
#105 = ORIENTED_EDGE ( 'NONE', *, *, #284, .T. ) ;
#106 = CARTESIAN_POINT ( 'NONE',  ( 0.000000000000000000, 0.000000000000000000, 0.000000000000000000 ) ) ;
#107 = ORIENTED_EDGE ( 'NONE', *, *, #11, .T. ) ;
#108 = AXIS2_PLACEMENT_3D ( 'NONE', #333, #101, #281 ) ;
#109 = PRODUCT_CONTEXT ( 'NONE', #297, 'mechanical' ) ;
#110 = CIRCLE ( 'NONE', #9, 2.149999999999999023 ) ;
#111 = ORIENTED_EDGE ( 'NONE', *, *, #95, .T. ) ;
#112 = DIRECTION ( 'NONE',  ( -1.000000000000000000, -0.000000000000000000, -0.000000000000000000 ) ) ;
#113 = ORIENTED_EDGE ( 'NONE', *, *, #11, .F. ) ;
#114 = AXIS2_PLACEMENT_3D ( 'NONE', #162, #10, #322 ) ;
#115 = VERTEX_POINT ( 'NONE', #72 ) ;
#116 = DIRECTION ( 'NONE',  ( -0.000000000000000000, -0.000000000000000000, 1.000000000000000000 ) ) ;
#117 = LINE ( 'NONE', #323, #38 ) ;
#118 = DIRECTION ( 'NONE',  ( -1.000000000000000000, 0.000000000000000000, -0.000000000000000000 ) ) ;
#119 = CARTESIAN_POINT ( 'NONE',  ( 0.000000000000000000, 0.000000000000000000, 3.000000000000000000 ) ) ;
#120 = AXIS2_PLACEMENT_3D ( 'NONE', #166, #222, #118 ) ;
#121 = AXIS2_PLACEMENT_3D ( 'NONE', #283, #55, #328 ) ;
#122 = CYLINDRICAL_SURFACE ( 'NONE', #180, 2.149999999999999023 ) ;
#123 = DIRECTION ( 'NONE',  ( -0.000000000000000000, -0.000000000000000000, 1.000000000000000000 ) ) ;
#124 = CARTESIAN_POINT ( 'NONE',  ( 5.000000000000000888, 5.000000000000000000, 0.000000000000000000 ) ) ;
#125 = EDGE_CURVE ( 'NONE', #148, #209, #43, .T. ) ;
#126 = AXIS2_PLACEMENT_3D ( 'NONE', #29, #263, #208 ) ;
#127 = AXIS2_PLACEMENT_3D ( 'NONE', #261, #97, #152 ) ;
#128 = FILL_AREA_STYLE ('',( #200 ) ) ;
#129 = SURFACE_STYLE_FILL_AREA ( #128 ) ;
#130 = ADVANCED_FACE ( 'NONE', ( #193 ), #275, .F. ) ;
#131 = AXIS2_PLACEMENT_3D ( 'NONE', #86, #210, #7 ) ;
#132 = DIRECTION ( 'NONE',  ( -0.000000000000000000, -1.000000000000000000, -0.000000000000000000 ) ) ;
#133 = EDGE_LOOP ( 'NONE', ( #59, #33, #146, #60 ) ) ;
#134 = CARTESIAN_POINT ( 'NONE',  ( 0.000000000000000000, 10.00000000000000000, 3.000000000000000000 ) ) ;
#135 = ORIENTED_EDGE ( 'NONE', *, *, #306, .T. ) ;
#136 = DIRECTION ( 'NONE',  ( -0.000000000000000000, -0.000000000000000000, -1.000000000000000000 ) ) ;
#137 = DIRECTION ( 'NONE',  ( -0.000000000000000000, -0.000000000000000000, -1.000000000000000000 ) ) ;
#138 = AXIS2_PLACEMENT_3D ( 'NONE', #76, #27, #22 ) ;
#139 = LINE ( 'NONE', #47, #49 ) ;
#140 = CARTESIAN_POINT ( 'NONE',  ( 0.000000000000000000, 0.000000000000000000, 3.000000000000000000 ) ) ;
#141 = ADVANCED_FACE ( 'NONE', ( #64 ), #165, .F. ) ;
#142 = DIRECTION ( 'NONE',  ( 0.000000000000000000, -1.000000000000000000, 0.000000000000000000 ) ) ;
#143 = UNCERTAINTY_MEASURE_WITH_UNIT (LENGTH_MEASURE( 1.000000000000000082E-05 ), #255, 'distance_accuracy_value', 'NONE');
#144 = CARTESIAN_POINT ( 'NONE',  ( 5.000000000000000888, 5.000000000000000000, -0.001000000000000132727 ) ) ;
#145 = DIRECTION ( 'NONE',  ( -1.000000000000000000, 0.000000000000000000, 0.000000000000000000 ) ) ;
#146 = ORIENTED_EDGE ( 'NONE', *, *, #92, .F. ) ;
#147 = CARTESIAN_POINT ( 'NONE',  ( 2.850000000000001421, 5.000000000000000000, 0.000000000000000000 ) ) ;
#148 = VERTEX_POINT ( 'NONE', #94 ) ;
#149 = CARTESIAN_POINT ( 'NONE',  ( 0.000000000000000000, 0.000000000000000000, 3.000000000000000000 ) ) ;
#150 = ORIENTED_EDGE ( 'NONE', *, *, #321, .F. ) ;
#151 = VECTOR ( 'NONE', #112, 1000.000000000000000 ) ;
#152 = DIRECTION ( 'NONE',  ( -1.000000000000000000, 0.000000000000000000, 0.000000000000000000 ) ) ;
#153 = ORIENTED_EDGE ( 'NONE', *, *, #78, .F. ) ;
#154 = DIRECTION ( 'NONE',  ( 0.000000000000000000, 0.000000000000000000, 1.000000000000000000 ) ) ;
#155 = VECTOR ( 'NONE', #136, 1000.000000000000000 ) ;
#156 = EDGE_LOOP ( 'NONE', ( #135, #238, #270, #89 ) ) ;
#157 = LINE ( 'NONE', #106, #42 ) ;
#158 = ORIENTED_EDGE ( 'NONE', *, *, #177, .F. ) ;
#159 = EDGE_CURVE ( 'NONE', #188, #266, #40, .T. ) ;
#160 = SHAPE_DEFINITION_REPRESENTATION ( #46, #57 ) ;
#161 = VERTEX_POINT ( 'NONE', #91 ) ;
#162 = CARTESIAN_POINT ( 'NONE',  ( 5.000000000000000888, 5.000000000000000000, -0.001000000000000132727 ) ) ;
#163 = EDGE_CURVE ( 'NONE', #266, #32, #244, .T. ) ;
#164 = ORIENTED_EDGE ( 'NONE', *, *, #321, .T. ) ;
#165 = PLANE ( 'NONE',  #299 ) ;
#166 = CARTESIAN_POINT ( 'NONE',  ( 0.000000000000000000, 0.000000000000000000, 3.000000000000000000 ) ) ;
#167 = AXIS2_PLACEMENT_3D ( 'NONE', #75, #173, #203 ) ;
#168 = LINE ( 'NONE', #45, #213 ) ;
#169 = VECTOR ( 'NONE', #123, 1000.000000000000000 ) ;
#170 = CARTESIAN_POINT ( 'NONE',  ( 24.99999999999999645, 5.000000000000000000, 3.000000000000000000 ) ) ;
#171 = DIRECTION ( 'NONE',  ( 0.000000000000000000, 0.000000000000000000, 1.000000000000000000 ) ) ;
#172 = CARTESIAN_POINT ( 'NONE',  ( 5.000000000000000888, 5.000000000000000000, 0.000000000000000000 ) ) ;
#173 = DIRECTION ( 'NONE',  ( -0.000000000000000000, -0.000000000000000000, 1.000000000000000000 ) ) ;
#174 = ORIENTED_EDGE ( 'NONE', *, *, #282, .T. ) ;
#175 = ADVANCED_FACE ( 'NONE', ( #217 ), #16, .F. ) ;
#176 = CYLINDRICAL_SURFACE ( 'NONE', #167, 1.649999999999998579 ) ;
#177 = EDGE_CURVE ( 'NONE', #334, #161, #110, .T. ) ;
#178 = DIRECTION ( 'NONE',  ( 1.000000000000000000, 0.000000000000000000, 0.000000000000000000 ) ) ;
#179 = ORIENTED_EDGE ( 'NONE', *, *, #220, .F. ) ;
#180 = AXIS2_PLACEMENT_3D ( 'NONE', #144, #278, #296 ) ;
#181 = AXIS2_PLACEMENT_3D ( 'NONE', #280, #229, #154 ) ;
#182 = CARTESIAN_POINT ( 'NONE',  ( 30.00000000000000000, 0.000000000000000000, 3.000000000000000000 ) ) ;
#183 = VERTEX_POINT ( 'NONE', #20 ) ;
#184 = EDGE_CURVE ( 'NONE', #12, #115, #198, .T. ) ;
#185 = VECTOR ( 'NONE', #187, 1000.000000000000000 ) ;
#186 = VECTOR ( 'NONE', #219, 1000.000000000000000 ) ;
#187 = DIRECTION ( 'NONE',  ( -0.000000000000000000, -1.000000000000000000, -0.000000000000000000 ) ) ;
#188 = VERTEX_POINT ( 'NONE', #182 ) ;
#189 = CARTESIAN_POINT ( 'NONE',  ( 30.00000000000000000, 10.00000000000000000, 3.000000000000000000 ) ) ;
#190 = CARTESIAN_POINT ( 'NONE',  ( 0.000000000000000000, 0.000000000000000000, 3.000000000000000000 ) ) ;
#191 =( NAMED_UNIT ( * ) SI_UNIT ( $, .STERADIAN. ) SOLID_ANGLE_UNIT ( ) );
#192 = EDGE_LOOP ( 'NONE', ( #107, #174, #26, #285 ) ) ;
#193 = FACE_OUTER_BOUND ( 'NONE', #52, .T. ) ;
#194 = CARTESIAN_POINT ( 'NONE',  ( 26.64999999999999503, 5.000000000000000000, -0.001000000000000132727 ) ) ;
#195 = FACE_OUTER_BOUND ( 'NONE', #192, .T. ) ;
#196 = EDGE_CURVE ( 'NONE', #12, #148, #235, .T. ) ;
#197 = CARTESIAN_POINT ( 'NONE',  ( 30.00000000000000000, 0.000000000000000000, 3.000000000000000000 ) ) ;
#198 = CIRCLE ( 'NONE', #127, 1.649999999999998579 ) ;
#199 = LINE ( 'NONE', #194, #186 ) ;
#200 = FILL_AREA_STYLE_COLOUR ( '', #242 ) ;
#201 = ADVANCED_FACE ( 'NONE', ( #28 ), #206, .F. ) ;
#202 = FACE_OUTER_BOUND ( 'NONE', #264, .T. ) ;
#203 = DIRECTION ( 'NONE',  ( 1.000000000000000000, 0.000000000000000000, 0.000000000000000000 ) ) ;
#204 = ORIENTED_EDGE ( 'NONE', *, *, #225, .T. ) ;
#205 = EDGE_CURVE ( 'NONE', #161, #334, #269, .T. ) ;
#206 = PLANE ( 'NONE',  #181 ) ;
#207 = ORIENTED_EDGE ( 'NONE', *, *, #196, .T. ) ;
#208 = DIRECTION ( 'NONE',  ( -1.000000000000000000, 0.000000000000000000, 0.000000000000000000 ) ) ;
#209 = VERTEX_POINT ( 'NONE', #251 ) ;
#210 = DIRECTION ( 'NONE',  ( 0.000000000000000000, 0.000000000000000000, 1.000000000000000000 ) ) ;
#211 = EDGE_LOOP ( 'NONE', ( #105, #228 ) ) ;
#212 = CIRCLE ( 'NONE', #69, 2.149999999999999467 ) ;
#213 = VECTOR ( 'NONE', #295, 1000.000000000000000 ) ;
#214 = CARTESIAN_POINT ( 'NONE',  ( 0.000000000000000000, 0.000000000000000000, 3.000000000000000000 ) ) ;
#215 = LINE ( 'NONE', #246, #286 ) ;
#216 = CYLINDRICAL_SURFACE ( 'NONE', #114, 2.149999999999999023 ) ;
#217 = FACE_OUTER_BOUND ( 'NONE', #156, .T. ) ;
#218 = MANIFOLD_SOLID_BREP ( '∂Øƒ - âüÇµèoÇµ4', #262 ) ;
#219 = DIRECTION ( 'NONE',  ( -0.000000000000000000, -0.000000000000000000, 1.000000000000000000 ) ) ;
#220 = EDGE_CURVE ( 'NONE', #81, #233, #315, .T. ) ;
#221 = FACE_BOUND ( 'NONE', #21, .T. ) ;
#222 = DIRECTION ( 'NONE',  ( 0.000000000000000000, 0.000000000000000000, -1.000000000000000000 ) ) ;
#223 = PRODUCT_DEFINITION_CONTEXT ( 'detailed design', #74, 'design' ) ;
#224 = AXIS2_PLACEMENT_3D ( 'NONE', #327, #41, #71 ) ;
#225 = EDGE_CURVE ( 'NONE', #233, #81, #212, .T. ) ;
#226 = DIRECTION ( 'NONE',  ( -1.000000000000000000, 0.000000000000000000, 0.000000000000000000 ) ) ;
#227 = DIRECTION ( 'NONE',  ( -0.000000000000000000, -0.000000000000000000, 1.000000000000000000 ) ) ;
#228 = ORIENTED_EDGE ( 'NONE', *, *, #184, .T. ) ;
#229 = DIRECTION ( 'NONE',  ( -1.000000000000000000, 0.000000000000000000, 0.000000000000000000 ) ) ;
#230 = AXIS2_PLACEMENT_3D ( 'NONE', #170, #171, #226 ) ;
#231 = ORIENTED_EDGE ( 'NONE', *, *, #159, .F. ) ;
#232 = FACE_OUTER_BOUND ( 'NONE', #332, .T. ) ;
#233 = VERTEX_POINT ( 'NONE', #147 ) ;
#234 = ORIENTED_EDGE ( 'NONE', *, *, #53, .F. ) ;
#235 = LINE ( 'NONE', #99, #169 ) ;
#236 = LINE ( 'NONE', #35, #185 ) ;
#237 = ORIENTED_EDGE ( 'NONE', *, *, #196, .F. ) ;
#238 = ORIENTED_EDGE ( 'NONE', *, *, #95, .F. ) ;
#239 = CARTESIAN_POINT ( 'NONE',  ( 0.000000000000000000, 0.000000000000000000, 0.000000000000000000 ) ) ;
#240 = STYLED_ITEM ( 'NONE', ( #253 ), #218 ) ;
#241 = ORIENTED_EDGE ( 'NONE', *, *, #282, .F. ) ;
#242 = COLOUR_RGB ( '',0.7921568627450980005, 0.8196078431372548767, 0.9333333333333333481 ) ;
#243 = ORIENTED_EDGE ( 'NONE', *, *, #220, .T. ) ;
#244 = LINE ( 'NONE', #276, #83 ) ;
#245 = PRESENTATION_LAYER_ASSIGNMENT (  '', '', ( #240 ) ) ;
#246 = CARTESIAN_POINT ( 'NONE',  ( 0.000000000000000000, 10.00000000000000000, 3.000000000000000000 ) ) ;
#247 = DIRECTION ( 'NONE',  ( 1.000000000000000000, 0.000000000000000000, 0.000000000000000000 ) ) ;
#248 = DIRECTION ( 'NONE',  ( 0.000000000000000000, -0.000000000000000000, -1.000000000000000000 ) ) ;
#249 = PRODUCT ( 'mocap_fix', 'mocap_fix', '', ( #109 ) ) ;
#250 = FACE_BOUND ( 'NONE', #211, .T. ) ;
#251 = CARTESIAN_POINT ( 'NONE',  ( 26.64999999999999503, 5.000000000000000000, 3.000000000000000000 ) ) ;
#252 = ORIENTED_EDGE ( 'NONE', *, *, #290, .T. ) ;
#253 = PRESENTATION_STYLE_ASSIGNMENT (( #51 ) ) ;
#254 = ORIENTED_EDGE ( 'NONE', *, *, #163, .F. ) ;
#255 =( LENGTH_UNIT ( ) NAMED_UNIT ( * ) SI_UNIT ( .MILLI., .METRE. ) );
#256 = ADVANCED_FACE ( 'NONE', ( #202 ), #304, .F. ) ;
#257 = MECHANICAL_DESIGN_GEOMETRIC_PRESENTATION_REPRESENTATION (  '', ( #240 ), #274 ) ;
#258 = ORIENTED_EDGE ( 'NONE', *, *, #53, .T. ) ;
#259 = CARTESIAN_POINT ( 'NONE',  ( 5.000000000000000888, 5.000000000000000000, 3.000000000000000000 ) ) ;
#260 = ORIENTED_EDGE ( 'NONE', *, *, #177, .T. ) ;
#261 = CARTESIAN_POINT ( 'NONE',  ( 24.99999999999999645, 5.000000000000000000, 0.000000000000000000 ) ) ;
#262 = CLOSED_SHELL ( 'NONE', ( #19, #272, #130, #141, #201, #175, #85, #73, #256, #44 ) ) ;
#263 = DIRECTION ( 'NONE',  ( 0.000000000000000000, 0.000000000000000000, 1.000000000000000000 ) ) ;
#264 = EDGE_LOOP ( 'NONE', ( #237, #56, #23, #252 ) ) ;
#265 = LINE ( 'NONE', #2, #151 ) ;
#266 = VERTEX_POINT ( 'NONE', #309 ) ;
#267 = ORIENTED_EDGE ( 'NONE', *, *, #6, .T. ) ;
#268 = CARTESIAN_POINT ( 'NONE',  ( 30.00000000000000000, 10.00000000000000000, 3.000000000000000000 ) ) ;
#269 = CIRCLE ( 'NONE', #121, 2.149999999999999023 ) ;
#270 = ORIENTED_EDGE ( 'NONE', *, *, #34, .F. ) ;
#271 = DIRECTION ( 'NONE',  ( 0.000000000000000000, 1.000000000000000000, 0.000000000000000000 ) ) ;
#272 = ADVANCED_FACE ( 'NONE', ( #232 ), #176, .F. ) ;
#273 = FACE_OUTER_BOUND ( 'NONE', #84, .T. ) ;
#274 =( GEOMETRIC_REPRESENTATION_CONTEXT ( 3 ) GLOBAL_UNCERTAINTY_ASSIGNED_CONTEXT ( ( #143 ) ) GLOBAL_UNIT_ASSIGNED_CONTEXT ( ( #255, #331, #303 ) ) REPRESENTATION_CONTEXT ( 'NONE', 'WORKASPACE' ) );
#275 = PLANE ( 'NONE',  #70 ) ;
#276 = CARTESIAN_POINT ( 'NONE',  ( 30.00000000000000000, 0.000000000000000000, 0.000000000000000000 ) ) ;
#277 = VECTOR ( 'NONE', #319, 1000.000000000000000 ) ;
#278 = DIRECTION ( 'NONE',  ( -0.000000000000000000, -0.000000000000000000, 1.000000000000000000 ) ) ;
#279 = VERTEX_POINT ( 'NONE', #149 ) ;
#280 = CARTESIAN_POINT ( 'NONE',  ( 30.00000000000000000, 0.000000000000000000, 3.000000000000000000 ) ) ;
#281 = DIRECTION ( 'NONE',  ( -1.000000000000000000, 0.000000000000000000, 0.000000000000000000 ) ) ;
#282 = EDGE_CURVE ( 'NONE', #279, #188, #307, .T. ) ;
#283 = CARTESIAN_POINT ( 'NONE',  ( 5.000000000000000888, 5.000000000000000000, 3.000000000000000000 ) ) ;
#284 = EDGE_CURVE ( 'NONE', #115, #12, #330, .T. ) ;
#285 = ORIENTED_EDGE ( 'NONE', *, *, #34, .T. ) ;
#286 = VECTOR ( 'NONE', #15, 1000.000000000000000 ) ;
#287 = EDGE_LOOP ( 'NONE', ( #289, #158 ) ) ;
#288 = AXIS2_PLACEMENT_3D ( 'NONE', #172, #79, #145 ) ;
#289 = ORIENTED_EDGE ( 'NONE', *, *, #205, .F. ) ;
#290 = EDGE_CURVE ( 'NONE', #209, #148, #298, .T. ) ;
#291 = CARTESIAN_POINT ( 'NONE',  ( 23.34999999999999787, 5.000000000000000000, 0.000000000000000000 ) ) ;
#292 = APPLICATION_PROTOCOL_DEFINITION ( 'draft international standard', 'automotive_design', 1998, #297 ) ;
#293 = ORIENTED_EDGE ( 'NONE', *, *, #125, .F. ) ;
#294 = DIRECTION ( 'NONE',  ( 0.000000000000000000, 0.000000000000000000, -1.000000000000000000 ) ) ;
#295 = DIRECTION ( 'NONE',  ( -0.000000000000000000, -0.000000000000000000, -1.000000000000000000 ) ) ;
#296 = DIRECTION ( 'NONE',  ( 1.000000000000000000, 0.000000000000000000, 0.000000000000000000 ) ) ;
#297 = APPLICATION_CONTEXT ( 'automotive_design' ) ;
#298 = CIRCLE ( 'NONE', #126, 1.649999999999998579 ) ;
#299 = AXIS2_PLACEMENT_3D ( 'NONE', #119, #271, #325 ) ;
#300 = DIRECTION ( 'NONE',  ( -0.000000000000000000, -0.000000000000000000, 1.000000000000000000 ) ) ;
#301 = FACE_BOUND ( 'NONE', #287, .T. ) ;
#302 = VECTOR ( 'NONE', #132, 1000.000000000000000 ) ;
#303 =( NAMED_UNIT ( * ) SI_UNIT ( $, .STERADIAN. ) SOLID_ANGLE_UNIT ( ) );
#304 = CYLINDRICAL_SURFACE ( 'NONE', #138, 1.649999999999998579 ) ;
#305 = ORIENTED_EDGE ( 'NONE', *, *, #290, .F. ) ;
#306 = EDGE_CURVE ( 'NONE', #32, #183, #265, .T. ) ;
#307 = LINE ( 'NONE', #54, #24 ) ;
#308 = ORIENTED_EDGE ( 'NONE', *, *, #306, .F. ) ;
#309 = CARTESIAN_POINT ( 'NONE',  ( 30.00000000000000000, 0.000000000000000000, 0.000000000000000000 ) ) ;
#310 = EDGE_LOOP ( 'NONE', ( #77, #308, #254, #150 ) ) ;
#311 = DIRECTION ( 'NONE',  ( 1.000000000000000000, 0.000000000000000000, 0.000000000000000000 ) ) ;
#312 = EDGE_LOOP ( 'NONE', ( #243, #204 ) ) ;
#313 = DIRECTION ( 'NONE',  ( 1.000000000000000000, 0.000000000000000000, 0.000000000000000000 ) ) ;
#314 = ORIENTED_EDGE ( 'NONE', *, *, #100, .F. ) ;
#315 = CIRCLE ( 'NONE', #288, 2.149999999999999467 ) ;
#316 = AXIS2_PLACEMENT_3D ( 'NONE', #65, #142, #248 ) ;
#317 = EDGE_CURVE ( 'NONE', #183, #4, #236, .T. ) ;
#318 =( LENGTH_UNIT ( ) NAMED_UNIT ( * ) SI_UNIT ( .MILLI., .METRE. ) );
#319 = DIRECTION ( 'NONE',  ( -0.000000000000000000, -0.000000000000000000, -1.000000000000000000 ) ) ;
#320 = ORIENTED_EDGE ( 'NONE', *, *, #317, .T. ) ;
#321 = EDGE_CURVE ( 'NONE', #4, #266, #157, .T. ) ;
#322 = DIRECTION ( 'NONE',  ( 1.000000000000000000, 0.000000000000000000, 0.000000000000000000 ) ) ;
#323 = CARTESIAN_POINT ( 'NONE',  ( 7.150000000000000355, 5.000000000000000000, -0.001000000000000132727 ) ) ;
#324 = LINE ( 'NONE', #68, #80 ) ;
#325 = DIRECTION ( 'NONE',  ( 0.000000000000000000, -0.000000000000000000, 1.000000000000000000 ) ) ;
#326 = PLANE ( 'NONE',  #120 ) ;
#327 = CARTESIAN_POINT ( 'NONE',  ( 0.000000000000000000, 0.000000000000000000, 0.000000000000000000 ) ) ;
#328 = DIRECTION ( 'NONE',  ( 1.000000000000000000, 0.000000000000000000, 0.000000000000000000 ) ) ;
#329 = ORIENTED_EDGE ( 'NONE', *, *, #184, .F. ) ;
#330 = CIRCLE ( 'NONE', #108, 1.649999999999998579 ) ;
#331 =( NAMED_UNIT ( * ) PLANE_ANGLE_UNIT ( ) SI_UNIT ( $, .RADIAN. ) );
#332 = EDGE_LOOP ( 'NONE', ( #329, #207, #98, #314 ) ) ;
#333 = CARTESIAN_POINT ( 'NONE',  ( 24.99999999999999645, 5.000000000000000000, 0.000000000000000000 ) ) ;
#334 = VERTEX_POINT ( 'NONE', #1 ) ;
#335 = VERTEX_POINT ( 'NONE', #189 ) ;
ENDSEC;
END-ISO-10303-21;
