ISO-10303-21;
HEADER;
FILE_DESCRIPTION (( 'STEP AP214' ),
    '1' );
FILE_NAME ('USB_socket.STEP',
    '2026-09-12T05:55:06',
    ( '' ),
    ( '' ),
    'SwSTEP 2.0',
    'SolidWorks 2024',
    '' );
FILE_SCHEMA (( 'AUTOMOTIVE_DESIGN' ));
ENDSEC;

DATA;
#1 = ADVANCED_FACE ( 'NONE', ( #871, #94 ), #17, .T. ) ;
#2 = DIRECTION ( 'NONE',  ( -1.000000000000000000, 0.000000000000000000, -0.000000000000000000 ) ) ;
#3 = CARTESIAN_POINT ( 'NONE',  ( 2.500000000000023093, 20.00000000000000000, 2.500000000000002220 ) ) ;
#4 = CARTESIAN_POINT ( 'NONE',  ( 7.499999999999992895, 25.00000000000000000, 7.500000000000003553 ) ) ;
#5 = VERTEX_POINT ( 'NONE', #861 ) ;
#6 = MANIFOLD_SOLID_BREP ( '∂Øƒ - âüÇµèoÇµ3[2]', #986 ) ;
#7 = LINE ( 'NONE', #941, #354 ) ;
#8 = ADVANCED_FACE ( 'NONE', ( #251 ), #710, .F. ) ;
#9 = FACE_OUTER_BOUND ( 'NONE', #775, .T. ) ;
#10 = DIRECTION ( 'NONE',  ( 0.000000000000000000, 0.000000000000000000, -1.000000000000000000 ) ) ;
#11 = EDGE_CURVE ( 'NONE', #359, #466, #799, .T. ) ;
#12 = EDGE_LOOP ( 'NONE', ( #649, #420, #494, #134 ) ) ;
#13 = CARTESIAN_POINT ( 'NONE',  ( 0.000000000000000000, 20.00000000000000000, 22.00000000000000000 ) ) ;
#14 = CARTESIAN_POINT ( 'NONE',  ( 0.000000000000000000, 0.000000000000000000, 40.00000000000000000 ) ) ;
#15 = VECTOR ( 'NONE', #357, 1000.000000000000000 ) ;
#16 = CIRCLE ( 'NONE', #583, 1.999999999999998224 ) ;
#17 = PLANE ( 'NONE',  #400 ) ;
#18 = ORIENTED_EDGE ( 'NONE', *, *, #76, .T. ) ;
#19 = EDGE_CURVE ( 'NONE', #855, #807, #701, .T. ) ;
#20 = LINE ( 'NONE', #103, #467 ) ;
#21 = EDGE_LOOP ( 'NONE', ( #969, #109, #294, #369 ) ) ;
#22 = EDGE_CURVE ( 'NONE', #868, #452, #532, .T. ) ;
#23 = PRODUCT_DEFINITION ( 'UNKNOWN', '', #464, #591 ) ;
#24 = ORIENTED_EDGE ( 'NONE', *, *, #333, .T. ) ;
#25 = CARTESIAN_POINT ( 'NONE',  ( 0.000000000000000000, 0.000000000000000000, 40.00000000000000000 ) ) ;
#26 = LINE ( 'NONE', #900, #971 ) ;
#27 = CARTESIAN_POINT ( 'NONE',  ( 0.000000000000000000, 25.00000000000000000, 0.000000000000000000 ) ) ;
#28 = ORIENTED_EDGE ( 'NONE', *, *, #521, .T. ) ;
#29 = DIRECTION ( 'NONE',  ( 1.000000000000000000, 0.000000000000000000, 0.000000000000000000 ) ) ;
#30 = DIRECTION ( 'NONE',  ( 1.156482317317871478E-16, 0.000000000000000000, -1.000000000000000000 ) ) ;
#31 = DIRECTION ( 'NONE',  ( 0.000000000000000000, 1.000000000000000000, 0.000000000000000000 ) ) ;
#32 = AXIS2_PLACEMENT_3D ( 'NONE', #939, #173, #458 ) ;
#33 = AXIS2_PLACEMENT_3D ( 'NONE', #360, #677, #903 ) ;
#34 = ORIENTED_EDGE ( 'NONE', *, *, #453, .T. ) ;
#35 = CARTESIAN_POINT ( 'NONE',  ( 10.00000000000000888, 20.00000000000000000, 0.000000000000000000 ) ) ;
#36 = DIRECTION ( 'NONE',  ( 0.000000000000000000, 0.000000000000000000, 1.000000000000000000 ) ) ;
#37 = FACE_OUTER_BOUND ( 'NONE', #303, .T. ) ;
#38 = EDGE_CURVE ( 'NONE', #280, #439, #867, .T. ) ;
#39 = ORIENTED_EDGE ( 'NONE', *, *, #944, .F. ) ;
#40 = DIRECTION ( 'NONE',  ( 0.000000000000000000, 0.000000000000000000, -1.000000000000000000 ) ) ;
#41 = EDGE_CURVE ( 'NONE', #846, #966, #472, .T. ) ;
#42 = CARTESIAN_POINT ( 'NONE',  ( 90.00000000000000000, 20.00000000000000000, 30.00000000000000355 ) ) ;
#43 = LINE ( 'NONE', #826, #927 ) ;
#44 = ORIENTED_EDGE ( 'NONE', *, *, #271, .F. ) ;
#45 = EDGE_CURVE ( 'NONE', #57, #517, #89, .T. ) ;
#46 = SHAPE_DEFINITION_REPRESENTATION ( #608, #731 ) ;
#47 = FACE_OUTER_BOUND ( 'NONE', #585, .T. ) ;
#48 = LINE ( 'NONE', #427, #513 ) ;
#49 = VECTOR ( 'NONE', #164, 1000.000000000000000 ) ;
#50 = ORIENTED_EDGE ( 'NONE', *, *, #657, .F. ) ;
#51 = VECTOR ( 'NONE', #238, 1000.000000000000000 ) ;
#52 = DIRECTION ( 'NONE',  ( 0.000000000000000000, 0.000000000000000000, 1.000000000000000000 ) ) ;
#53 = LINE ( 'NONE', #835, #486 ) ;
#54 = DIRECTION ( 'NONE',  ( -1.000000000000000000, 0.000000000000000000, -1.156482317317871478E-16 ) ) ;
#55 = ORIENTED_EDGE ( 'NONE', *, *, #582, .F. ) ;
#56 = ADVANCED_FACE ( 'NONE', ( #901 ), #113, .T. ) ;
#57 = VERTEX_POINT ( 'NONE', #890 ) ;
#58 = EDGE_CURVE ( 'NONE', #522, #204, #806, .T. ) ;
#59 = PLANE ( 'NONE',  #33 ) ;
#60 = CARTESIAN_POINT ( 'NONE',  ( 7.499999999999993783, 25.00000000000000000, 25.00000000000000000 ) ) ;
#61 = ORIENTED_EDGE ( 'NONE', *, *, #381, .T. ) ;
#62 = ORIENTED_EDGE ( 'NONE', *, *, #508, .F. ) ;
#63 = FACE_OUTER_BOUND ( 'NONE', #203, .T. ) ;
#64 = CARTESIAN_POINT ( 'NONE',  ( 97.50000000000002842, 25.00000000000000000, 25.00000000000000000 ) ) ;
#65 = ADVANCED_FACE ( 'NONE', ( #965 ), #815, .F. ) ;
#66 = ORIENTED_EDGE ( 'NONE', *, *, #92, .T. ) ;
#67 = ORIENTED_EDGE ( 'NONE', *, *, #396, .T. ) ;
#68 = AXIS2_PLACEMENT_3D ( 'NONE', #824, #52, #273 ) ;
#69 = VECTOR ( 'NONE', #180, 1000.000000000000000 ) ;
#70 = AXIS2_PLACEMENT_3D ( 'NONE', #371, #991, #586 ) ;
#71 = PLANE ( 'NONE',  #70 ) ;
#72 = DIRECTION ( 'NONE',  ( 1.000000000000000000, 0.000000000000000000, 0.000000000000000000 ) ) ;
#73 = ORIENTED_EDGE ( 'NONE', *, *, #381, .F. ) ;
#74 = ORIENTED_EDGE ( 'NONE', *, *, #11, .F. ) ;
#75 = CARTESIAN_POINT ( 'NONE',  ( 92.50000000000000000, 25.00000000000000000, 15.00000000000000000 ) ) ;
#76 = EDGE_CURVE ( 'NONE', #298, #457, #108, .T. ) ;
#77 = CARTESIAN_POINT ( 'NONE',  ( 97.50000000000002842, 25.00000000000000000, 25.00000000000000000 ) ) ;
#78 = CARTESIAN_POINT ( 'NONE',  ( 0.000000000000000000, 0.000000000000000000, 40.00000000000000000 ) ) ;
#79 = PLANE ( 'NONE',  #716 ) ;
#80 = VERTEX_POINT ( 'NONE', #275 ) ;
#81 = ADVANCED_FACE ( 'NONE', ( #488 ), #493, .F. ) ;
#82 = FACE_OUTER_BOUND ( 'NONE', #785, .T. ) ;
#83 = VECTOR ( 'NONE', #295, 1000.000000000000000 ) ;
#84 = CARTESIAN_POINT ( 'NONE',  ( 92.50000000000000000, 25.00000000000000000, 32.50000000000000000 ) ) ;
#85 = ORIENTED_EDGE ( 'NONE', *, *, #604, .F. ) ;
#86 = ORIENTED_EDGE ( 'NONE', *, *, #559, .T. ) ;
#87 = DIRECTION ( 'NONE',  ( -1.000000000000000000, -0.000000000000000000, -0.000000000000000000 ) ) ;
#88 = FACE_BOUND ( 'NONE', #876, .T. ) ;
#89 = LINE ( 'NONE', #886, #782 ) ;
#90 = ADVANCED_FACE ( 'NONE', ( #880 ), #896, .F. ) ;
#91 = CARTESIAN_POINT ( 'NONE',  ( 7.499999999999992895, 25.00000000000000000, 32.50000000000000000 ) ) ;
#92 = EDGE_CURVE ( 'NONE', #310, #263, #955, .T. ) ;
#93 = CARTESIAN_POINT ( 'NONE',  ( 90.00000000000000000, 13.00000000000000178, 30.00000000000000355 ) ) ;
#94 = FACE_BOUND ( 'NONE', #168, .T. ) ;
#95 = ORIENTED_EDGE ( 'NONE', *, *, #308, .F. ) ;
#96 = EDGE_CURVE ( 'NONE', #466, #556, #43, .T. ) ;
#97 = CARTESIAN_POINT ( 'NONE',  ( 2.500000000000023093, 20.00000000000000000, 25.00000000000000000 ) ) ;
#98 = AXIS2_PLACEMENT_3D ( 'NONE', #423, #725, #951 ) ;
#99 = CIRCLE ( 'NONE', #699, 1.999999999999998224 ) ;
#100 = DIRECTION ( 'NONE',  ( -0.000000000000000000, -0.000000000000000000, -1.000000000000000000 ) ) ;
#101 = ORIENTED_EDGE ( 'NONE', *, *, #219, .F. ) ;
#102 = DIRECTION ( 'NONE',  ( -1.000000000000000000, -0.000000000000000000, -0.000000000000000000 ) ) ;
#103 = CARTESIAN_POINT ( 'NONE',  ( 7.499999999999992895, 25.00000000000000000, 7.500000000000003553 ) ) ;
#104 = CARTESIAN_POINT ( 'NONE',  ( 2.500000000000023093, 25.00000000000000000, 2.500000000000002220 ) ) ;
#105 = EDGE_LOOP ( 'NONE', ( #489, #685, #368, #665 ) ) ;
#106 = CARTESIAN_POINT ( 'NONE',  ( 10.00000000000000888, 27.00000000000000000, 30.00000000000000355 ) ) ;
#107 = CARTESIAN_POINT ( 'NONE',  ( 10.00000000000000888, 13.00000000000000178, 10.00000000000000178 ) ) ;
#108 = LINE ( 'NONE', #412, #69 ) ;
#109 = ORIENTED_EDGE ( 'NONE', *, *, #190, .F. ) ;
#110 = EDGE_CURVE ( 'NONE', #506, #916, #347, .T. ) ;
#111 = DIRECTION ( 'NONE',  ( -1.156482317317871971E-16, -0.000000000000000000, -1.000000000000000000 ) ) ;
#112 = CARTESIAN_POINT ( 'NONE',  ( 10.00000000000000888, 20.00000000000000000, 18.00000000000000355 ) ) ;
#113 = PLANE ( 'NONE',  #177 ) ;
#114 = CIRCLE ( 'NONE', #682, 1.999999999999998224 ) ;
#115 = VECTOR ( 'NONE', #642, 1000.000000000000000 ) ;
#116 = ORIENTED_EDGE ( 'NONE', *, *, #249, .T. ) ;
#117 = EDGE_CURVE ( 'NONE', #916, #679, #48, .T. ) ;
#118 = CARTESIAN_POINT ( 'NONE',  ( 92.50000000000000000, 20.00000000000000000, 25.00000000000000000 ) ) ;
#119 = CARTESIAN_POINT ( 'NONE',  ( 10.00000000000000888, 20.00000000000000000, 0.000000000000000000 ) ) ;
#120 = CARTESIAN_POINT ( 'NONE',  ( 97.50000000000002842, 25.00000000000000000, 15.00000000000000000 ) ) ;
#121 = ORIENTED_EDGE ( 'NONE', *, *, #708, .F. ) ;
#122 = CARTESIAN_POINT ( 'NONE',  ( 100.0000000000000000, 0.000000000000000000, 40.00000000000000000 ) ) ;
#123 = CARTESIAN_POINT ( 'NONE',  ( 10.00000000000000888, 13.00000000000000178, 30.00000000000000355 ) ) ;
#124 = ORIENTED_EDGE ( 'NONE', *, *, #58, .F. ) ;
#125 = CARTESIAN_POINT ( 'NONE',  ( 10.00000000000000888, 20.00000000000000000, 30.00000000000000355 ) ) ;
#126 = CARTESIAN_POINT ( 'NONE',  ( 7.499999999999992895, 25.00000000000000000, 32.50000000000000000 ) ) ;
#127 = COLOUR_RGB ( '',0.7921568627450980005, 0.8196078431372548767, 0.9333333333333333481 ) ;
#128 = ORIENTED_EDGE ( 'NONE', *, *, #110, .F. ) ;
#129 = ORIENTED_EDGE ( 'NONE', *, *, #925, .T. ) ;
#130 = VECTOR ( 'NONE', #788, 1000.000000000000000 ) ;
#131 = LINE ( 'NONE', #752, #225 ) ;
#132 = PLANE ( 'NONE',  #998 ) ;
#133 = ADVANCED_FACE ( 'NONE', ( #822 ), #407, .T. ) ;
#134 = ORIENTED_EDGE ( 'NONE', *, *, #11, .T. ) ;
#135 = ORIENTED_EDGE ( 'NONE', *, *, #408, .F. ) ;
#136 = DIRECTION ( 'NONE',  ( -1.000000000000000000, 0.000000000000000000, 0.000000000000000000 ) ) ;
#137 = LINE ( 'NONE', #531, #144 ) ;
#138 = VERTEX_POINT ( 'NONE', #120 ) ;
#139 = DIRECTION ( 'NONE',  ( -0.000000000000000000, -1.000000000000000000, -0.000000000000000000 ) ) ;
#140 = ADVANCED_FACE ( 'NONE', ( #562 ), #664, .T. ) ;
#141 = CARTESIAN_POINT ( 'NONE',  ( 0.000000000000000000, 20.00000000000000000, 0.000000000000000000 ) ) ;
#142 = ORIENTED_EDGE ( 'NONE', *, *, #894, .T. ) ;
#143 = EDGE_LOOP ( 'NONE', ( #962, #622, #511, #601 ) ) ;
#144 = VECTOR ( 'NONE', #904, 1000.000000000000000 ) ;
#145 = ADVANCED_FACE ( 'NONE', ( #262 ), #569, .T. ) ;
#146 = VECTOR ( 'NONE', #723, 1000.000000000000000 ) ;
#147 = DIRECTION ( 'NONE',  ( 0.000000000000000000, 0.000000000000000000, -1.000000000000000000 ) ) ;
#148 = CARTESIAN_POINT ( 'NONE',  ( 7.499999999999992895, 25.00000000000000000, 32.50000000000000000 ) ) ;
#149 = VERTEX_POINT ( 'NONE', #266 ) ;
#150 = ORIENTED_EDGE ( 'NONE', *, *, #676, .T. ) ;
#151 = EDGE_CURVE ( 'NONE', #691, #868, #419, .T. ) ;
#152 = DIRECTION ( 'NONE',  ( 0.000000000000000000, 0.000000000000000000, -1.000000000000000000 ) ) ;
#153 = DIRECTION ( 'NONE',  ( -1.000000000000000000, 0.000000000000000000, 0.000000000000000000 ) ) ;
#154 = ORIENTED_EDGE ( 'NONE', *, *, #455, .F. ) ;
#155 = ORIENTED_EDGE ( 'NONE', *, *, #476, .T. ) ;
#156 = DIRECTION ( 'NONE',  ( 1.000000000000000000, -0.000000000000000000, -0.000000000000000000 ) ) ;
#157 = CARTESIAN_POINT ( 'NONE',  ( 90.00000000000000000, 13.00000000000000178, 10.00000000000000178 ) ) ;
#158 = FILL_AREA_STYLE_COLOUR ( '', #127 ) ;
#159 = ORIENTED_EDGE ( 'NONE', *, *, #525, .T. ) ;
#160 = MECHANICAL_DESIGN_GEOMETRIC_PRESENTATION_REPRESENTATION (  '', ( #970 ), #750 ) ;
#161 = DIRECTION ( 'NONE',  ( 0.000000000000000000, -0.000000000000000000, 1.000000000000000000 ) ) ;
#162 = VECTOR ( 'NONE', #274, 1000.000000000000000 ) ;
#163 = DIRECTION ( 'NONE',  ( -0.000000000000000000, -0.000000000000000000, -1.000000000000000000 ) ) ;
#164 = DIRECTION ( 'NONE',  ( 0.000000000000000000, 0.000000000000000000, 1.000000000000000000 ) ) ;
#165 = EDGE_LOOP ( 'NONE', ( #267, #358, #272, #823, #993, #745, #796, #155 ) ) ;
#166 = PLANE ( 'NONE',  #881 ) ;
#167 = DIRECTION ( 'NONE',  ( 1.000000000000000000, -0.000000000000000000, 0.000000000000000000 ) ) ;
#168 = EDGE_LOOP ( 'NONE', ( #638, #223, #85, #610, #709, #284, #373, #435 ) ) ;
#169 = DIRECTION ( 'NONE',  ( 0.000000000000000000, 1.000000000000000000, 0.000000000000000000 ) ) ;
#170 = CARTESIAN_POINT ( 'NONE',  ( 7.499999999999993783, 20.00000000000000000, 25.00000000000000000 ) ) ;
#171 = DIRECTION ( 'NONE',  ( 1.000000000000000000, 0.000000000000000000, 0.000000000000000000 ) ) ;
#172 = ADVANCED_FACE ( 'NONE', ( #37 ), #343, .T. ) ;
#173 = DIRECTION ( 'NONE',  ( 0.000000000000000000, -1.000000000000000000, 0.000000000000000000 ) ) ;
#174 = VERTEX_POINT ( 'NONE', #287 ) ;
#175 = PLANE ( 'NONE',  #306 ) ;
#176 = ADVANCED_FACE ( 'NONE', ( #283 ), #211, .F. ) ;
#177 = AXIS2_PLACEMENT_3D ( 'NONE', #744, #31, #573 ) ;
#178 = CARTESIAN_POINT ( 'NONE',  ( 0.000000000000000000, 0.000000000000000000, 0.000000000000000000 ) ) ;
#179 = VECTOR ( 'NONE', #30, 1000.000000000000000 ) ;
#180 = DIRECTION ( 'NONE',  ( 0.000000000000000000, 0.000000000000000000, 1.000000000000000000 ) ) ;
#181 = VERTEX_POINT ( 'NONE', #515 ) ;
#182 = CARTESIAN_POINT ( 'NONE',  ( 7.499999999999992895, 20.00000000000000000, 32.50000000000000000 ) ) ;
#183 = CARTESIAN_POINT ( 'NONE',  ( 92.50000000000000000, 25.00000000000000000, 7.500000000000003553 ) ) ;
#184 = DIRECTION ( 'NONE',  ( 0.000000000000000000, 0.000000000000000000, 1.000000000000000000 ) ) ;
#185 = EDGE_LOOP ( 'NONE', ( #229, #518, #55, #794 ) ) ;
#186 = CARTESIAN_POINT ( 'NONE',  ( 92.50000000000000000, 20.00000000000000000, 15.00000000000000000 ) ) ;
#187 = DIRECTION ( 'NONE',  ( 0.000000000000000000, -1.000000000000000000, 0.000000000000000000 ) ) ;
#188 = DIRECTION ( 'NONE',  ( 1.000000000000000000, 0.000000000000000000, 0.000000000000000000 ) ) ;
#189 = EDGE_CURVE ( 'NONE', #204, #5, #754, .T. ) ;
#190 = EDGE_CURVE ( 'NONE', #208, #439, #526, .T. ) ;
#191 = ORIENTED_EDGE ( 'NONE', *, *, #546, .T. ) ;
#192 = LINE ( 'NONE', #405, #146 ) ;
#193 = DIRECTION ( 'NONE',  ( 0.000000000000000000, -1.000000000000000000, 0.000000000000000000 ) ) ;
#194 = DIRECTION ( 'NONE',  ( -0.000000000000000000, -0.000000000000000000, 1.000000000000000000 ) ) ;
#195 = VECTOR ( 'NONE', #541, 1000.000000000000000 ) ;
#196 = ORIENTED_EDGE ( 'NONE', *, *, #399, .F. ) ;
#197 = CARTESIAN_POINT ( 'NONE',  ( 10.00000000000000888, 13.00000000000000178, 10.00000000000000178 ) ) ;
#198 = CARTESIAN_POINT ( 'NONE',  ( 2.500000000000023093, 25.00000000000000000, 37.50000000000000711 ) ) ;
#199 = ORIENTED_EDGE ( 'NONE', *, *, #937, .F. ) ;
#200 = ADVANCED_FACE ( 'NONE', ( #683 ), #132, .F. ) ;
#201 = DIRECTION ( 'NONE',  ( 0.000000000000000000, 1.000000000000000000, 0.000000000000000000 ) ) ;
#202 = CARTESIAN_POINT ( 'NONE',  ( 92.50000000000000000, 25.00000000000000000, 15.00000000000000000 ) ) ;
#203 = EDGE_LOOP ( 'NONE', ( #289, #394, #314, #674 ) ) ;
#204 = VERTEX_POINT ( 'NONE', #148 ) ;
#205 = CARTESIAN_POINT ( 'NONE',  ( 7.499999999999993783, 25.00000000000000000, 25.00000000000000000 ) ) ;
#206 = PLANE ( 'NONE',  #597 ) ;
#207 = VECTOR ( 'NONE', #451, 1000.000000000000000 ) ;
#208 = VERTEX_POINT ( 'NONE', #989 ) ;
#209 = AXIS2_PLACEMENT_3D ( 'NONE', #829, #590, #763 ) ;
#210 = LINE ( 'NONE', #519, #866 ) ;
#211 = PLANE ( 'NONE',  #632 ) ;
#212 = ORIENTED_EDGE ( 'NONE', *, *, #259, .T. ) ;
#213 = ORIENTED_EDGE ( 'NONE', *, *, #418, .F. ) ;
#214 = EDGE_CURVE ( 'NONE', #600, #285, #509, .T. ) ;
#215 = DIRECTION ( 'NONE',  ( -1.110223024625156738E-15, 0.000000000000000000, -1.000000000000000000 ) ) ;
#216 = LINE ( 'NONE', #774, #465 ) ;
#217 = ORIENTED_EDGE ( 'NONE', *, *, #425, .F. ) ;
#218 = ORIENTED_EDGE ( 'NONE', *, *, #713, .T. ) ;
#219 = EDGE_CURVE ( 'NONE', #527, #359, #830, .T. ) ;
#220 = DIRECTION ( 'NONE',  ( 1.000000000000000000, 0.000000000000000000, -0.000000000000000000 ) ) ;
#221 = EDGE_CURVE ( 'NONE', #428, #766, #216, .T. ) ;
#222 = DIRECTION ( 'NONE',  ( -1.110223024625156738E-15, 0.000000000000000000, -1.000000000000000000 ) ) ;
#223 = ORIENTED_EDGE ( 'NONE', *, *, #38, .F. ) ;
#224 = EDGE_CURVE ( 'NONE', #246, #990, #678, .T. ) ;
#225 = VECTOR ( 'NONE', #437, 1000.000000000000000 ) ;
#226 = CARTESIAN_POINT ( 'NONE',  ( 2.500000000000023093, 20.00000000000000000, 25.00000000000000000 ) ) ;
#227 = CARTESIAN_POINT ( 'NONE',  ( 90.00000000000000000, 20.00000000000000000, 20.00000000000000000 ) ) ;
#228 = EDGE_CURVE ( 'NONE', #328, #149, #844, .T. ) ;
#229 = ORIENTED_EDGE ( 'NONE', *, *, #521, .F. ) ;
#230 = ORIENTED_EDGE ( 'NONE', *, *, #735, .F. ) ;
#231 = PLANE ( 'NONE',  #432 ) ;
#232 = EDGE_CURVE ( 'NONE', #948, #80, #296, .T. ) ;
#233 = DIRECTION ( 'NONE',  ( 0.000000000000000000, -0.000000000000000000, 1.000000000000000000 ) ) ;
#234 = ORIENTED_EDGE ( 'NONE', *, *, #232, .T. ) ;
#235 = VERTEX_POINT ( 'NONE', #769 ) ;
#236 = FACE_OUTER_BOUND ( 'NONE', #721, .T. ) ;
#237 = UNCERTAINTY_MEASURE_WITH_UNIT (LENGTH_MEASURE( 1.000000000000000082E-05 ), #401, 'distance_accuracy_value', 'NONE');
#238 = DIRECTION ( 'NONE',  ( -0.000000000000000000, -1.000000000000000000, -0.000000000000000000 ) ) ;
#239 = CARTESIAN_POINT ( 'NONE',  ( 10.00000000000000888, 20.00000000000000000, 20.00000000000000000 ) ) ;
#240 = VECTOR ( 'NONE', #739, 1000.000000000000000 ) ;
#241 = CARTESIAN_POINT ( 'NONE',  ( 100.0000000000000000, 20.00000000000000000, 40.00000000000000000 ) ) ;
#242 = VECTOR ( 'NONE', #321, 1000.000000000000000 ) ;
#243 = CARTESIAN_POINT ( 'NONE',  ( 97.50000000000001421, 25.00000000000000000, 2.500000000000002220 ) ) ;
#244 = DIRECTION ( 'NONE',  ( -0.000000000000000000, -1.000000000000000000, -0.000000000000000000 ) ) ;
#245 = ADVANCED_FACE ( 'NONE', ( #352 ), #206, .F. ) ;
#246 = VERTEX_POINT ( 'NONE', #60 ) ;
#247 = LINE ( 'NONE', #264, #652 ) ;
#248 = FACE_OUTER_BOUND ( 'NONE', #256, .T. ) ;
#249 = EDGE_CURVE ( 'NONE', #459, #506, #609, .T. ) ;
#250 = VERTEX_POINT ( 'NONE', #839 ) ;
#251 = FACE_OUTER_BOUND ( 'NONE', #997, .T. ) ;
#252 = ORIENTED_EDGE ( 'NONE', *, *, #463, .T. ) ;
#253 = LINE ( 'NONE', #35, #753 ) ;
#254 = LINE ( 'NONE', #269, #802 ) ;
#255 = DIRECTION ( 'NONE',  ( 0.000000000000000000, 0.000000000000000000, -1.000000000000000000 ) ) ;
#256 = EDGE_LOOP ( 'NONE', ( #984, #644, #218, #344, #62, #18, #757, #159 ) ) ;
#257 = EDGE_CURVE ( 'NONE', #250, #765, #974, .T. ) ;
#258 = CARTESIAN_POINT ( 'NONE',  ( 7.499999999999992895, 20.00000000000000000, 7.500000000000003553 ) ) ;
#259 = EDGE_CURVE ( 'NONE', #263, #517, #137, .T. ) ;
#260 = LINE ( 'NONE', #411, #931 ) ;
#261 = VECTOR ( 'NONE', #376, 1000.000000000000000 ) ;
#262 = FACE_OUTER_BOUND ( 'NONE', #570, .T. ) ;
#263 = VERTEX_POINT ( 'NONE', #909 ) ;
#264 = CARTESIAN_POINT ( 'NONE',  ( 100.0000000000000000, 20.00000000000000000, 40.00000000000000000 ) ) ;
#265 = DIRECTION ( 'NONE',  ( -1.156482317317871971E-16, -0.000000000000000000, -1.000000000000000000 ) ) ;
#266 = CARTESIAN_POINT ( 'NONE',  ( 100.0000000000000000, 20.00000000000000000, 0.000000000000000000 ) ) ;
#267 = ORIENTED_EDGE ( 'NONE', *, *, #740, .F. ) ;
#268 = CARTESIAN_POINT ( 'NONE',  ( 100.0000000000000000, 20.00000000000000000, 40.00000000000000000 ) ) ;
#269 = CARTESIAN_POINT ( 'NONE',  ( 0.000000000000000000, 0.000000000000000000, 40.00000000000000000 ) ) ;
#270 = CARTESIAN_POINT ( 'NONE',  ( 92.50000000000000000, 25.00000000000000000, 25.00000000000000000 ) ) ;
#271 = EDGE_CURVE ( 'NONE', #846, #522, #849, .T. ) ;
#272 = ORIENTED_EDGE ( 'NONE', *, *, #228, .F. ) ;
#273 = DIRECTION ( 'NONE',  ( 1.000000000000000000, 0.000000000000000000, 0.000000000000000000 ) ) ;
#274 = DIRECTION ( 'NONE',  ( -0.000000000000000000, -1.000000000000000000, -0.000000000000000000 ) ) ;
#275 = CARTESIAN_POINT ( 'NONE',  ( 2.500000000000023093, 25.00000000000000000, 2.500000000000002220 ) ) ;
#276 = VECTOR ( 'NONE', #636, 1000.000000000000000 ) ;
#277 = ORIENTED_EDGE ( 'NONE', *, *, #771, .T. ) ;
#278 = FACE_OUTER_BOUND ( 'NONE', #593, .T. ) ;
#279 = CARTESIAN_POINT ( 'NONE',  ( 92.50000000000000000, 25.00000000000000000, 32.50000000000000000 ) ) ;
#280 = VERTEX_POINT ( 'NONE', #764 ) ;
#281 = EDGE_CURVE ( 'NONE', #765, #557, #587, .T. ) ;
#282 = CARTESIAN_POINT ( 'NONE',  ( 97.50000000000002842, 25.00000000000000000, 25.00000000000000000 ) ) ;
#283 = FACE_OUTER_BOUND ( 'NONE', #692, .T. ) ;
#284 = ORIENTED_EDGE ( 'NONE', *, *, #364, .F. ) ;
#285 = VERTEX_POINT ( 'NONE', #309 ) ;
#286 = DIRECTION ( 'NONE',  ( -1.000000000000000000, 0.000000000000000000, 0.000000000000000000 ) ) ;
#287 = CARTESIAN_POINT ( 'NONE',  ( 7.499999999999993783, 25.00000000000000000, 15.00000000000000000 ) ) ;
#288 = VECTOR ( 'NONE', #222, 1000.000000000000000 ) ;
#289 = ORIENTED_EDGE ( 'NONE', *, *, #926, .T. ) ;
#290 = AXIS2_PLACEMENT_3D ( 'NONE', #205, #440, #429 ) ;
#291 = AXIS2_PLACEMENT_3D ( 'NONE', #953, #341, #40 ) ;
#292 = CARTESIAN_POINT ( 'NONE',  ( 100.0000000000000000, 0.000000000000000000, 0.000000000000000000 ) ) ;
#293 = DIRECTION ( 'NONE',  ( -1.000000000000000000, 0.000000000000000000, 0.000000000000000000 ) ) ;
#294 = ORIENTED_EDGE ( 'NONE', *, *, #433, .F. ) ;
#295 = DIRECTION ( 'NONE',  ( 1.000000000000000000, 0.000000000000000000, 0.000000000000000000 ) ) ;
#296 = LINE ( 'NONE', #669, #580 ) ;
#297 = ORIENTED_EDGE ( 'NONE', *, *, #399, .T. ) ;
#298 = VERTEX_POINT ( 'NONE', #714 ) ;
#299 = DIRECTION ( 'NONE',  ( 0.000000000000000000, 0.000000000000000000, -1.000000000000000000 ) ) ;
#300 = CARTESIAN_POINT ( 'NONE',  ( 100.0000000000000000, 0.000000000000000000, 40.00000000000000000 ) ) ;
#301 = ORIENTED_EDGE ( 'NONE', *, *, #444, .T. ) ;
#302 = AXIS2_PLACEMENT_3D ( 'NONE', #339, #255, #748 ) ;
#303 = EDGE_LOOP ( 'NONE', ( #637, #543, #812, #923 ) ) ;
#304 = ADVANCED_FACE ( 'NONE', ( #9 ), #864, .F. ) ;
#305 = VECTOR ( 'NONE', #693, 1000.000000000000000 ) ;
#306 = AXIS2_PLACEMENT_3D ( 'NONE', #106, #29, #819 ) ;
#307 = CARTESIAN_POINT ( 'NONE',  ( 7.499999999999993783, 25.00000000000000000, 15.00000000000000000 ) ) ;
#308 = EDGE_CURVE ( 'NONE', #181, #298, #114, .T. ) ;
#309 = CARTESIAN_POINT ( 'NONE',  ( 97.50000000000002842, 20.00000000000000000, 25.00000000000000000 ) ) ;
#310 = VERTEX_POINT ( 'NONE', #930 ) ;
#311 = DIRECTION ( 'NONE',  ( -0.000000000000000000, -1.000000000000000000, -0.000000000000000000 ) ) ;
#312 = DIRECTION ( 'NONE',  ( -1.000000000000000000, -0.000000000000000000, -0.000000000000000000 ) ) ;
#313 =( LENGTH_UNIT ( ) NAMED_UNIT ( * ) SI_UNIT ( .MILLI., .METRE. ) );
#314 = ORIENTED_EDGE ( 'NONE', *, *, #546, .F. ) ;
#315 = CARTESIAN_POINT ( 'NONE',  ( 7.499999999999993783, 20.00000000000000000, 15.00000000000000000 ) ) ;
#316 = CARTESIAN_POINT ( 'NONE',  ( 10.00000000000000888, 27.00000000000000000, 10.00000000000000178 ) ) ;
#317 = ORIENTED_EDGE ( 'NONE', *, *, #387, .F. ) ;
#318 = AXIS2_PLACEMENT_3D ( 'NONE', #27, #331, #643 ) ;
#319 = CARTESIAN_POINT ( 'NONE',  ( 2.500000000000023093, 25.00000000000000000, 15.00000000000000000 ) ) ;
#320 = VECTOR ( 'NONE', #156, 1000.000000000000000 ) ;
#321 = DIRECTION ( 'NONE',  ( 1.000000000000000000, -0.000000000000000000, 0.000000000000000000 ) ) ;
#322 = ADVANCED_FACE ( 'NONE', ( #625 ), #79, .T. ) ;
#323 =( NAMED_UNIT ( * ) SI_UNIT ( $, .STERADIAN. ) SOLID_ANGLE_UNIT ( ) );
#324 = ORIENTED_EDGE ( 'NONE', *, *, #76, .F. ) ;
#325 =( NAMED_UNIT ( * ) PLANE_ANGLE_UNIT ( ) SI_UNIT ( $, .RADIAN. ) );
#326 = CARTESIAN_POINT ( 'NONE',  ( 97.50000000000002842, 25.00000000000000000, 15.00000000000000000 ) ) ;
#327 = ORIENTED_EDGE ( 'NONE', *, *, #271, .T. ) ;
#328 = VERTEX_POINT ( 'NONE', #629 ) ;
#329 = DIRECTION ( 'NONE',  ( 0.000000000000000000, 0.000000000000000000, -1.000000000000000000 ) ) ;
#330 = DIRECTION ( 'NONE',  ( 1.110223024625156738E-15, 0.000000000000000000, 1.000000000000000000 ) ) ;
#331 = DIRECTION ( 'NONE',  ( 0.000000000000000000, 1.000000000000000000, 0.000000000000000000 ) ) ;
#332 = ORIENTED_EDGE ( 'NONE', *, *, #58, .T. ) ;
#333 = EDGE_CURVE ( 'NONE', #80, #557, #555, .T. ) ;
#334 = EDGE_CURVE ( 'NONE', #310, #57, #854, .T. ) ;
#335 = LINE ( 'NONE', #186, #1002 ) ;
#336 = AXIS2_PLACEMENT_3D ( 'NONE', #730, #654, #961 ) ;
#337 = LINE ( 'NONE', #197, #770 ) ;
#338 = VECTOR ( 'NONE', #870, 1000.000000000000000 ) ;
#339 = CARTESIAN_POINT ( 'NONE',  ( 0.000000000000000000, 0.000000000000000000, 0.000000000000000000 ) ) ;
#340 = ORIENTED_EDGE ( 'NONE', *, *, #224, .T. ) ;
#341 = DIRECTION ( 'NONE',  ( 1.000000000000000000, -0.000000000000000000, 0.000000000000000000 ) ) ;
#342 = CARTESIAN_POINT ( 'NONE',  ( 10.00000000000000888, 20.00000000000000000, 10.00000000000000178 ) ) ;
#343 = PLANE ( 'NONE',  #734 ) ;
#344 = ORIENTED_EDGE ( 'NONE', *, *, #944, .T. ) ;
#345 = LINE ( 'NONE', #258, #595 ) ;
#346 = CARTESIAN_POINT ( 'NONE',  ( 10.00000000000000888, 27.00000000000000000, 30.00000000000000355 ) ) ;
#347 = LINE ( 'NONE', #123, #615 ) ;
#348 = ORIENTED_EDGE ( 'NONE', *, *, #214, .T. ) ;
#349 = EDGE_CURVE ( 'NONE', #522, #695, #697, .T. ) ;
#350 = FACE_OUTER_BOUND ( 'NONE', #733, .T. ) ;
#351 = AXIS2_PLACEMENT_3D ( 'NONE', #270, #184, #647 ) ;
#352 = FACE_OUTER_BOUND ( 'NONE', #21, .T. ) ;
#353 = ADVANCED_FACE ( 'NONE', ( #248, #88 ), #938, .T. ) ;
#354 = VECTOR ( 'NONE', #529, 1000.000000000000000 ) ;
#355 = ORIENTED_EDGE ( 'NONE', *, *, #639, .T. ) ;
#356 = LINE ( 'NONE', #838, #783 ) ;
#357 = DIRECTION ( 'NONE',  ( -0.000000000000000000, -1.000000000000000000, -0.000000000000000000 ) ) ;
#358 = ORIENTED_EDGE ( 'NONE', *, *, #937, .T. ) ;
#359 = VERTEX_POINT ( 'NONE', #14 ) ;
#360 = CARTESIAN_POINT ( 'NONE',  ( 7.499999999999992895, 25.00000000000000000, 7.500000000000003553 ) ) ;
#361 = DIRECTION ( 'NONE',  ( 0.000000000000000000, 0.000000000000000000, 1.000000000000000000 ) ) ;
#362 = ORIENTED_EDGE ( 'NONE', *, *, #41, .T. ) ;
#363 = ORIENTED_EDGE ( 'NONE', *, *, #364, .T. ) ;
#364 = EDGE_CURVE ( 'NONE', #557, #897, #391, .T. ) ;
#365 = LINE ( 'NONE', #981, #402 ) ;
#366 = CARTESIAN_POINT ( 'NONE',  ( 7.499999999999992895, 25.00000000000000000, 32.50000000000000000 ) ) ;
#367 = VECTOR ( 'NONE', #100, 1000.000000000000000 ) ;
#368 = ORIENTED_EDGE ( 'NONE', *, *, #92, .F. ) ;
#369 = ORIENTED_EDGE ( 'NONE', *, *, #536, .T. ) ;
#370 = VECTOR ( 'NONE', #36, 1000.000000000000000 ) ;
#371 = CARTESIAN_POINT ( 'NONE',  ( 0.000000000000000000, 0.000000000000000000, 40.00000000000000000 ) ) ;
#372 = DIRECTION ( 'NONE',  ( 0.000000000000000000, 0.000000000000000000, -1.000000000000000000 ) ) ;
#373 = ORIENTED_EDGE ( 'NONE', *, *, #281, .F. ) ;
#374 = ORIENTED_EDGE ( 'NONE', *, *, #41, .F. ) ;
#375 = LINE ( 'NONE', #319, #634 ) ;
#376 = DIRECTION ( 'NONE',  ( -1.000000000000000000, -0.000000000000000000, -0.000000000000000000 ) ) ;
#377 = EDGE_LOOP ( 'NONE', ( #498, #983, #135, #612 ) ) ;
#378 = ORIENTED_EDGE ( 'NONE', *, *, #859, .T. ) ;
#379 = DIRECTION ( 'NONE',  ( -1.000000000000000000, 0.000000000000000000, -0.000000000000000000 ) ) ;
#380 = CARTESIAN_POINT ( 'NONE',  ( 2.500000000000023093, 25.00000000000000000, 37.50000000000000711 ) ) ;
#381 = EDGE_CURVE ( 'NONE', #948, #765, #860, .T. ) ;
#382 = CARTESIAN_POINT ( 'NONE',  ( 0.000000000000000000, 0.000000000000000000, 40.00000000000000000 ) ) ;
#383 = AXIS2_PLACEMENT_3D ( 'NONE', #104, #578, #810 ) ;
#384 = VERTEX_POINT ( 'NONE', #157 ) ;
#385 = VECTOR ( 'NONE', #561, 1000.000000000000000 ) ;
#386 = CARTESIAN_POINT ( 'NONE',  ( 2.500000000000023093, 25.00000000000000000, 37.50000000000000711 ) ) ;
#387 = EDGE_CURVE ( 'NONE', #174, #711, #475, .T. ) ;
#388 = DIRECTION ( 'NONE',  ( -0.000000000000000000, 0.000000000000000000, 1.000000000000000000 ) ) ;
#389 = ORIENTED_EDGE ( 'NONE', *, *, #45, .F. ) ;
#390 = CARTESIAN_POINT ( 'NONE',  ( 2.500000000000023093, 25.00000000000000000, 15.00000000000000000 ) ) ;
#391 = LINE ( 'NONE', #934, #195 ) ;
#392 = EDGE_CURVE ( 'NONE', #235, #887, #99, .T. ) ;
#393 = PRESENTATION_STYLE_ASSIGNMENT (( #856 ) ) ;
#394 = ORIENTED_EDGE ( 'NONE', *, *, #19, .F. ) ;
#395 = LINE ( 'NONE', #307, #320 ) ;
#396 = EDGE_CURVE ( 'NONE', #263, #600, #777, .T. ) ;
#397 = DIRECTION ( 'NONE',  ( 0.000000000000000000, 0.000000000000000000, -1.000000000000000000 ) ) ;
#398 = ORIENTED_EDGE ( 'NONE', *, *, #189, .F. ) ;
#399 = EDGE_CURVE ( 'NONE', #285, #966, #781, .T. ) ;
#400 = AXIS2_PLACEMENT_3D ( 'NONE', #542, #169, #932 ) ;
#401 =( LENGTH_UNIT ( ) NAMED_UNIT ( * ) SI_UNIT ( .MILLI., .METRE. ) );
#402 = VECTOR ( 'NONE', #286, 1000.000000000000000 ) ;
#403 = CARTESIAN_POINT ( 'NONE',  ( 0.000000000000000000, 0.000000000000000000, 0.000000000000000000 ) ) ;
#404 = ORIENTED_EDGE ( 'NONE', *, *, #219, .T. ) ;
#405 = CARTESIAN_POINT ( 'NONE',  ( 0.000000000000000000, 20.00000000000000000, 30.00000000000000355 ) ) ;
#406 = LINE ( 'NONE', #572, #599 ) ;
#407 = PLANE ( 'NONE',  #302 ) ;
#408 = EDGE_CURVE ( 'NONE', #855, #837, #707, .T. ) ;
#409 = ORIENTED_EDGE ( 'NONE', *, *, #740, .T. ) ;
#410 = CARTESIAN_POINT ( 'NONE',  ( 2.500000000000023093, 25.00000000000000000, 25.00000000000000000 ) ) ;
#411 = CARTESIAN_POINT ( 'NONE',  ( 100.0000000000000000, 20.00000000000000000, 22.00000000000000000 ) ) ;
#412 = CARTESIAN_POINT ( 'NONE',  ( 90.00000000000000000, 20.00000000000000000, 0.000000000000000000 ) ) ;
#413 = ORIENTED_EDGE ( 'NONE', *, *, #727, .T. ) ;
#414 = DIRECTION ( 'NONE',  ( 0.000000000000000000, 0.000000000000000000, -1.000000000000000000 ) ) ;
#415 = VECTOR ( 'NONE', #312, 1000.000000000000000 ) ;
#416 = DIRECTION ( 'NONE',  ( 0.000000000000000000, 0.000000000000000000, -1.000000000000000000 ) ) ;
#417 = AXIS2_PLACEMENT_3D ( 'NONE', #767, #136, #972 ) ;
#418 = EDGE_CURVE ( 'NONE', #459, #852, #793, .T. ) ;
#419 = LINE ( 'NONE', #497, #240 ) ;
#420 = ORIENTED_EDGE ( 'NONE', *, *, #676, .F. ) ;
#421 = CARTESIAN_POINT ( 'NONE',  ( 100.0000000000000000, 20.00000000000000000, 20.00000000000000000 ) ) ;
#422 = CARTESIAN_POINT ( 'NONE',  ( 90.00000000000000000, 27.00000000000000000, 30.00000000000000355 ) ) ;
#423 = CARTESIAN_POINT ( 'NONE',  ( 7.499999999999992895, 25.00000000000000000, 7.500000000000003553 ) ) ;
#424 = EDGE_LOOP ( 'NONE', ( #116, #924, #717, #213 ) ) ;
#425 = EDGE_CURVE ( 'NONE', #679, #384, #996, .T. ) ;
#426 = PLANE ( 'NONE',  #290 ) ;
#427 = CARTESIAN_POINT ( 'NONE',  ( 10.00000000000000888, 13.00000000000000178, 30.00000000000000355 ) ) ;
#428 = VERTEX_POINT ( 'NONE', #300 ) ;
#429 = DIRECTION ( 'NONE',  ( 1.000000000000000000, 0.000000000000000000, -0.000000000000000000 ) ) ;
#430 = VECTOR ( 'NONE', #598, 1000.000000000000000 ) ;
#431 = CARTESIAN_POINT ( 'NONE',  ( 97.50000000000002842, 25.00000000000000000, 25.00000000000000000 ) ) ;
#432 = AXIS2_PLACEMENT_3D ( 'NONE', #703, #147, #540 ) ;
#433 = EDGE_CURVE ( 'NONE', #837, #208, #950, .T. ) ;
#434 = AXIS2_PLACEMENT_3D ( 'NONE', #803, #491, #414 ) ;
#435 = ORIENTED_EDGE ( 'NONE', *, *, #257, .F. ) ;
#436 = ORIENTED_EDGE ( 'NONE', *, *, #425, .T. ) ;
#437 = DIRECTION ( 'NONE',  ( 0.000000000000000000, 0.000000000000000000, 1.000000000000000000 ) ) ;
#438 = DIRECTION ( 'NONE',  ( -0.000000000000000000, -0.000000000000000000, 1.000000000000000000 ) ) ;
#439 = VERTEX_POINT ( 'NONE', #729 ) ;
#440 = DIRECTION ( 'NONE',  ( 0.000000000000000000, -0.000000000000000000, 1.000000000000000000 ) ) ;
#441 = CARTESIAN_POINT ( 'NONE',  ( 10.00000000000000888, 27.00000000000000000, 10.00000000000000178 ) ) ;
#442 = ORIENTED_EDGE ( 'NONE', *, *, #791, .T. ) ;
#443 = ORIENTED_EDGE ( 'NONE', *, *, #859, .F. ) ;
#444 = EDGE_CURVE ( 'NONE', #359, #428, #254, .T. ) ;
#445 = LINE ( 'NONE', #524, #565 ) ;
#446 = DIRECTION ( 'NONE',  ( -1.000000000000000000, -0.000000000000000000, -0.000000000000000000 ) ) ;
#447 = VECTOR ( 'NONE', #505, 1000.000000000000000 ) ;
#448 = ORIENTED_EDGE ( 'NONE', *, *, #480, .T. ) ;
#449 = VECTOR ( 'NONE', #798, 1000.000000000000000 ) ;
#450 = CARTESIAN_POINT ( 'NONE',  ( 92.50000000000000000, 25.00000000000000000, 25.00000000000000000 ) ) ;
#451 = DIRECTION ( 'NONE',  ( -0.000000000000000000, -1.000000000000000000, -0.000000000000000000 ) ) ;
#452 = VERTEX_POINT ( 'NONE', #112 ) ;
#453 = EDGE_CURVE ( 'NONE', #841, #57, #967, .T. ) ;
#454 = PLANE ( 'NONE',  #1000 ) ;
#455 = EDGE_CURVE ( 'NONE', #208, #138, #646, .T. ) ;
#456 = CARTESIAN_POINT ( 'NONE',  ( 100.0000000000000000, 20.00000000000000000, 20.00000000000000000 ) ) ;
#457 = VERTEX_POINT ( 'NONE', #42 ) ;
#458 = DIRECTION ( 'NONE',  ( 0.000000000000000000, -0.000000000000000000, -1.000000000000000000 ) ) ;
#459 = VERTEX_POINT ( 'NONE', #342 ) ;
#460 = ADVANCED_FACE ( 'NONE', ( #804 ), #889, .F. ) ;
#461 = PLANE ( 'NONE',  #850 ) ;
#462 = DIRECTION ( 'NONE',  ( -1.000000000000000000, -0.000000000000000000, -0.000000000000000000 ) ) ;
#463 = EDGE_CURVE ( 'NONE', #852, #384, #406, .T. ) ;
#464 = PRODUCT_DEFINITION_FORMATION_WITH_SPECIFIED_SOURCE ( 'ANY', '', #758, .NOT_KNOWN. ) ;
#465 = VECTOR ( 'NONE', #978, 1000.000000000000000 ) ;
#466 = VERTEX_POINT ( 'NONE', #403 ) ;
#467 = VECTOR ( 'NONE', #265, 1000.000000000000000 ) ;
#468 = AXIS2_PLACEMENT_3D ( 'NONE', #421, #479, #554 ) ;
#469 = LINE ( 'NONE', #787, #535 ) ;
#470 = CARTESIAN_POINT ( 'NONE',  ( 92.50000000000000000, 20.00000000000000000, 25.00000000000000000 ) ) ;
#471 = EDGE_CURVE ( 'NONE', #5, #990, #26, .T. ) ;
#472 = LINE ( 'NONE', #789, #833 ) ;
#473 = EDGE_LOOP ( 'NONE', ( #845, #404, #301, #790 ) ) ;
#474 = PLANE ( 'NONE',  #549 ) ;
#475 = LINE ( 'NONE', #947, #51 ) ;
#476 = EDGE_CURVE ( 'NONE', #852, #181, #954, .T. ) ;
#477 = ORIENTED_EDGE ( 'NONE', *, *, #490, .F. ) ;
#478 = SURFACE_STYLE_FILL_AREA ( #539 ) ;
#479 = DIRECTION ( 'NONE',  ( -1.000000000000000000, -0.000000000000000000, -0.000000000000000000 ) ) ;
#480 = EDGE_CURVE ( 'NONE', #204, #246, #500, .T. ) ;
#481 = DIRECTION ( 'NONE',  ( 0.000000000000000000, 0.000000000000000000, 1.000000000000000000 ) ) ;
#482 = SURFACE_SIDE_STYLE ('',( #478 ) ) ;
#483 = ORIENTED_EDGE ( 'NONE', *, *, #892, .F. ) ;
#484 = VECTOR ( 'NONE', #215, 1000.000000000000000 ) ;
#485 = FACE_OUTER_BOUND ( 'NONE', #778, .T. ) ;
#486 = VECTOR ( 'NONE', #201, 1000.000000000000000 ) ;
#487 = DIRECTION ( 'NONE',  ( 1.000000000000000000, 0.000000000000000000, 0.000000000000000000 ) ) ;
#488 = FACE_OUTER_BOUND ( 'NONE', #905, .T. ) ;
#489 = ORIENTED_EDGE ( 'NONE', *, *, #45, .T. ) ;
#490 = EDGE_CURVE ( 'NONE', #457, #679, #809, .T. ) ;
#491 = DIRECTION ( 'NONE',  ( 1.000000000000000000, 0.000000000000000000, 0.000000000000000000 ) ) ;
#492 = DIRECTION ( 'NONE',  ( -1.000000000000000000, 0.000000000000000000, 1.110223024625156738E-15 ) ) ;
#493 = PLANE ( 'NONE',  #383 ) ;
#494 = ORIENTED_EDGE ( 'NONE', *, *, #444, .F. ) ;
#495 = CARTESIAN_POINT ( 'NONE',  ( 0.000000000000000000, 20.00000000000000000, 20.00000000000000000 ) ) ;
#496 = CARTESIAN_POINT ( 'NONE',  ( 7.499999999999992895, 25.00000000000000000, 32.50000000000000000 ) ) ;
#497 = CARTESIAN_POINT ( 'NONE',  ( 100.0000000000000000, 20.00000000000000000, 22.00000000000000000 ) ) ;
#498 = ORIENTED_EDGE ( 'NONE', *, *, #604, .T. ) ;
#499 = FACE_OUTER_BOUND ( 'NONE', #473, .T. ) ;
#500 = LINE ( 'NONE', #496, #179 ) ;
#501 = VECTOR ( 'NONE', #602, 1000.000000000000000 ) ;
#502 = DIRECTION ( 'NONE',  ( 1.000000000000000000, 0.000000000000000000, 0.000000000000000000 ) ) ;
#503 = ORIENTED_EDGE ( 'NONE', *, *, #214, .F. ) ;
#504 = DIRECTION ( 'NONE',  ( -0.000000000000000000, -1.000000000000000000, -0.000000000000000000 ) ) ;
#505 = DIRECTION ( 'NONE',  ( 1.000000000000000000, 0.000000000000000000, 0.000000000000000000 ) ) ;
#506 = VERTEX_POINT ( 'NONE', #107 ) ;
#507 = CARTESIAN_POINT ( 'NONE',  ( 2.500000000000023093, 20.00000000000000000, 2.500000000000002220 ) ) ;
#508 = EDGE_CURVE ( 'NONE', #298, #887, #260, .T. ) ;
#509 = LINE ( 'NONE', #431, #911 ) ;
#510 = EDGE_LOOP ( 'NONE', ( #920, #73, #915, #553 ) ) ;
#511 = ORIENTED_EDGE ( 'NONE', *, *, #480, .F. ) ;
#512 = LINE ( 'NONE', #596, #83 ) ;
#513 = VECTOR ( 'NONE', #502, 1000.000000000000000 ) ;
#514 = EDGE_CURVE ( 'NONE', #627, #916, #885, .T. ) ;
#515 = CARTESIAN_POINT ( 'NONE',  ( 90.00000000000000000, 20.00000000000000000, 18.00000000000000355 ) ) ;
#516 = VECTOR ( 'NONE', #416, 1000.000000000000000 ) ;
#517 = VERTEX_POINT ( 'NONE', #724 ) ;
#518 = ORIENTED_EDGE ( 'NONE', *, *, #228, .T. ) ;
#519 = CARTESIAN_POINT ( 'NONE',  ( 97.50000000000002842, 25.00000000000000000, 15.00000000000000000 ) ) ;
#520 = DIRECTION ( 'NONE',  ( 0.000000000000000000, -1.000000000000000000, 0.000000000000000000 ) ) ;
#521 = EDGE_CURVE ( 'NONE', #328, #466, #879, .T. ) ;
#522 = VERTEX_POINT ( 'NONE', #581 ) ;
#523 = ORIENTED_EDGE ( 'NONE', *, *, #281, .T. ) ;
#524 = CARTESIAN_POINT ( 'NONE',  ( 100.0000000000000000, 20.00000000000000000, 18.00000000000000355 ) ) ;
#525 = EDGE_CURVE ( 'NONE', #627, #868, #821, .T. ) ;
#526 = LINE ( 'NONE', #202, #430 ) ;
#527 = VERTEX_POINT ( 'NONE', #814 ) ;
#528 = ORIENTED_EDGE ( 'NONE', *, *, #349, .T. ) ;
#529 = DIRECTION ( 'NONE',  ( 1.000000000000000000, -0.000000000000000000, -0.000000000000000000 ) ) ;
#530 = EDGE_CURVE ( 'NONE', #384, #506, #337, .T. ) ;
#531 = CARTESIAN_POINT ( 'NONE',  ( 97.50000000000002842, 25.00000000000000000, 37.50000000000000711 ) ) ;
#532 = CIRCLE ( 'NONE', #698, 1.999999999999998224 ) ;
#533 = ORIENTED_EDGE ( 'NONE', *, *, #671, .F. ) ;
#534 = ORIENTED_EDGE ( 'NONE', *, *, #396, .F. ) ;
#535 = VECTOR ( 'NONE', #933, 1000.000000000000000 ) ;
#536 = EDGE_CURVE ( 'NONE', #837, #280, #653, .T. ) ;
#537 = CARTESIAN_POINT ( 'NONE',  ( 90.00000000000000000, 20.00000000000000000, 10.00000000000000178 ) ) ;
#538 = CARTESIAN_POINT ( 'NONE',  ( 0.000000000000000000, 20.00000000000000000, 0.000000000000000000 ) ) ;
#539 = FILL_AREA_STYLE ('',( #158 ) ) ;
#540 = DIRECTION ( 'NONE',  ( -1.000000000000000000, 0.000000000000000000, -0.000000000000000000 ) ) ;
#541 = DIRECTION ( 'NONE',  ( -0.000000000000000000, -0.000000000000000000, 1.000000000000000000 ) ) ;
#542 = CARTESIAN_POINT ( 'NONE',  ( 0.000000000000000000, 20.00000000000000000, 0.000000000000000000 ) ) ;
#543 = ORIENTED_EDGE ( 'NONE', *, *, #117, .F. ) ;
#544 = LINE ( 'NONE', #869, #899 ) ;
#545 = CARTESIAN_POINT ( 'NONE',  ( 2.500000000000023093, 25.00000000000000000, 2.500000000000002220 ) ) ;
#546 = EDGE_CURVE ( 'NONE', #174, #855, #20, .T. ) ;
#547 = DIRECTION ( 'NONE',  ( 1.000000000000000000, 0.000000000000000000, 0.000000000000000000 ) ) ;
#548 = AXIS2_PLACEMENT_3D ( 'NONE', #84, #167, #875 ) ;
#549 = AXIS2_PLACEMENT_3D ( 'NONE', #78, #999, #161 ) ;
#550 = CARTESIAN_POINT ( 'NONE',  ( 2.500000000000023093, 25.00000000000000000, 25.00000000000000000 ) ) ;
#551 = EDGE_CURVE ( 'NONE', #138, #948, #663, .T. ) ;
#552 = CARTESIAN_POINT ( 'NONE',  ( 7.499999999999992895, 25.00000000000000000, 7.500000000000003553 ) ) ;
#553 = ORIENTED_EDGE ( 'NONE', *, *, #681, .T. ) ;
#554 = DIRECTION ( 'NONE',  ( 0.000000000000000000, 0.000000000000000000, 1.000000000000000000 ) ) ;
#555 = LINE ( 'NONE', #545, #276 ) ;
#556 = VERTEX_POINT ( 'NONE', #292 ) ;
#557 = VERTEX_POINT ( 'NONE', #507 ) ;
#558 = ORIENTED_EDGE ( 'NONE', *, *, #476, .F. ) ;
#559 = EDGE_CURVE ( 'NONE', #600, #846, #917, .T. ) ;
#560 = FACE_OUTER_BOUND ( 'NONE', #795, .T. ) ;
#561 = DIRECTION ( 'NONE',  ( 0.000000000000000000, -1.000000000000000000, 0.000000000000000000 ) ) ;
#562 = FACE_OUTER_BOUND ( 'NONE', #957, .T. ) ;
#563 = ORIENTED_EDGE ( 'NONE', *, *, #221, .F. ) ;
#564 = VECTOR ( 'NONE', #520, 1000.000000000000000 ) ;
#565 = VECTOR ( 'NONE', #688, 1000.000000000000000 ) ;
#566 = PLANE ( 'NONE',  #732 ) ;
#567 = VECTOR ( 'NONE', #102, 1000.000000000000000 ) ;
#568 = DIRECTION ( 'NONE',  ( 0.000000000000000000, 0.000000000000000000, 1.000000000000000000 ) ) ;
#569 = PLANE ( 'NONE',  #336 ) ;
#570 = EDGE_LOOP ( 'NONE', ( #95, #558, #252, #217, #477, #324 ) ) ;
#571 = DIRECTION ( 'NONE',  ( 0.000000000000000000, 0.000000000000000000, -1.000000000000000000 ) ) ;
#572 = CARTESIAN_POINT ( 'NONE',  ( 90.00000000000000000, 27.00000000000000000, 10.00000000000000178 ) ) ;
#573 = DIRECTION ( 'NONE',  ( 0.000000000000000000, -0.000000000000000000, 1.000000000000000000 ) ) ;
#574 = EDGE_CURVE ( 'NONE', #966, #695, #842, .T. ) ;
#575 = ORIENTED_EDGE ( 'NONE', *, *, #392, .F. ) ;
#576 = FACE_OUTER_BOUND ( 'NONE', #749, .T. ) ;
#577 = DIRECTION ( 'NONE',  ( 1.156482317317871478E-16, 0.000000000000000000, -1.000000000000000000 ) ) ;
#578 = DIRECTION ( 'NONE',  ( 0.000000000000000000, 0.000000000000000000, 1.000000000000000000 ) ) ;
#579 = ORIENTED_EDGE ( 'NONE', *, *, #805, .F. ) ;
#580 = VECTOR ( 'NONE', #446, 1000.000000000000000 ) ;
#581 = CARTESIAN_POINT ( 'NONE',  ( 92.50000000000000000, 25.00000000000000000, 32.50000000000000000 ) ) ;
#582 = EDGE_CURVE ( 'NONE', #556, #149, #53, .T. ) ;
#583 = AXIS2_PLACEMENT_3D ( 'NONE', #495, #888, #737 ) ;
#584 = DIRECTION ( 'NONE',  ( 1.000000000000000000, 0.000000000000000000, 0.000000000000000000 ) ) ;
#585 = EDGE_LOOP ( 'NONE', ( #199, #670, #39, #563, #150, #741 ) ) ;
#586 = DIRECTION ( 'NONE',  ( 0.000000000000000000, 0.000000000000000000, -1.000000000000000000 ) ) ;
#587 = LINE ( 'NONE', #3, #415 ) ;
#588 = ORIENTED_EDGE ( 'NONE', *, *, #639, .F. ) ;
#589 = ADVANCED_FACE ( 'NONE', ( #350 ), #426, .F. ) ;
#590 = DIRECTION ( 'NONE',  ( -1.000000000000000000, -0.000000000000000000, -0.000000000000000000 ) ) ;
#591 = PRODUCT_DEFINITION_CONTEXT ( 'detailed design', #820, 'design' ) ;
#592 = DIRECTION ( 'NONE',  ( 1.000000000000000000, -0.000000000000000000, 0.000000000000000000 ) ) ;
#593 = EDGE_LOOP ( 'NONE', ( #994, #443, #579, #28, #74, #101 ) ) ;
#594 = ORIENTED_EDGE ( 'NONE', *, *, #611, .T. ) ;
#595 = VECTOR ( 'NONE', #111, 1000.000000000000000 ) ;
#596 = CARTESIAN_POINT ( 'NONE',  ( 7.499999999999992895, 20.00000000000000000, 7.500000000000003553 ) ) ;
#597 = AXIS2_PLACEMENT_3D ( 'NONE', #914, #72, #372 ) ;
#598 = DIRECTION ( 'NONE',  ( -0.000000000000000000, -1.000000000000000000, -0.000000000000000000 ) ) ;
#599 = VECTOR ( 'NONE', #187, 1000.000000000000000 ) ;
#600 = VERTEX_POINT ( 'NONE', #282 ) ;
#601 = ORIENTED_EDGE ( 'NONE', *, *, #189, .T. ) ;
#602 = DIRECTION ( 'NONE',  ( -0.000000000000000000, -0.000000000000000000, 1.000000000000000000 ) ) ;
#603 = DIRECTION ( 'NONE',  ( -1.000000000000000000, 0.000000000000000000, -0.000000000000000000 ) ) ;
#604 = EDGE_CURVE ( 'NONE', #807, #280, #512, .T. ) ;
#605 = ORIENTED_EDGE ( 'NONE', *, *, #681, .F. ) ;
#606 = ORIENTED_EDGE ( 'NONE', *, *, #708, .T. ) ;
#607 = DIRECTION ( 'NONE',  ( -1.000000000000000000, -0.000000000000000000, -0.000000000000000000 ) ) ;
#608 = PRODUCT_DEFINITION_SHAPE ( 'NONE', 'NONE',  #23 ) ;
#609 = LINE ( 'NONE', #441, #564 ) ;
#610 = ORIENTED_EDGE ( 'NONE', *, *, #926, .F. ) ;
#611 = EDGE_CURVE ( 'NONE', #452, #902, #445, .T. ) ;
#612 = ORIENTED_EDGE ( 'NONE', *, *, #19, .T. ) ;
#613 = DIRECTION ( 'NONE',  ( 0.000000000000000000, 0.000000000000000000, 1.000000000000000000 ) ) ;
#614 = CARTESIAN_POINT ( 'NONE',  ( 0.000000000000000000, 20.00000000000000000, 10.00000000000000178 ) ) ;
#615 = VECTOR ( 'NONE', #194, 1000.000000000000000 ) ;
#616 = VECTOR ( 'NONE', #397, 1000.000000000000000 ) ;
#617 = ORIENTED_EDGE ( 'NONE', *, *, #190, .T. ) ;
#618 = VECTOR ( 'NONE', #641, 1000.000000000000000 ) ;
#619 = LINE ( 'NONE', #936, #929 ) ;
#620 = DIRECTION ( 'NONE',  ( 0.000000000000000000, 1.000000000000000000, 0.000000000000000000 ) ) ;
#621 = ORIENTED_EDGE ( 'NONE', *, *, #574, .T. ) ;
#622 = ORIENTED_EDGE ( 'NONE', *, *, #224, .F. ) ;
#623 = CARTESIAN_POINT ( 'NONE',  ( 7.499999999999992895, 25.00000000000000000, 7.500000000000003553 ) ) ;
#624 = PRODUCT_RELATED_PRODUCT_CATEGORY ( 'part', '', ( #758 ) ) ;
#625 = FACE_OUTER_BOUND ( 'NONE', #424, .T. ) ;
#626 = DIRECTION ( 'NONE',  ( -0.000000000000000000, -1.000000000000000000, -0.000000000000000000 ) ) ;
#627 = VERTEX_POINT ( 'NONE', #125 ) ;
#628 = CARTESIAN_POINT ( 'NONE',  ( 100.0000000000000000, 20.00000000000000000, 18.00000000000000355 ) ) ;
#629 = CARTESIAN_POINT ( 'NONE',  ( 0.000000000000000000, 20.00000000000000000, 0.000000000000000000 ) ) ;
#630 = ADVANCED_FACE ( 'NONE', ( #672 ), #680, .F. ) ;
#631 = CARTESIAN_POINT ( 'NONE',  ( 92.50000000000000000, 20.00000000000000000, 7.500000000000003553 ) ) ;
#632 = AXIS2_PLACEMENT_3D ( 'NONE', #64, #293, #361 ) ;
#633 = EDGE_CURVE ( 'NONE', #691, #527, #131, .T. ) ;
#634 = VECTOR ( 'NONE', #848, 1000.000000000000000 ) ;
#635 = DIRECTION ( 'NONE',  ( 0.000000000000000000, 0.000000000000000000, 1.000000000000000000 ) ) ;
#636 = DIRECTION ( 'NONE',  ( -0.000000000000000000, -1.000000000000000000, -0.000000000000000000 ) ) ;
#637 = ORIENTED_EDGE ( 'NONE', *, *, #490, .T. ) ;
#638 = ORIENTED_EDGE ( 'NONE', *, *, #894, .F. ) ;
#639 = EDGE_CURVE ( 'NONE', #990, #841, #356, .T. ) ;
#640 = ORIENTED_EDGE ( 'NONE', *, *, #408, .T. ) ;
#641 = DIRECTION ( 'NONE',  ( 0.000000000000000000, 0.000000000000000000, -1.000000000000000000 ) ) ;
#642 = DIRECTION ( 'NONE',  ( 0.000000000000000000, 0.000000000000000000, 1.000000000000000000 ) ) ;
#643 = DIRECTION ( 'NONE',  ( 0.000000000000000000, -0.000000000000000000, 1.000000000000000000 ) ) ;
#644 = ORIENTED_EDGE ( 'NONE', *, *, #633, .T. ) ;
#645 = CARTESIAN_POINT ( 'NONE',  ( 0.000000000000000000, 20.00000000000000000, 18.00000000000000355 ) ) ;
#646 = LINE ( 'NONE', #964, #818 ) ;
#647 = DIRECTION ( 'NONE',  ( 1.000000000000000000, 0.000000000000000000, -0.000000000000000000 ) ) ;
#648 =( GEOMETRIC_REPRESENTATION_CONTEXT ( 3 ) GLOBAL_UNCERTAINTY_ASSIGNED_CONTEXT ( ( #237 ) ) GLOBAL_UNIT_ASSIGNED_CONTEXT ( ( #401, #325, #828 ) ) REPRESENTATION_CONTEXT ( 'NONE', 'WORKASPACE' ) );
#649 = ORIENTED_EDGE ( 'NONE', *, *, #96, .T. ) ;
#650 = VECTOR ( 'NONE', #193, 1000.000000000000000 ) ;
#651 = CARTESIAN_POINT ( 'NONE',  ( 10.00000000000000888, 13.00000000000000178, 30.00000000000000355 ) ) ;
#652 = VECTOR ( 'NONE', #571, 1000.000000000000000 ) ;
#653 = LINE ( 'NONE', #960, #449 ) ;
#654 = DIRECTION ( 'NONE',  ( -1.000000000000000000, 0.000000000000000000, -0.000000000000000000 ) ) ;
#655 = ORIENTED_EDGE ( 'NONE', *, *, #559, .F. ) ;
#656 = PLANE ( 'NONE',  #434 ) ;
#657 = EDGE_CURVE ( 'NONE', #831, #897, #976, .T. ) ;
#658 = ADVANCED_FACE ( 'NONE', ( #63 ), #59, .F. ) ;
#659 = DIRECTION ( 'NONE',  ( 1.000000000000000000, 0.000000000000000000, 0.000000000000000000 ) ) ;
#660 = APPLICATION_CONTEXT ( 'automotive_design' ) ;
#661 = CARTESIAN_POINT ( 'NONE',  ( 7.499999999999992895, 25.00000000000000000, 32.50000000000000000 ) ) ;
#662 = ORIENTED_EDGE ( 'NONE', *, *, #735, .T. ) ;
#663 = LINE ( 'NONE', #326, #484 ) ;
#664 = PLANE ( 'NONE',  #318 ) ;
#665 = ORIENTED_EDGE ( 'NONE', *, *, #334, .T. ) ;
#666 = VECTOR ( 'NONE', #1001, 1000.000000000000000 ) ;
#667 = PLANE ( 'NONE',  #417 ) ;
#668 = VECTOR ( 'NONE', #163, 1000.000000000000000 ) ;
#669 = CARTESIAN_POINT ( 'NONE',  ( 2.500000000000023093, 25.00000000000000000, 2.500000000000002220 ) ) ;
#670 = ORIENTED_EDGE ( 'NONE', *, *, #392, .T. ) ;
#671 = EDGE_CURVE ( 'NONE', #246, #935, #365, .T. ) ;
#672 = FACE_OUTER_BOUND ( 'NONE', #726, .T. ) ;
#673 = DIRECTION ( 'NONE',  ( -0.000000000000000000, -1.000000000000000000, -0.000000000000000000 ) ) ;
#674 = ORIENTED_EDGE ( 'NONE', *, *, #387, .T. ) ;
#675 = ORIENTED_EDGE ( 'NONE', *, *, #925, .F. ) ;
#676 = EDGE_CURVE ( 'NONE', #428, #556, #913, .T. ) ;
#677 = DIRECTION ( 'NONE',  ( -1.000000000000000000, 0.000000000000000000, 1.156482317317871971E-16 ) ) ;
#678 = LINE ( 'NONE', #982, #15 ) ;
#679 = VERTEX_POINT ( 'NONE', #747 ) ;
#680 = CYLINDRICAL_SURFACE ( 'NONE', #209, 1.999999999999998224 ) ;
#681 = EDGE_CURVE ( 'NONE', #138, #250, #210, .T. ) ;
#682 = AXIS2_PLACEMENT_3D ( 'NONE', #227, #462, #694 ) ;
#683 = FACE_OUTER_BOUND ( 'NONE', #143, .T. ) ;
#684 = VECTOR ( 'NONE', #568, 1000.000000000000000 ) ;
#685 = ORIENTED_EDGE ( 'NONE', *, *, #259, .F. ) ;
#686 = ORIENTED_EDGE ( 'NONE', *, *, #453, .F. ) ;
#687 = ADVANCED_FACE ( 'NONE', ( #47 ), #667, .F. ) ;
#688 = DIRECTION ( 'NONE',  ( -1.000000000000000000, -0.000000000000000000, -0.000000000000000000 ) ) ;
#689 = ADVANCED_FACE ( 'NONE', ( #278 ), #71, .F. ) ;
#690 = DIRECTION ( 'NONE',  ( -0.000000000000000000, -1.000000000000000000, -0.000000000000000000 ) ) ;
#691 = VERTEX_POINT ( 'NONE', #13 ) ;
#692 = EDGE_LOOP ( 'NONE', ( #756, #503, #534, #212 ) ) ;
#693 = DIRECTION ( 'NONE',  ( 0.000000000000000000, 0.000000000000000000, 1.000000000000000000 ) ) ;
#694 = DIRECTION ( 'NONE',  ( 0.000000000000000000, 0.000000000000000000, 1.000000000000000000 ) ) ;
#695 = VERTEX_POINT ( 'NONE', #706 ) ;
#696 = LINE ( 'NONE', #628, #987 ) ;
#697 = LINE ( 'NONE', #942, #130 ) ;
#698 = AXIS2_PLACEMENT_3D ( 'NONE', #239, #547, #10 ) ;
#699 = AXIS2_PLACEMENT_3D ( 'NONE', #456, #153, #481 ) ;
#700 = ORIENTED_EDGE ( 'NONE', *, *, #334, .F. ) ;
#701 = LINE ( 'NONE', #4, #800 ) ;
#702 = ORIENTED_EDGE ( 'NONE', *, *, #530, .T. ) ;
#703 = CARTESIAN_POINT ( 'NONE',  ( 7.499999999999993783, 25.00000000000000000, 15.00000000000000000 ) ) ;
#704 = DIRECTION ( 'NONE',  ( -0.000000000000000000, -1.000000000000000000, -0.000000000000000000 ) ) ;
#705 = ORIENTED_EDGE ( 'NONE', *, *, #110, .T. ) ;
#706 = CARTESIAN_POINT ( 'NONE',  ( 92.50000000000000000, 20.00000000000000000, 32.50000000000000000 ) ) ;
#707 = LINE ( 'NONE', #552, #338 ) ;
#708 = EDGE_CURVE ( 'NONE', #80, #831, #375, .T. ) ;
#709 = ORIENTED_EDGE ( 'NONE', *, *, #727, .F. ) ;
#710 = PLANE ( 'NONE',  #32 ) ;
#711 = VERTEX_POINT ( 'NONE', #315 ) ;
#712 = CARTESIAN_POINT ( 'NONE',  ( 7.499999999999992895, 20.00000000000000000, 7.500000000000003553 ) ) ;
#713 = EDGE_CURVE ( 'NONE', #527, #766, #469, .T. ) ;
#714 = CARTESIAN_POINT ( 'NONE',  ( 90.00000000000000000, 20.00000000000000000, 22.00000000000000000 ) ) ;
#715 =( NAMED_UNIT ( * ) PLANE_ANGLE_UNIT ( ) SI_UNIT ( $, .RADIAN. ) );
#716 = AXIS2_PLACEMENT_3D ( 'NONE', #316, #388, #171 ) ;
#717 = ORIENTED_EDGE ( 'NONE', *, *, #463, .F. ) ;
#718 = ADVANCED_FACE ( 'NONE', ( #236 ), #461, .F. ) ;
#719 = AXIS2_PLACEMENT_3D ( 'NONE', #538, #620, #233 ) ;
#720 = CARTESIAN_POINT ( 'NONE',  ( 97.50000000000002842, 25.00000000000000000, 15.00000000000000000 ) ) ;
#721 = EDGE_LOOP ( 'NONE', ( #142, #605, #154, #617 ) ) ;
#722 = EDGE_LOOP ( 'NONE', ( #363, #50, #121, #24 ) ) ;
#723 = DIRECTION ( 'NONE',  ( -1.000000000000000000, 0.000000000000000000, 0.000000000000000000 ) ) ;
#724 = CARTESIAN_POINT ( 'NONE',  ( 97.50000000000002842, 20.00000000000000000, 37.50000000000000711 ) ) ;
#725 = DIRECTION ( 'NONE',  ( 0.000000000000000000, 0.000000000000000000, -1.000000000000000000 ) ) ;
#726 = EDGE_LOOP ( 'NONE', ( #594, #378, #877, #840 ) ) ;
#727 = EDGE_CURVE ( 'NONE', #897, #711, #7, .T. ) ;
#728 = PLANE ( 'NONE',  #291 ) ;
#729 = CARTESIAN_POINT ( 'NONE',  ( 92.50000000000000000, 20.00000000000000000, 15.00000000000000000 ) ) ;
#730 = CARTESIAN_POINT ( 'NONE',  ( 90.00000000000000000, 27.00000000000000000, 30.00000000000000355 ) ) ;
#731 = ADVANCED_BREP_SHAPE_REPRESENTATION ( 'USB_socket', ( #6, #68 ), #648 ) ;
#732 = AXIS2_PLACEMENT_3D ( 'NONE', #25, #329, #874 ) ;
#733 = EDGE_LOOP ( 'NONE', ( #355, #230, #533, #340 ) ) ;
#734 = AXIS2_PLACEMENT_3D ( 'NONE', #760, #992, #603 ) ;
#735 = EDGE_CURVE ( 'NONE', #935, #841, #619, .T. ) ;
#736 = VECTOR ( 'NONE', #988, 1000.000000000000000 ) ;
#737 = DIRECTION ( 'NONE',  ( 0.000000000000000000, 0.000000000000000000, 1.000000000000000000 ) ) ;
#738 = DIRECTION ( 'NONE',  ( 1.000000000000000000, 0.000000000000000000, 0.000000000000000000 ) ) ;
#739 = DIRECTION ( 'NONE',  ( 1.000000000000000000, 0.000000000000000000, 0.000000000000000000 ) ) ;
#740 = EDGE_CURVE ( 'NONE', #235, #181, #696, .T. ) ;
#741 = ORIENTED_EDGE ( 'NONE', *, *, #582, .T. ) ;
#742 = CARTESIAN_POINT ( 'NONE',  ( 100.0000000000000000, 20.00000000000000000, 22.00000000000000000 ) ) ;
#743 = DIRECTION ( 'NONE',  ( -1.000000000000000000, -0.000000000000000000, -0.000000000000000000 ) ) ;
#744 = CARTESIAN_POINT ( 'NONE',  ( 0.000000000000000000, 25.00000000000000000, 0.000000000000000000 ) ) ;
#745 = ORIENTED_EDGE ( 'NONE', *, *, #892, .T. ) ;
#746 = APPLICATION_PROTOCOL_DEFINITION ( 'draft international standard', 'automotive_design', 1998, #820 ) ;
#747 = CARTESIAN_POINT ( 'NONE',  ( 90.00000000000000000, 13.00000000000000178, 30.00000000000000355 ) ) ;
#748 = DIRECTION ( 'NONE',  ( -1.000000000000000000, 0.000000000000000000, -0.000000000000000000 ) ) ;
#749 = EDGE_LOOP ( 'NONE', ( #409, #857, #919, #575 ) ) ;
#750 =( GEOMETRIC_REPRESENTATION_CONTEXT ( 3 ) GLOBAL_UNCERTAINTY_ASSIGNED_CONTEXT ( ( #977 ) ) GLOBAL_UNIT_ASSIGNED_CONTEXT ( ( #313, #715, #323 ) ) REPRESENTATION_CONTEXT ( 'NONE', 'WORKASPACE' ) );
#751 = VECTOR ( 'NONE', #607, 1000.000000000000000 ) ;
#752 = CARTESIAN_POINT ( 'NONE',  ( 0.000000000000000000, 20.00000000000000000, 40.00000000000000000 ) ) ;
#753 = VECTOR ( 'NONE', #946, 1000.000000000000000 ) ;
#754 = LINE ( 'NONE', #366, #207 ) ;
#755 = ADVANCED_FACE ( 'NONE', ( #995 ), #474, .F. ) ;
#756 = ORIENTED_EDGE ( 'NONE', *, *, #797, .T. ) ;
#757 = ORIENTED_EDGE ( 'NONE', *, *, #872, .T. ) ;
#758 = PRODUCT ( 'USB_socket', 'USB_socket', '', ( #985 ) ) ;
#759 = CARTESIAN_POINT ( 'NONE',  ( 2.500000000000023093, 25.00000000000000000, 15.00000000000000000 ) ) ;
#760 = CARTESIAN_POINT ( 'NONE',  ( 10.00000000000000888, 27.00000000000000000, 30.00000000000000355 ) ) ;
#761 = ORIENTED_EDGE ( 'NONE', *, *, #333, .F. ) ;
#762 = ORIENTED_EDGE ( 'NONE', *, *, #22, .F. ) ;
#763 = DIRECTION ( 'NONE',  ( 0.000000000000000000, 0.000000000000000000, 1.000000000000000000 ) ) ;
#764 = CARTESIAN_POINT ( 'NONE',  ( 92.50000000000000000, 20.00000000000000000, 7.500000000000003553 ) ) ;
#765 = VERTEX_POINT ( 'NONE', #792 ) ;
#766 = VERTEX_POINT ( 'NONE', #241 ) ;
#767 = CARTESIAN_POINT ( 'NONE',  ( 100.0000000000000000, 0.000000000000000000, 40.00000000000000000 ) ) ;
#768 = PRESENTATION_LAYER_ASSIGNMENT (  '', '', ( #970 ) ) ;
#769 = CARTESIAN_POINT ( 'NONE',  ( 100.0000000000000000, 20.00000000000000000, 18.00000000000000355 ) ) ;
#770 = VECTOR ( 'NONE', #743, 1000.000000000000000 ) ;
#771 = EDGE_CURVE ( 'NONE', #831, #174, #395, .T. ) ;
#772 = ORIENTED_EDGE ( 'NONE', *, *, #249, .F. ) ;
#773 = LINE ( 'NONE', #550, #305 ) ;
#774 = CARTESIAN_POINT ( 'NONE',  ( 100.0000000000000000, 0.000000000000000000, 40.00000000000000000 ) ) ;
#775 = EDGE_LOOP ( 'NONE', ( #621, #862, #44, #362 ) ) ;
#776 = CARTESIAN_POINT ( 'NONE',  ( 0.000000000000000000, 20.00000000000000000, 40.00000000000000000 ) ) ;
#777 = LINE ( 'NONE', #77, #668 ) ;
#778 = EDGE_LOOP ( 'NONE', ( #762, #784, #882, #128, #772, #483 ) ) ;
#779 = ORIENTED_EDGE ( 'NONE', *, *, #551, .T. ) ;
#780 = LINE ( 'NONE', #776, #945 ) ;
#781 = LINE ( 'NONE', #470, #261 ) ;
#782 = VECTOR ( 'NONE', #584, 1000.000000000000000 ) ;
#783 = VECTOR ( 'NONE', #921, 1000.000000000000000 ) ;
#784 = ORIENTED_EDGE ( 'NONE', *, *, #525, .F. ) ;
#785 = EDGE_LOOP ( 'NONE', ( #129, #398, #124, #528 ) ) ;
#786 = ORIENTED_EDGE ( 'NONE', *, *, #433, .T. ) ;
#787 = CARTESIAN_POINT ( 'NONE',  ( 0.000000000000000000, 20.00000000000000000, 40.00000000000000000 ) ) ;
#788 = DIRECTION ( 'NONE',  ( -0.000000000000000000, -1.000000000000000000, -0.000000000000000000 ) ) ;
#789 = CARTESIAN_POINT ( 'NONE',  ( 92.50000000000000000, 25.00000000000000000, 25.00000000000000000 ) ) ;
#790 = ORIENTED_EDGE ( 'NONE', *, *, #221, .T. ) ;
#791 = EDGE_CURVE ( 'NONE', #935, #310, #773, .T. ) ;
#792 = CARTESIAN_POINT ( 'NONE',  ( 97.50000000000001421, 20.00000000000000000, 2.500000000000002220 ) ) ;
#793 = LINE ( 'NONE', #614, #242 ) ;
#794 = ORIENTED_EDGE ( 'NONE', *, *, #96, .F. ) ;
#795 = EDGE_LOOP ( 'NONE', ( #34, #700, #1003, #662 ) ) ;
#796 = ORIENTED_EDGE ( 'NONE', *, *, #418, .T. ) ;
#797 = EDGE_CURVE ( 'NONE', #517, #285, #544, .T. ) ;
#798 = DIRECTION ( 'NONE',  ( -0.000000000000000000, -1.000000000000000000, -0.000000000000000000 ) ) ;
#799 = LINE ( 'NONE', #382, #367 ) ;
#800 = VECTOR ( 'NONE', #626, 1000.000000000000000 ) ;
#801 = ORIENTED_EDGE ( 'NONE', *, *, #232, .F. ) ;
#802 = VECTOR ( 'NONE', #659, 1000.000000000000000 ) ;
#803 = CARTESIAN_POINT ( 'NONE',  ( 2.500000000000023093, 25.00000000000000000, 25.00000000000000000 ) ) ;
#804 = FACE_OUTER_BOUND ( 'NONE', #510, .T. ) ;
#805 = EDGE_CURVE ( 'NONE', #328, #902, #780, .T. ) ;
#806 = LINE ( 'NONE', #661, #943 ) ;
#807 = VERTEX_POINT ( 'NONE', #712 ) ;
#808 = CARTESIAN_POINT ( 'NONE',  ( 97.50000000000001421, 25.00000000000000000, 2.500000000000002220 ) ) ;
#809 = LINE ( 'NONE', #422, #385 ) ;
#810 = DIRECTION ( 'NONE',  ( 1.000000000000000000, 0.000000000000000000, -0.000000000000000000 ) ) ;
#811 = ADVANCED_FACE ( 'NONE', ( #82 ), #166, .F. ) ;
#812 = ORIENTED_EDGE ( 'NONE', *, *, #514, .F. ) ;
#813 = FACE_OUTER_BOUND ( 'NONE', #722, .T. ) ;
#814 = CARTESIAN_POINT ( 'NONE',  ( 0.000000000000000000, 20.00000000000000000, 40.00000000000000000 ) ) ;
#815 = PLANE ( 'NONE',  #351 ) ;
#816 = EDGE_LOOP ( 'NONE', ( #297, #374, #655, #348 ) ) ;
#817 = VECTOR ( 'NONE', #592, 1000.000000000000000 ) ;
#818 = VECTOR ( 'NONE', #738, 1000.000000000000000 ) ;
#819 = DIRECTION ( 'NONE',  ( 0.000000000000000000, 0.000000000000000000, -1.000000000000000000 ) ) ;
#820 = APPLICATION_CONTEXT ( 'automotive_design' ) ;
#821 = LINE ( 'NONE', #119, #516 ) ;
#822 = FACE_OUTER_BOUND ( 'NONE', #185, .T. ) ;
#823 = ORIENTED_EDGE ( 'NONE', *, *, #805, .T. ) ;
#824 = CARTESIAN_POINT ( 'NONE',  ( 0.000000000000000000, 0.000000000000000000, 0.000000000000000000 ) ) ;
#825 = CARTESIAN_POINT ( 'NONE',  ( 92.50000000000000000, 20.00000000000000000, 32.50000000000000000 ) ) ;
#826 = CARTESIAN_POINT ( 'NONE',  ( 0.000000000000000000, 0.000000000000000000, 0.000000000000000000 ) ) ;
#827 = ORIENTED_EDGE ( 'NONE', *, *, #471, .F. ) ;
#828 =( NAMED_UNIT ( * ) SI_UNIT ( $, .STERADIAN. ) SOLID_ANGLE_UNIT ( ) );
#829 = CARTESIAN_POINT ( 'NONE',  ( 100.0000000000000000, 20.00000000000000000, 20.00000000000000000 ) ) ;
#830 = LINE ( 'NONE', #918, #898 ) ;
#831 = VERTEX_POINT ( 'NONE', #390 ) ;
#832 = ORIENTED_EDGE ( 'NONE', *, *, #797, .F. ) ;
#833 = VECTOR ( 'NONE', #244, 1000.000000000000000 ) ;
#834 = AXIS2_PLACEMENT_3D ( 'NONE', #720, #492, #330 ) ;
#835 = CARTESIAN_POINT ( 'NONE',  ( 100.0000000000000000, 0.000000000000000000, 0.000000000000000000 ) ) ;
#836 = DIRECTION ( 'NONE',  ( -1.156482317317871478E-16, 0.000000000000000000, 1.000000000000000000 ) ) ;
#837 = VERTEX_POINT ( 'NONE', #863 ) ;
#838 = CARTESIAN_POINT ( 'NONE',  ( 7.499999999999993783, 20.00000000000000000, 25.00000000000000000 ) ) ;
#839 = CARTESIAN_POINT ( 'NONE',  ( 97.50000000000002842, 20.00000000000000000, 15.00000000000000000 ) ) ;
#840 = ORIENTED_EDGE ( 'NONE', *, *, #22, .T. ) ;
#841 = VERTEX_POINT ( 'NONE', #226 ) ;
#842 = LINE ( 'NONE', #825, #501 ) ;
#843 = ADVANCED_FACE ( 'NONE', ( #928 ), #231, .F. ) ;
#844 = LINE ( 'NONE', #141, #817 ) ;
#845 = ORIENTED_EDGE ( 'NONE', *, *, #713, .F. ) ;
#846 = VERTEX_POINT ( 'NONE', #450 ) ;
#847 = ADVANCED_FACE ( 'NONE', ( #858 ), #454, .F. ) ;
#848 = DIRECTION ( 'NONE',  ( -0.000000000000000000, -0.000000000000000000, 1.000000000000000000 ) ) ;
#849 = LINE ( 'NONE', #279, #865 ) ;
#850 = AXIS2_PLACEMENT_3D ( 'NONE', #75, #152, #379 ) ;
#851 = ORIENTED_EDGE ( 'NONE', *, *, #771, .F. ) ;
#852 = VERTEX_POINT ( 'NONE', #537 ) ;
#853 = DIRECTION ( 'NONE',  ( -0.000000000000000000, -0.000000000000000000, -1.000000000000000000 ) ) ;
#854 = LINE ( 'NONE', #380, #666 ) ;
#855 = VERTEX_POINT ( 'NONE', #623 ) ;
#856 = SURFACE_STYLE_USAGE ( .BOTH. , #482 ) ;
#857 = ORIENTED_EDGE ( 'NONE', *, *, #308, .T. ) ;
#858 = FACE_OUTER_BOUND ( 'NONE', #105, .T. ) ;
#859 = EDGE_CURVE ( 'NONE', #902, #691, #16, .T. ) ;
#860 = LINE ( 'NONE', #243, #956 ) ;
#861 = CARTESIAN_POINT ( 'NONE',  ( 7.499999999999992895, 20.00000000000000000, 32.50000000000000000 ) ) ;
#862 = ORIENTED_EDGE ( 'NONE', *, *, #349, .F. ) ;
#863 = CARTESIAN_POINT ( 'NONE',  ( 92.50000000000000000, 25.00000000000000000, 7.500000000000003553 ) ) ;
#864 = PLANE ( 'NONE',  #548 ) ;
#865 = VECTOR ( 'NONE', #438, 1000.000000000000000 ) ;
#866 = VECTOR ( 'NONE', #139, 1000.000000000000000 ) ;
#867 = LINE ( 'NONE', #631, #49 ) ;
#868 = VERTEX_POINT ( 'NONE', #949 ) ;
#869 = CARTESIAN_POINT ( 'NONE',  ( 97.50000000000002842, 20.00000000000000000, 25.00000000000000000 ) ) ;
#870 = DIRECTION ( 'NONE',  ( 1.000000000000000000, 0.000000000000000000, 0.000000000000000000 ) ) ;
#871 = FACE_OUTER_BOUND ( 'NONE', #165, .T. ) ;
#872 = EDGE_CURVE ( 'NONE', #457, #627, #192, .T. ) ;
#873 = EDGE_LOOP ( 'NONE', ( #413, #317, #851, #940 ) ) ;
#874 = DIRECTION ( 'NONE',  ( -1.000000000000000000, 0.000000000000000000, -0.000000000000000000 ) ) ;
#875 = DIRECTION ( 'NONE',  ( 0.000000000000000000, 0.000000000000000000, -1.000000000000000000 ) ) ;
#876 = EDGE_LOOP ( 'NONE', ( #588, #827, #675, #952, #196, #832, #389, #686 ) ) ;
#877 = ORIENTED_EDGE ( 'NONE', *, *, #151, .T. ) ;
#878 = DIRECTION ( 'NONE',  ( 1.000000000000000000, 0.000000000000000000, 0.000000000000000000 ) ) ;
#879 = LINE ( 'NONE', #178, #162 ) ;
#880 = FACE_OUTER_BOUND ( 'NONE', #377, .T. ) ;
#881 = AXIS2_PLACEMENT_3D ( 'NONE', #91, #635, #220 ) ;
#882 = ORIENTED_EDGE ( 'NONE', *, *, #514, .T. ) ;
#883 = LINE ( 'NONE', #268, #618 ) ;
#884 = ADVANCED_FACE ( 'NONE', ( #560 ), #656, .F. ) ;
#885 = LINE ( 'NONE', #346, #650 ) ;
#886 = CARTESIAN_POINT ( 'NONE',  ( 2.500000000000023093, 20.00000000000000000, 37.50000000000000711 ) ) ;
#887 = VERTEX_POINT ( 'NONE', #742 ) ;
#888 = DIRECTION ( 'NONE',  ( -1.000000000000000000, 0.000000000000000000, 0.000000000000000000 ) ) ;
#889 = PLANE ( 'NONE',  #834 ) ;
#890 = CARTESIAN_POINT ( 'NONE',  ( 2.500000000000023093, 20.00000000000000000, 37.50000000000000711 ) ) ;
#891 = ORIENTED_EDGE ( 'NONE', *, *, #455, .T. ) ;
#892 = EDGE_CURVE ( 'NONE', #452, #459, #253, .T. ) ;
#893 = CYLINDRICAL_SURFACE ( 'NONE', #468, 1.999999999999998224 ) ;
#894 = EDGE_CURVE ( 'NONE', #439, #250, #335, .T. ) ;
#895 = CARTESIAN_POINT ( 'NONE',  ( 90.00000000000000000, 20.00000000000000000, 0.000000000000000000 ) ) ;
#896 = PLANE ( 'NONE',  #98 ) ;
#897 = VERTEX_POINT ( 'NONE', #958 ) ;
#898 = VECTOR ( 'NONE', #690, 1000.000000000000000 ) ;
#899 = VECTOR ( 'NONE', #853, 1000.000000000000000 ) ;
#900 = CARTESIAN_POINT ( 'NONE',  ( 7.499999999999992895, 20.00000000000000000, 32.50000000000000000 ) ) ;
#901 = FACE_OUTER_BOUND ( 'NONE', #975, .T. ) ;
#902 = VERTEX_POINT ( 'NONE', #645 ) ;
#903 = DIRECTION ( 'NONE',  ( 1.156482317317871971E-16, 0.000000000000000000, 1.000000000000000000 ) ) ;
#904 = DIRECTION ( 'NONE',  ( -0.000000000000000000, -1.000000000000000000, -0.000000000000000000 ) ) ;
#905 = EDGE_LOOP ( 'NONE', ( #523, #761, #801, #61 ) ) ;
#906 = ADVANCED_FACE ( 'NONE', ( #813 ), #728, .F. ) ;
#907 = CARTESIAN_POINT ( 'NONE',  ( 92.50000000000000000, 25.00000000000000000, 25.00000000000000000 ) ) ;
#908 = ADVANCED_FACE ( 'NONE', ( #499 ), #566, .F. ) ;
#909 = CARTESIAN_POINT ( 'NONE',  ( 97.50000000000002842, 25.00000000000000000, 37.50000000000000711 ) ) ;
#910 = ORIENTED_EDGE ( 'NONE', *, *, #671, .T. ) ;
#911 = VECTOR ( 'NONE', #673, 1000.000000000000000 ) ;
#912 = VECTOR ( 'NONE', #504, 1000.000000000000000 ) ;
#913 = LINE ( 'NONE', #122, #736 ) ;
#914 = CARTESIAN_POINT ( 'NONE',  ( 92.50000000000000000, 25.00000000000000000, 7.500000000000003553 ) ) ;
#915 = ORIENTED_EDGE ( 'NONE', *, *, #551, .F. ) ;
#916 = VERTEX_POINT ( 'NONE', #651 ) ;
#917 = LINE ( 'NONE', #907, #751 ) ;
#918 = CARTESIAN_POINT ( 'NONE',  ( 0.000000000000000000, 0.000000000000000000, 40.00000000000000000 ) ) ;
#919 = ORIENTED_EDGE ( 'NONE', *, *, #508, .T. ) ;
#920 = ORIENTED_EDGE ( 'NONE', *, *, #257, .T. ) ;
#921 = DIRECTION ( 'NONE',  ( -1.000000000000000000, 0.000000000000000000, 0.000000000000000000 ) ) ;
#922 = CARTESIAN_POINT ( 'NONE',  ( 97.50000000000002842, 20.00000000000000000, 15.00000000000000000 ) ) ;
#923 = ORIENTED_EDGE ( 'NONE', *, *, #872, .F. ) ;
#924 = ORIENTED_EDGE ( 'NONE', *, *, #530, .F. ) ;
#925 = EDGE_CURVE ( 'NONE', #695, #5, #963, .T. ) ;
#926 = EDGE_CURVE ( 'NONE', #711, #807, #345, .T. ) ;
#927 = VECTOR ( 'NONE', #188, 1000.000000000000000 ) ;
#928 = FACE_OUTER_BOUND ( 'NONE', #873, .T. ) ;
#929 = VECTOR ( 'NONE', #311, 1000.000000000000000 ) ;
#930 = CARTESIAN_POINT ( 'NONE',  ( 2.500000000000023093, 25.00000000000000000, 37.50000000000000711 ) ) ;
#931 = VECTOR ( 'NONE', #487, 1000.000000000000000 ) ;
#932 = DIRECTION ( 'NONE',  ( 0.000000000000000000, -0.000000000000000000, 1.000000000000000000 ) ) ;
#933 = DIRECTION ( 'NONE',  ( 1.000000000000000000, -0.000000000000000000, 0.000000000000000000 ) ) ;
#934 = CARTESIAN_POINT ( 'NONE',  ( 2.500000000000023093, 20.00000000000000000, 15.00000000000000000 ) ) ;
#935 = VERTEX_POINT ( 'NONE', #410 ) ;
#936 = CARTESIAN_POINT ( 'NONE',  ( 2.500000000000023093, 25.00000000000000000, 25.00000000000000000 ) ) ;
#937 = EDGE_CURVE ( 'NONE', #235, #149, #883, .T. ) ;
#938 = PLANE ( 'NONE',  #719 ) ;
#939 = CARTESIAN_POINT ( 'NONE',  ( 0.000000000000000000, 13.00000000000000178, 0.000000000000000000 ) ) ;
#940 = ORIENTED_EDGE ( 'NONE', *, *, #657, .T. ) ;
#941 = CARTESIAN_POINT ( 'NONE',  ( 7.499999999999993783, 20.00000000000000000, 15.00000000000000000 ) ) ;
#942 = CARTESIAN_POINT ( 'NONE',  ( 92.50000000000000000, 25.00000000000000000, 32.50000000000000000 ) ) ;
#943 = VECTOR ( 'NONE', #968, 1000.000000000000000 ) ;
#944 = EDGE_CURVE ( 'NONE', #766, #887, #247, .T. ) ;
#945 = VECTOR ( 'NONE', #613, 1000.000000000000000 ) ;
#946 = DIRECTION ( 'NONE',  ( 0.000000000000000000, 0.000000000000000000, -1.000000000000000000 ) ) ;
#947 = CARTESIAN_POINT ( 'NONE',  ( 7.499999999999993783, 25.00000000000000000, 15.00000000000000000 ) ) ;
#948 = VERTEX_POINT ( 'NONE', #808 ) ;
#949 = CARTESIAN_POINT ( 'NONE',  ( 10.00000000000000888, 20.00000000000000000, 22.00000000000000000 ) ) ;
#950 = LINE ( 'NONE', #183, #115 ) ;
#951 = DIRECTION ( 'NONE',  ( -1.000000000000000000, 0.000000000000000000, -0.000000000000000000 ) ) ;
#952 = ORIENTED_EDGE ( 'NONE', *, *, #574, .F. ) ;
#953 = CARTESIAN_POINT ( 'NONE',  ( 2.500000000000023093, 25.00000000000000000, 15.00000000000000000 ) ) ;
#954 = LINE ( 'NONE', #895, #370 ) ;
#955 = LINE ( 'NONE', #198, #447 ) ;
#956 = VECTOR ( 'NONE', #704, 1000.000000000000000 ) ;
#957 = EDGE_LOOP ( 'NONE', ( #786, #891, #779, #234, #606, #277, #191, #640 ) ) ;
#958 = CARTESIAN_POINT ( 'NONE',  ( 2.500000000000023093, 20.00000000000000000, 15.00000000000000000 ) ) ;
#959 = ADVANCED_FACE ( 'NONE', ( #485 ), #175, .T. ) ;
#960 = CARTESIAN_POINT ( 'NONE',  ( 92.50000000000000000, 25.00000000000000000, 7.500000000000003553 ) ) ;
#961 = DIRECTION ( 'NONE',  ( -0.000000000000000000, 0.000000000000000000, 1.000000000000000000 ) ) ;
#962 = ORIENTED_EDGE ( 'NONE', *, *, #471, .T. ) ;
#963 = LINE ( 'NONE', #182, #567 ) ;
#964 = CARTESIAN_POINT ( 'NONE',  ( 92.50000000000000000, 25.00000000000000000, 15.00000000000000000 ) ) ;
#965 = FACE_OUTER_BOUND ( 'NONE', #816, .T. ) ;
#966 = VERTEX_POINT ( 'NONE', #118 ) ;
#967 = LINE ( 'NONE', #97, #684 ) ;
#968 = DIRECTION ( 'NONE',  ( -1.000000000000000000, -0.000000000000000000, -0.000000000000000000 ) ) ;
#969 = ORIENTED_EDGE ( 'NONE', *, *, #38, .T. ) ;
#970 = STYLED_ITEM ( 'NONE', ( #393 ), #6 ) ;
#971 = VECTOR ( 'NONE', #577, 1000.000000000000000 ) ;
#972 = DIRECTION ( 'NONE',  ( 0.000000000000000000, 0.000000000000000000, 1.000000000000000000 ) ) ;
#973 = ADVANCED_FACE ( 'NONE', ( #576 ), #893, .F. ) ;
#974 = LINE ( 'NONE', #922, #288 ) ;
#975 = EDGE_LOOP ( 'NONE', ( #448, #910, #442, #66, #67, #86, #327, #332 ) ) ;
#976 = LINE ( 'NONE', #759, #912 ) ;
#977 = UNCERTAINTY_MEASURE_WITH_UNIT (LENGTH_MEASURE( 1.000000000000000082E-05 ), #313, 'distance_accuracy_value', 'NONE');
#978 = DIRECTION ( 'NONE',  ( 0.000000000000000000, 1.000000000000000000, 0.000000000000000000 ) ) ;
#979 = ORIENTED_EDGE ( 'NONE', *, *, #117, .T. ) ;
#980 = APPLICATION_PROTOCOL_DEFINITION ( 'draft international standard', 'automotive_design', 1998, #660 ) ;
#981 = CARTESIAN_POINT ( 'NONE',  ( 7.499999999999993783, 25.00000000000000000, 25.00000000000000000 ) ) ;
#982 = CARTESIAN_POINT ( 'NONE',  ( 7.499999999999993783, 25.00000000000000000, 25.00000000000000000 ) ) ;
#983 = ORIENTED_EDGE ( 'NONE', *, *, #536, .F. ) ;
#984 = ORIENTED_EDGE ( 'NONE', *, *, #151, .F. ) ;
#985 = PRODUCT_CONTEXT ( 'NONE', #660, 'mechanical' ) ;
#986 = CLOSED_SHELL ( 'NONE', ( #1, #353, #755, #687, #689, #133, #908, #145, #322, #959, #172, #8, #245, #718, #460, #81, #906, #843, #658, #90, #140, #200, #589, #884, #847, #176, #65, #304, #811, #56, #630, #973 ) ) ;
#987 = VECTOR ( 'NONE', #87, 1000.000000000000000 ) ;
#988 = DIRECTION ( 'NONE',  ( -0.000000000000000000, -0.000000000000000000, -1.000000000000000000 ) ) ;
#989 = CARTESIAN_POINT ( 'NONE',  ( 92.50000000000000000, 25.00000000000000000, 15.00000000000000000 ) ) ;
#990 = VERTEX_POINT ( 'NONE', #170 ) ;
#991 = DIRECTION ( 'NONE',  ( 1.000000000000000000, 0.000000000000000000, 0.000000000000000000 ) ) ;
#992 = DIRECTION ( 'NONE',  ( 0.000000000000000000, 0.000000000000000000, -1.000000000000000000 ) ) ;
#993 = ORIENTED_EDGE ( 'NONE', *, *, #611, .F. ) ;
#994 = ORIENTED_EDGE ( 'NONE', *, *, #633, .F. ) ;
#995 = FACE_OUTER_BOUND ( 'NONE', #12, .T. ) ;
#996 = LINE ( 'NONE', #93, #616 ) ;
#997 = EDGE_LOOP ( 'NONE', ( #436, #702, #705, #979 ) ) ;
#998 = AXIS2_PLACEMENT_3D ( 'NONE', #126, #54, #836 ) ;
#999 = DIRECTION ( 'NONE',  ( 0.000000000000000000, 1.000000000000000000, 0.000000000000000000 ) ) ;
#1000 = AXIS2_PLACEMENT_3D ( 'NONE', #386, #299, #2 ) ;
#1001 = DIRECTION ( 'NONE',  ( -0.000000000000000000, -1.000000000000000000, -0.000000000000000000 ) ) ;
#1002 = VECTOR ( 'NONE', #878, 1000.000000000000000 ) ;
#1003 = ORIENTED_EDGE ( 'NONE', *, *, #791, .F. ) ;
ENDSEC;
END-ISO-10303-21;
