ISO-10303-21;
HEADER;
FILE_DESCRIPTION (( 'STEP AP214' ),
    '1' );
FILE_NAME ('USB_socket_2.STEP',
    '2026-09-14T09:52:01',
    ( '' ),
    ( '' ),
    'SwSTEP 2.0',
    'SolidWorks 2024',
    '' );
FILE_SCHEMA (( 'AUTOMOTIVE_DESIGN' ));
ENDSEC;

DATA;
#1 = LINE ( 'NONE', #847, #705 ) ;
#2 = ORIENTED_EDGE ( 'NONE', *, *, #53, .F. ) ;
#3 = FACE_OUTER_BOUND ( 'NONE', #653, .T. ) ;
#4 = ORIENTED_EDGE ( 'NONE', *, *, #930, .T. ) ;
#5 = DIRECTION ( 'NONE',  ( 0.000000000000000000, 1.000000000000000000, 0.000000000000000000 ) ) ;
#6 = DIRECTION ( 'NONE',  ( -0.000000000000000000, -1.000000000000000000, -0.000000000000000000 ) ) ;
#7 = PRODUCT ( 'USB_socket_2', 'USB_socket_2', '', ( #301 ) ) ;
#8 = ADVANCED_FACE ( 'NONE', ( #312 ), #997, .F. ) ;
#9 = DIRECTION ( 'NONE',  ( 1.000000000000000000, 0.000000000000000000, -0.000000000000000000 ) ) ;
#10 = FACE_BOUND ( 'NONE', #887, .T. ) ;
#11 = ORIENTED_EDGE ( 'NONE', *, *, #277, .F. ) ;
#12 = AXIS2_PLACEMENT_3D ( 'NONE', #221, #335, #706 ) ;
#13 = DIRECTION ( 'NONE',  ( 0.000000000000000000, 0.000000000000000000, 1.000000000000000000 ) ) ;
#14 = CARTESIAN_POINT ( 'NONE',  ( 0.000000000000000000, 20.00000000000000000, 40.00000000000000000 ) ) ;
#15 = ORIENTED_EDGE ( 'NONE', *, *, #396, .T. ) ;
#16 = CARTESIAN_POINT ( 'NONE',  ( 100.0000000000000000, 20.00000000000000000, 20.00000000000000000 ) ) ;
#17 = PLANE ( 'NONE',  #831 ) ;
#18 = DIRECTION ( 'NONE',  ( 1.051347561198065796E-15, -0.000000000000000000, -1.000000000000000000 ) ) ;
#19 = LINE ( 'NONE', #332, #237 ) ;
#20 = VECTOR ( 'NONE', #203, 1000.000000000000000 ) ;
#21 = EDGE_CURVE ( 'NONE', #808, #299, #688, .T. ) ;
#22 = VECTOR ( 'NONE', #781, 1000.000000000000000 ) ;
#23 = VERTEX_POINT ( 'NONE', #937 ) ;
#24 = VECTOR ( 'NONE', #108, 1000.000000000000000 ) ;
#25 = DIRECTION ( 'NONE',  ( -0.000000000000000000, -0.000000000000000000, -1.000000000000000000 ) ) ;
#26 = DIRECTION ( 'NONE',  ( 1.000000000000000000, -0.000000000000000000, 1.112002228190261691E-16 ) ) ;
#27 = VECTOR ( 'NONE', #614, 1000.000000000000000 ) ;
#28 = VERTEX_POINT ( 'NONE', #444 ) ;
#29 = EDGE_CURVE ( 'NONE', #64, #115, #929, .T. ) ;
#30 = EDGE_CURVE ( 'NONE', #506, #120, #837, .T. ) ;
#31 = ORIENTED_EDGE ( 'NONE', *, *, #943, .T. ) ;
#32 = LINE ( 'NONE', #268, #393 ) ;
#33 = PLANE ( 'NONE',  #177 ) ;
#34 = ORIENTED_EDGE ( 'NONE', *, *, #210, .T. ) ;
#35 = ADVANCED_FACE ( 'NONE', ( #991 ), #538, .T. ) ;
#36 = VERTEX_POINT ( 'NONE', #531 ) ;
#37 = VECTOR ( 'NONE', #80, 1000.000000000000000 ) ;
#38 = EDGE_LOOP ( 'NONE', ( #384, #520, #455, #806 ) ) ;
#39 = EDGE_CURVE ( 'NONE', #645, #481, #374, .T. ) ;
#40 = DIRECTION ( 'NONE',  ( -0.000000000000000000, -1.000000000000000000, -0.000000000000000000 ) ) ;
#41 = EDGE_LOOP ( 'NONE', ( #382, #866, #950, #891 ) ) ;
#42 = VERTEX_POINT ( 'NONE', #763 ) ;
#43 = VECTOR ( 'NONE', #601, 1000.000000000000000 ) ;
#44 = ORIENTED_EDGE ( 'NONE', *, *, #388, .T. ) ;
#45 = DIRECTION ( 'NONE',  ( -1.000000000000000000, 0.000000000000000000, -0.000000000000000000 ) ) ;
#46 = FACE_OUTER_BOUND ( 'NONE', #526, .T. ) ;
#47 = ORIENTED_EDGE ( 'NONE', *, *, #256, .T. ) ;
#48 = EDGE_LOOP ( 'NONE', ( #527, #495, #270, #389 ) ) ;
#49 = DIRECTION ( 'NONE',  ( 1.112002228190260212E-16, 0.000000000000000000, 1.000000000000000000 ) ) ;
#50 = CARTESIAN_POINT ( 'NONE',  ( 92.29999999999999716, 25.00000000000000000, 7.699999999999994849 ) ) ;
#51 = DIRECTION ( 'NONE',  ( -1.000000000000000000, -0.000000000000000000, -0.000000000000000000 ) ) ;
#52 = ORIENTED_EDGE ( 'NONE', *, *, #686, .F. ) ;
#53 = EDGE_CURVE ( 'NONE', #945, #261, #309, .T. ) ;
#54 = DIRECTION ( 'NONE',  ( 1.000000000000000000, -0.000000000000000000, 0.000000000000000000 ) ) ;
#55 = DIRECTION ( 'NONE',  ( 0.000000000000000000, 0.000000000000000000, 1.000000000000000000 ) ) ;
#56 = CARTESIAN_POINT ( 'NONE',  ( 10.00000000000000888, 27.00000000000000000, 30.00000000000000355 ) ) ;
#57 = ORIENTED_EDGE ( 'NONE', *, *, #416, .F. ) ;
#58 = VERTEX_POINT ( 'NONE', #685 ) ;
#59 = EDGE_CURVE ( 'NONE', #28, #836, #379, .T. ) ;
#60 = DIRECTION ( 'NONE',  ( 0.000000000000000000, 0.000000000000000000, -1.000000000000000000 ) ) ;
#61 = EDGE_CURVE ( 'NONE', #200, #58, #609, .T. ) ;
#62 = DIRECTION ( 'NONE',  ( 1.000000000000000000, 0.000000000000000000, 0.000000000000000000 ) ) ;
#63 = DIRECTION ( 'NONE',  ( 1.000000000000000000, 0.000000000000000000, 0.000000000000000000 ) ) ;
#64 = VERTEX_POINT ( 'NONE', #758 ) ;
#65 = CARTESIAN_POINT ( 'NONE',  ( 92.29999999999999716, 20.00000000000000000, 24.50000000000000000 ) ) ;
#66 = DIRECTION ( 'NONE',  ( -0.000000000000000000, -1.000000000000000000, -0.000000000000000000 ) ) ;
#67 = LINE ( 'NONE', #597, #867 ) ;
#68 = ORIENTED_EDGE ( 'NONE', *, *, #636, .F. ) ;
#69 = ORIENTED_EDGE ( 'NONE', *, *, #277, .T. ) ;
#70 = LINE ( 'NONE', #233, #141 ) ;
#71 = DIRECTION ( 'NONE',  ( -1.051347561198065796E-15, 0.000000000000000000, 1.000000000000000000 ) ) ;
#72 = ORIENTED_EDGE ( 'NONE', *, *, #256, .F. ) ;
#73 = EDGE_CURVE ( 'NONE', #152, #547, #74, .T. ) ;
#74 = LINE ( 'NONE', #765, #27 ) ;
#75 = VECTOR ( 'NONE', #735, 1000.000000000000000 ) ;
#76 = DIRECTION ( 'NONE',  ( -1.000000000000000000, 0.000000000000000000, -0.000000000000000000 ) ) ;
#77 = VECTOR ( 'NONE', #448, 1000.000000000000000 ) ;
#78 = CARTESIAN_POINT ( 'NONE',  ( 92.29999999999999716, 25.00000000000000000, 32.29999999999999716 ) ) ;
#79 = ORIENTED_EDGE ( 'NONE', *, *, #580, .T. ) ;
#80 = DIRECTION ( 'NONE',  ( -0.000000000000000000, -1.000000000000000000, -0.000000000000000000 ) ) ;
#81 = LINE ( 'NONE', #470, #282 ) ;
#82 = ORIENTED_EDGE ( 'NONE', *, *, #61, .T. ) ;
#83 = CARTESIAN_POINT ( 'NONE',  ( 7.699999999999998401, 25.00000000000000000, 32.29999999999999716 ) ) ;
#84 = CARTESIAN_POINT ( 'NONE',  ( 2.300000000000010481, 25.00000000000000000, 15.50000000000000000 ) ) ;
#85 = ORIENTED_EDGE ( 'NONE', *, *, #101, .T. ) ;
#86 = AXIS2_PLACEMENT_3D ( 'NONE', #958, #90, #639 ) ;
#87 = DIRECTION ( 'NONE',  ( 1.000000000000000000, 0.000000000000000000, 0.000000000000000000 ) ) ;
#88 = ADVANCED_FACE ( 'NONE', ( #876 ), #869, .F. ) ;
#89 = CLOSED_SHELL ( 'NONE', ( #142, #683, #885, #150, #324, #542, #340, #357, #556, #830, #248, #35, #387, #468, #88, #440, #624, #844, #197, #768, #283, #565, #643, #456, #502, #892, #8, #491, #603, #610, #815, #762 ) ) ;
#90 = DIRECTION ( 'NONE',  ( 0.000000000000000000, 0.000000000000000000, -1.000000000000000000 ) ) ;
#91 = FACE_OUTER_BOUND ( 'NONE', #578, .T. ) ;
#92 = ORIENTED_EDGE ( 'NONE', *, *, #825, .T. ) ;
#93 = LINE ( 'NONE', #946, #121 ) ;
#94 = EDGE_CURVE ( 'NONE', #131, #645, #179, .T. ) ;
#95 = DIRECTION ( 'NONE',  ( 0.000000000000000000, 0.000000000000000000, -1.000000000000000000 ) ) ;
#96 = CARTESIAN_POINT ( 'NONE',  ( 7.699999999999999289, 25.00000000000000000, 15.50000000000000000 ) ) ;
#97 = CARTESIAN_POINT ( 'NONE',  ( 10.00000000000000888, 20.00000000000000000, 20.00000000000000000 ) ) ;
#98 = ORIENTED_EDGE ( 'NONE', *, *, #686, .T. ) ;
#99 = CARTESIAN_POINT ( 'NONE',  ( 97.70000000000001705, 20.00000000000000000, 24.50000000000000000 ) ) ;
#100 = VERTEX_POINT ( 'NONE', #331 ) ;
#101 = EDGE_CURVE ( 'NONE', #933, #851, #484, .T. ) ;
#102 = AXIS2_PLACEMENT_3D ( 'NONE', #682, #1002, #940 ) ;
#103 = DIRECTION ( 'NONE',  ( 0.000000000000000000, -0.000000000000000000, 1.000000000000000000 ) ) ;
#104 = CARTESIAN_POINT ( 'NONE',  ( 100.0000000000000000, 0.000000000000000000, 40.00000000000000000 ) ) ;
#105 = EDGE_CURVE ( 'NONE', #131, #899, #247, .T. ) ;
#106 = ORIENTED_EDGE ( 'NONE', *, *, #963, .T. ) ;
#107 = ORIENTED_EDGE ( 'NONE', *, *, #575, .F. ) ;
#108 = DIRECTION ( 'NONE',  ( -1.000000000000000000, 0.000000000000000000, 0.000000000000000000 ) ) ;
#109 = VECTOR ( 'NONE', #744, 1000.000000000000000 ) ;
#110 = DIRECTION ( 'NONE',  ( -0.000000000000000000, -1.000000000000000000, -0.000000000000000000 ) ) ;
#111 = DIRECTION ( 'NONE',  ( -1.000000000000000000, -0.000000000000000000, -0.000000000000000000 ) ) ;
#112 = DIRECTION ( 'NONE',  ( 0.000000000000000000, 1.000000000000000000, 0.000000000000000000 ) ) ;
#113 = ORIENTED_EDGE ( 'NONE', *, *, #30, .T. ) ;
#114 = VECTOR ( 'NONE', #187, 1000.000000000000000 ) ;
#115 = VERTEX_POINT ( 'NONE', #253 ) ;
#116 = EDGE_LOOP ( 'NONE', ( #978, #68, #863, #34 ) ) ;
#117 = EDGE_CURVE ( 'NONE', #428, #64, #696, .T. ) ;
#118 = PLANE ( 'NONE',  #966 ) ;
#119 = AXIS2_PLACEMENT_3D ( 'NONE', #534, #303, #673 ) ;
#120 = VERTEX_POINT ( 'NONE', #715 ) ;
#121 = VECTOR ( 'NONE', #252, 1000.000000000000000 ) ;
#122 = ORIENTED_EDGE ( 'NONE', *, *, #774, .T. ) ;
#123 = EDGE_LOOP ( 'NONE', ( #878, #176, #319, #166 ) ) ;
#124 = VECTOR ( 'NONE', #785, 1000.000000000000000 ) ;
#125 = LINE ( 'NONE', #132, #572 ) ;
#126 = CARTESIAN_POINT ( 'NONE',  ( 2.300000000000010481, 20.00000000000000000, 15.50000000000000000 ) ) ;
#127 = CARTESIAN_POINT ( 'NONE',  ( 2.299999999999996270, 25.00000000000000000, 37.69999999999998863 ) ) ;
#128 = VERTEX_POINT ( 'NONE', #478 ) ;
#129 = ORIENTED_EDGE ( 'NONE', *, *, #39, .F. ) ;
#130 = EDGE_CURVE ( 'NONE', #568, #704, #560, .T. ) ;
#131 = VERTEX_POINT ( 'NONE', #709 ) ;
#132 = CARTESIAN_POINT ( 'NONE',  ( 7.699999999999998401, 25.00000000000000000, 7.699999999999994849 ) ) ;
#133 = PLANE ( 'NONE',  #206 ) ;
#134 = VERTEX_POINT ( 'NONE', #543 ) ;
#135 = EDGE_CURVE ( 'NONE', #136, #547, #628, .T. ) ;
#136 = VERTEX_POINT ( 'NONE', #953 ) ;
#137 = CARTESIAN_POINT ( 'NONE',  ( 2.299999999999996270, 20.00000000000000000, 37.69999999999998863 ) ) ;
#138 = LINE ( 'NONE', #910, #848 ) ;
#139 = COLOUR_RGB ( '',0.7921568627450980005, 0.8196078431372548767, 0.9333333333333333481 ) ;
#140 = CARTESIAN_POINT ( 'NONE',  ( 10.00000000000000888, 27.00000000000000000, 10.00000000000000178 ) ) ;
#141 = VECTOR ( 'NONE', #678, 1000.000000000000000 ) ;
#142 = ADVANCED_FACE ( 'NONE', ( #10, #325 ), #185, .F. ) ;
#143 = CARTESIAN_POINT ( 'NONE',  ( 92.29999999999999716, 25.00000000000000000, 32.29999999999999716 ) ) ;
#144 = FACE_OUTER_BOUND ( 'NONE', #818, .T. ) ;
#145 = CARTESIAN_POINT ( 'NONE',  ( 10.00000000000000888, 27.00000000000000000, 10.00000000000000178 ) ) ;
#146 = DIRECTION ( 'NONE',  ( 0.000000000000000000, 0.000000000000000000, -1.000000000000000000 ) ) ;
#147 = DIRECTION ( 'NONE',  ( -1.000000000000000000, -0.000000000000000000, -0.000000000000000000 ) ) ;
#148 = SHAPE_DEFINITION_REPRESENTATION ( #322, #927 ) ;
#149 = LINE ( 'NONE', #999, #227 ) ;
#150 = ADVANCED_FACE ( 'NONE', ( #91 ), #33, .F. ) ;
#151 = FACE_OUTER_BOUND ( 'NONE', #635, .T. ) ;
#152 = VERTEX_POINT ( 'NONE', #337 ) ;
#153 = CARTESIAN_POINT ( 'NONE',  ( 2.299999999999996270, 25.00000000000000000, 2.299999999999993161 ) ) ;
#154 = AXIS2_PLACEMENT_3D ( 'NONE', #612, #606, #385 ) ;
#155 = LINE ( 'NONE', #1000, #845 ) ;
#156 = ORIENTED_EDGE ( 'NONE', *, *, #737, .T. ) ;
#157 = EDGE_CURVE ( 'NONE', #808, #315, #551, .T. ) ;
#158 = ORIENTED_EDGE ( 'NONE', *, *, #595, .F. ) ;
#159 = AXIS2_PLACEMENT_3D ( 'NONE', #404, #258, #9 ) ;
#160 = CARTESIAN_POINT ( 'NONE',  ( 2.300000000000010481, 20.00000000000000000, 15.50000000000000000 ) ) ;
#161 = VECTOR ( 'NONE', #259, 1000.000000000000000 ) ;
#162 = ORIENTED_EDGE ( 'NONE', *, *, #739, .F. ) ;
#163 = EDGE_CURVE ( 'NONE', #195, #128, #640, .T. ) ;
#164 = DIRECTION ( 'NONE',  ( 0.000000000000000000, -0.000000000000000000, -1.000000000000000000 ) ) ;
#165 = CARTESIAN_POINT ( 'NONE',  ( 2.299999999999996270, 25.00000000000000000, 37.69999999999998863 ) ) ;
#166 = ORIENTED_EDGE ( 'NONE', *, *, #105, .T. ) ;
#167 = LINE ( 'NONE', #770, #710 ) ;
#168 = CARTESIAN_POINT ( 'NONE',  ( 7.699999999999999289, 25.00000000000000000, 15.50000000000000000 ) ) ;
#169 = EDGE_CURVE ( 'NONE', #115, #225, #472, .T. ) ;
#170 = ORIENTED_EDGE ( 'NONE', *, *, #29, .F. ) ;
#171 = LINE ( 'NONE', #83, #589 ) ;
#172 = CARTESIAN_POINT ( 'NONE',  ( 0.000000000000000000, 0.000000000000000000, 40.00000000000000000 ) ) ;
#173 = ORIENTED_EDGE ( 'NONE', *, *, #943, .F. ) ;
#174 = AXIS2_PLACEMENT_3D ( 'NONE', #513, #924, #832 ) ;
#175 = CARTESIAN_POINT ( 'NONE',  ( 97.70000000000001705, 20.00000000000000000, 15.50000000000000000 ) ) ;
#176 = ORIENTED_EDGE ( 'NONE', *, *, #731, .F. ) ;
#177 = AXIS2_PLACEMENT_3D ( 'NONE', #172, #398, #948 ) ;
#178 = PLANE ( 'NONE',  #243 ) ;
#179 = LINE ( 'NONE', #632, #592 ) ;
#180 = LINE ( 'NONE', #414, #421 ) ;
#181 = EDGE_LOOP ( 'NONE', ( #31, #434, #44, #961 ) ) ;
#182 = EDGE_CURVE ( 'NONE', #796, #807, #604, .T. ) ;
#183 = CARTESIAN_POINT ( 'NONE',  ( 2.300000000000010481, 20.00000000000000000, 24.50000000000000000 ) ) ;
#184 = DIRECTION ( 'NONE',  ( -1.000000000000000000, 0.000000000000000000, -1.051347561198065796E-15 ) ) ;
#185 = PLANE ( 'NONE',  #779 ) ;
#186 = EDGE_LOOP ( 'NONE', ( #722, #346, #122, #625, #955, #571, #630, #516 ) ) ;
#187 = DIRECTION ( 'NONE',  ( -1.000000000000000000, -0.000000000000000000, -0.000000000000000000 ) ) ;
#188 = PLANE ( 'NONE',  #86 ) ;
#189 = CARTESIAN_POINT ( 'NONE',  ( 90.00000000000000000, 20.00000000000000000, 20.00000000000000000 ) ) ;
#190 = DIRECTION ( 'NONE',  ( -1.000000000000000000, -0.000000000000000000, -0.000000000000000000 ) ) ;
#191 = ORIENTED_EDGE ( 'NONE', *, *, #792, .F. ) ;
#192 = CARTESIAN_POINT ( 'NONE',  ( 10.00000000000000888, 27.00000000000000000, 30.00000000000000355 ) ) ;
#193 = ORIENTED_EDGE ( 'NONE', *, *, #135, .F. ) ;
#194 = EDGE_CURVE ( 'NONE', #136, #134, #850, .T. ) ;
#195 = VERTEX_POINT ( 'NONE', #168 ) ;
#196 = ORIENTED_EDGE ( 'NONE', *, *, #498, .F. ) ;
#197 = ADVANCED_FACE ( 'NONE', ( #466 ), #772, .F. ) ;
#198 =( LENGTH_UNIT ( ) NAMED_UNIT ( * ) SI_UNIT ( .MILLI., .METRE. ) );
#199 = LINE ( 'NONE', #797, #24 ) ;
#200 = VERTEX_POINT ( 'NONE', #944 ) ;
#201 = CIRCLE ( 'NONE', #756, 2.999999999999999112 ) ;
#202 = ORIENTED_EDGE ( 'NONE', *, *, #371, .T. ) ;
#203 = DIRECTION ( 'NONE',  ( 1.051347561198064416E-15, -0.000000000000000000, 1.000000000000000000 ) ) ;
#204 = FACE_OUTER_BOUND ( 'NONE', #794, .T. ) ;
#205 = EDGE_CURVE ( 'NONE', #654, #128, #250, .T. ) ;
#206 = AXIS2_PLACEMENT_3D ( 'NONE', #905, #279, #926 ) ;
#207 = ORIENTED_EDGE ( 'NONE', *, *, #59, .T. ) ;
#208 = VECTOR ( 'NONE', #452, 1000.000000000000000 ) ;
#209 = CARTESIAN_POINT ( 'NONE',  ( 90.00000000000000000, 20.00000000000000000, 30.00000000000000355 ) ) ;
#210 = EDGE_CURVE ( 'NONE', #807, #231, #611, .T. ) ;
#211 = LINE ( 'NONE', #954, #809 ) ;
#212 = CARTESIAN_POINT ( 'NONE',  ( 0.000000000000000000, 0.000000000000000000, 40.00000000000000000 ) ) ;
#213 = ORIENTED_EDGE ( 'NONE', *, *, #169, .T. ) ;
#214 = EDGE_CURVE ( 'NONE', #225, #215, #70, .T. ) ;
#215 = VERTEX_POINT ( 'NONE', #532 ) ;
#216 = CARTESIAN_POINT ( 'NONE',  ( 10.00000000000000888, 27.00000000000000000, 30.00000000000000355 ) ) ;
#217 = LINE ( 'NONE', #373, #75 ) ;
#218 = EDGE_CURVE ( 'NONE', #481, #654, #149, .T. ) ;
#219 = ORIENTED_EDGE ( 'NONE', *, *, #498, .T. ) ;
#220 = VECTOR ( 'NONE', #254, 1000.000000000000000 ) ;
#221 = CARTESIAN_POINT ( 'NONE',  ( 0.000000000000000000, 0.000000000000000000, 0.000000000000000000 ) ) ;
#222 = DIRECTION ( 'NONE',  ( -1.000000000000000000, -0.000000000000000000, -0.000000000000000000 ) ) ;
#223 = ORIENTED_EDGE ( 'NONE', *, *, #194, .F. ) ;
#224 = AXIS2_PLACEMENT_3D ( 'NONE', #559, #397, #323 ) ;
#225 = VERTEX_POINT ( 'NONE', #957 ) ;
#226 = EDGE_CURVE ( 'NONE', #269, #586, #724, .T. ) ;
#227 = VECTOR ( 'NONE', #449, 1000.000000000000000 ) ;
#228 = APPLICATION_PROTOCOL_DEFINITION ( 'draft international standard', 'automotive_design', 1998, #435 ) ;
#229 = DIRECTION ( 'NONE',  ( 0.000000000000000000, 0.000000000000000000, -1.000000000000000000 ) ) ;
#230 = DIRECTION ( 'NONE',  ( 0.000000000000000000, 0.000000000000000000, 1.000000000000000000 ) ) ;
#231 = VERTEX_POINT ( 'NONE', #183 ) ;
#232 = ORIENTED_EDGE ( 'NONE', *, *, #30, .F. ) ;
#233 = CARTESIAN_POINT ( 'NONE',  ( 0.000000000000000000, 20.00000000000000000, 0.000000000000000000 ) ) ;
#234 = CARTESIAN_POINT ( 'NONE',  ( 2.299999999999996270, 25.00000000000000000, 2.299999999999993161 ) ) ;
#235 = ORIENTED_EDGE ( 'NONE', *, *, #990, .F. ) ;
#236 = LINE ( 'NONE', #766, #37 ) ;
#237 = VECTOR ( 'NONE', #633, 1000.000000000000000 ) ;
#238 = CARTESIAN_POINT ( 'NONE',  ( 100.0000000000000000, 20.00000000000000000, 22.00000000000000000 ) ) ;
#239 = VECTOR ( 'NONE', #344, 1000.000000000000000 ) ;
#240 = EDGE_CURVE ( 'NONE', #299, #415, #699, .T. ) ;
#241 = ORIENTED_EDGE ( 'NONE', *, *, #218, .T. ) ;
#242 = CARTESIAN_POINT ( 'NONE',  ( 10.00000000000000888, 20.00000000000000000, 0.000000000000000000 ) ) ;
#243 = AXIS2_PLACEMENT_3D ( 'NONE', #784, #184, #483 ) ;
#244 = DIRECTION ( 'NONE',  ( -0.000000000000000000, -0.000000000000000000, -1.000000000000000000 ) ) ;
#245 = EDGE_CURVE ( 'NONE', #128, #661, #199, .T. ) ;
#246 = DIRECTION ( 'NONE',  ( 1.000000000000000000, 0.000000000000000000, 0.000000000000000000 ) ) ;
#247 = LINE ( 'NONE', #546, #273 ) ;
#248 = ADVANCED_FACE ( 'NONE', ( #411 ), #17, .T. ) ;
#249 = LINE ( 'NONE', #476, #22 ) ;
#250 = LINE ( 'NONE', #307, #350 ) ;
#251 = VERTEX_POINT ( 'NONE', #803 ) ;
#252 = DIRECTION ( 'NONE',  ( 0.000000000000000000, 0.000000000000000000, -1.000000000000000000 ) ) ;
#253 = CARTESIAN_POINT ( 'NONE',  ( 0.000000000000000000, 40.00000000000000000, 0.000000000000000000 ) ) ;
#254 = DIRECTION ( 'NONE',  ( 1.051347561198064416E-15, -0.000000000000000000, 1.000000000000000000 ) ) ;
#255 = EDGE_LOOP ( 'NONE', ( #343, #817, #158, #241 ) ) ;
#256 = EDGE_CURVE ( 'NONE', #367, #919, #32, .T. ) ;
#257 = DIRECTION ( 'NONE',  ( 0.000000000000000000, -0.000000000000000000, -1.000000000000000000 ) ) ;
#258 = DIRECTION ( 'NONE',  ( 0.000000000000000000, 0.000000000000000000, 1.000000000000000000 ) ) ;
#259 = DIRECTION ( 'NONE',  ( -0.000000000000000000, -1.000000000000000000, -0.000000000000000000 ) ) ;
#260 = DIRECTION ( 'NONE',  ( -1.000000000000000000, 0.000000000000000000, 0.000000000000000000 ) ) ;
#261 = VERTEX_POINT ( 'NONE', #720 ) ;
#262 = DIRECTION ( 'NONE',  ( 0.000000000000000000, 0.000000000000000000, 1.000000000000000000 ) ) ;
#263 = DIRECTION ( 'NONE',  ( -1.112002228190261691E-16, -0.000000000000000000, 1.000000000000000000 ) ) ;
#264 = CARTESIAN_POINT ( 'NONE',  ( 2.300000000000010481, 25.00000000000000000, 24.50000000000000000 ) ) ;
#265 = CARTESIAN_POINT ( 'NONE',  ( 0.000000000000000000, 20.00000000000000000, 0.000000000000000000 ) ) ;
#266 = VERTEX_POINT ( 'NONE', #503 ) ;
#267 = EDGE_CURVE ( 'NONE', #42, #266, #272, .T. ) ;
#268 = CARTESIAN_POINT ( 'NONE',  ( 97.70000000000001705, 25.00000000000000000, 24.50000000000000000 ) ) ;
#269 = VERTEX_POINT ( 'NONE', #574 ) ;
#270 = ORIENTED_EDGE ( 'NONE', *, *, #194, .T. ) ;
#271 = VECTOR ( 'NONE', #884, 1000.000000000000000 ) ;
#272 = LINE ( 'NONE', #707, #634 ) ;
#273 = VECTOR ( 'NONE', #413, 1000.000000000000000 ) ;
#274 = ORIENTED_EDGE ( 'NONE', *, *, #298, .F. ) ;
#275 = CARTESIAN_POINT ( 'NONE',  ( 10.00000000000000888, 27.00000000000000000, 30.00000000000000355 ) ) ;
#276 = ORIENTED_EDGE ( 'NONE', *, *, #29, .T. ) ;
#277 = EDGE_CURVE ( 'NONE', #919, #836, #400, .T. ) ;
#278 =( NAMED_UNIT ( * ) PLANE_ANGLE_UNIT ( ) SI_UNIT ( $, .RADIAN. ) );
#279 = DIRECTION ( 'NONE',  ( 0.000000000000000000, -1.000000000000000000, 0.000000000000000000 ) ) ;
#280 = ORIENTED_EDGE ( 'NONE', *, *, #969, .T. ) ;
#281 = ORIENTED_EDGE ( 'NONE', *, *, #533, .T. ) ;
#282 = VECTOR ( 'NONE', #487, 1000.000000000000000 ) ;
#283 = ADVANCED_FACE ( 'NONE', ( #330 ), #118, .T. ) ;
#284 = APPLICATION_PROTOCOL_DEFINITION ( 'draft international standard', 'automotive_design', 1998, #489 ) ;
#285 = DIRECTION ( 'NONE',  ( -0.000000000000000000, -1.000000000000000000, -0.000000000000000000 ) ) ;
#286 = EDGE_CURVE ( 'NONE', #231, #251, #558, .T. ) ;
#287 = LINE ( 'NONE', #56, #348 ) ;
#288 = ORIENTED_EDGE ( 'NONE', *, *, #675, .F. ) ;
#289 = AXIS2_PLACEMENT_3D ( 'NONE', #813, #436, #522 ) ;
#290 = ORIENTED_EDGE ( 'NONE', *, *, #782, .T. ) ;
#291 = SURFACE_SIDE_STYLE ('',( #980 ) ) ;
#292 = DIRECTION ( 'NONE',  ( 1.051347561198065796E-15, -0.000000000000000000, -1.000000000000000000 ) ) ;
#293 = CARTESIAN_POINT ( 'NONE',  ( 10.00000000000000888, 27.00000000000000000, 30.00000000000000355 ) ) ;
#294 = ORIENTED_EDGE ( 'NONE', *, *, #990, .T. ) ;
#295 =( NAMED_UNIT ( * ) PLANE_ANGLE_UNIT ( ) SI_UNIT ( $, .RADIAN. ) );
#296 = FACE_OUTER_BOUND ( 'NONE', #511, .T. ) ;
#297 = DIRECTION ( 'NONE',  ( -1.000000000000000000, 0.000000000000000000, -0.000000000000000000 ) ) ;
#298 = EDGE_CURVE ( 'NONE', #378, #535, #432, .T. ) ;
#299 = VERTEX_POINT ( 'NONE', #145 ) ;
#300 = VECTOR ( 'NONE', #882, 1000.000000000000000 ) ;
#301 = PRODUCT_CONTEXT ( 'NONE', #435, 'mechanical' ) ;
#302 = CARTESIAN_POINT ( 'NONE',  ( 100.0000000000000000, 20.00000000000000000, 40.00000000000000000 ) ) ;
#303 = DIRECTION ( 'NONE',  ( -1.000000000000000000, -0.000000000000000000, -0.000000000000000000 ) ) ;
#304 = VERTEX_POINT ( 'NONE', #582 ) ;
#305 = VECTOR ( 'NONE', #54, 1000.000000000000000 ) ;
#306 = CARTESIAN_POINT ( 'NONE',  ( 97.70000000000000284, 25.00000000000000000, 37.69999999999998863 ) ) ;
#307 = CARTESIAN_POINT ( 'NONE',  ( 7.699999999999998401, 20.00000000000000000, 7.699999999999994849 ) ) ;
#308 = DIRECTION ( 'NONE',  ( 0.000000000000000000, 0.000000000000000000, -1.000000000000000000 ) ) ;
#309 = LINE ( 'NONE', #78, #77 ) ;
#310 = CARTESIAN_POINT ( 'NONE',  ( 2.299999999999996270, 25.00000000000000000, 37.69999999999998863 ) ) ;
#311 = ORIENTED_EDGE ( 'NONE', *, *, #117, .F. ) ;
#312 = FACE_OUTER_BOUND ( 'NONE', #562, .T. ) ;
#313 = EDGE_CURVE ( 'NONE', #195, #304, #217, .T. ) ;
#314 = CARTESIAN_POINT ( 'NONE',  ( 0.000000000000000000, 20.00000000000000000, 10.00000000000000178 ) ) ;
#315 = VERTEX_POINT ( 'NONE', #509 ) ;
#316 = EDGE_LOOP ( 'NONE', ( #494, #424, #996, #872 ) ) ;
#317 = CARTESIAN_POINT ( 'NONE',  ( 92.29999999999999716, 20.00000000000000000, 15.50000000000000000 ) ) ;
#318 = CARTESIAN_POINT ( 'NONE',  ( 92.29999999999999716, 25.00000000000000000, 7.699999999999994849 ) ) ;
#319 = ORIENTED_EDGE ( 'NONE', *, *, #94, .F. ) ;
#320 = CARTESIAN_POINT ( 'NONE',  ( 7.699999999999999289, 25.00000000000000000, 24.50000000000000000 ) ) ;
#321 = ORIENTED_EDGE ( 'NONE', *, *, #864, .F. ) ;
#322 = PRODUCT_DEFINITION_SHAPE ( 'NONE', 'NONE',  #598 ) ;
#323 = DIRECTION ( 'NONE',  ( -1.000000000000000000, 0.000000000000000000, -0.000000000000000000 ) ) ;
#324 = ADVANCED_FACE ( 'NONE', ( #988 ), #133, .F. ) ;
#325 = FACE_OUTER_BOUND ( 'NONE', #652, .T. ) ;
#326 = VERTEX_POINT ( 'NONE', #810 ) ;
#327 = CARTESIAN_POINT ( 'NONE',  ( 97.70000000000001705, 25.00000000000000000, 15.50000000000000000 ) ) ;
#328 = CIRCLE ( 'NONE', #915, 2.999999999999999112 ) ;
#329 = AXIS2_PLACEMENT_3D ( 'NONE', #913, #923, #528 ) ;
#330 = FACE_OUTER_BOUND ( 'NONE', #186, .T. ) ;
#331 = CARTESIAN_POINT ( 'NONE',  ( 100.0000000000000000, 40.00000000000000000, 0.000000000000000000 ) ) ;
#332 = CARTESIAN_POINT ( 'NONE',  ( 10.00000000000000888, 27.00000000000000000, 30.00000000000000355 ) ) ;
#333 = EDGE_LOOP ( 'NONE', ( #977, #846, #579, #894, #423, #113 ) ) ;
#334 = VECTOR ( 'NONE', #222, 1000.000000000000000 ) ;
#335 = DIRECTION ( 'NONE',  ( 0.000000000000000000, 0.000000000000000000, -1.000000000000000000 ) ) ;
#336 = AXIS2_PLACEMENT_3D ( 'NONE', #390, #616, #671 ) ;
#337 = CARTESIAN_POINT ( 'NONE',  ( 90.00000000000000000, 27.00000000000000000, 30.00000000000000355 ) ) ;
#338 = DIRECTION ( 'NONE',  ( -0.000000000000000000, -1.000000000000000000, -0.000000000000000000 ) ) ;
#339 = ORIENTED_EDGE ( 'NONE', *, *, #774, .F. ) ;
#340 = ADVANCED_FACE ( 'NONE', ( #46 ), #591, .F. ) ;
#341 = LINE ( 'NONE', #499, #862 ) ;
#342 = CARTESIAN_POINT ( 'NONE',  ( 7.699999999999998401, 20.00000000000000000, 7.699999999999994849 ) ) ;
#343 = ORIENTED_EDGE ( 'NONE', *, *, #205, .T. ) ;
#344 = DIRECTION ( 'NONE',  ( 0.000000000000000000, 0.000000000000000000, -1.000000000000000000 ) ) ;
#345 = VECTOR ( 'NONE', #459, 1000.000000000000000 ) ;
#346 = ORIENTED_EDGE ( 'NONE', *, *, #313, .T. ) ;
#347 = EDGE_LOOP ( 'NONE', ( #505, #464, #711, #841 ) ) ;
#348 = VECTOR ( 'NONE', #63, 1000.000000000000000 ) ;
#349 = CARTESIAN_POINT ( 'NONE',  ( 0.000000000000000000, 25.00000000000000000, 0.000000000000000000 ) ) ;
#350 = VECTOR ( 'NONE', #380, 1000.000000000000000 ) ;
#351 = ORIENTED_EDGE ( 'NONE', *, *, #849, .F. ) ;
#352 = EDGE_CURVE ( 'NONE', #42, #36, #822, .T. ) ;
#353 = ORIENTED_EDGE ( 'NONE', *, *, #782, .F. ) ;
#354 = CARTESIAN_POINT ( 'NONE',  ( 0.000000000000000000, 20.00000000000000000, 23.00000000000000000 ) ) ;
#355 = FACE_OUTER_BOUND ( 'NONE', #742, .T. ) ;
#356 = ORIENTED_EDGE ( 'NONE', *, *, #757, .T. ) ;
#357 = ADVANCED_FACE ( 'NONE', ( #355 ), #674, .T. ) ;
#358 = EDGE_LOOP ( 'NONE', ( #544, #280, #497, #433, #907, #819, #106, #460 ) ) ;
#359 = DIRECTION ( 'NONE',  ( -1.000000000000000000, 0.000000000000000000, 0.000000000000000000 ) ) ;
#360 = CARTESIAN_POINT ( 'NONE',  ( 0.000000000000000000, 20.00000000000000000, 40.00000000000000000 ) ) ;
#361 = AXIS2_PLACEMENT_3D ( 'NONE', #523, #932, #230 ) ;
#362 = ORIENTED_EDGE ( 'NONE', *, *, #731, .T. ) ;
#363 = EDGE_CURVE ( 'NONE', #28, #796, #447, .T. ) ;
#364 = FACE_OUTER_BOUND ( 'NONE', #638, .T. ) ;
#365 = LINE ( 'NONE', #137, #717 ) ;
#366 = DIRECTION ( 'NONE',  ( -1.112002228190260212E-16, 0.000000000000000000, -1.000000000000000000 ) ) ;
#367 = VERTEX_POINT ( 'NONE', #741 ) ;
#368 = ORIENTED_EDGE ( 'NONE', *, *, #53, .T. ) ;
#369 =( NAMED_UNIT ( * ) SI_UNIT ( $, .STERADIAN. ) SOLID_ANGLE_UNIT ( ) );
#370 = FILL_AREA_STYLE_COLOUR ( '', #139 ) ;
#371 = EDGE_CURVE ( 'NONE', #851, #899, #917, .T. ) ;
#372 = DIRECTION ( 'NONE',  ( -1.051347561198064416E-15, 0.000000000000000000, -1.000000000000000000 ) ) ;
#373 = CARTESIAN_POINT ( 'NONE',  ( 7.699999999999999289, 25.00000000000000000, 15.50000000000000000 ) ) ;
#374 = LINE ( 'NONE', #461, #692 ) ;
#375 = DIRECTION ( 'NONE',  ( 0.000000000000000000, 0.000000000000000000, 1.000000000000000000 ) ) ;
#376 = LINE ( 'NONE', #833, #583 ) ;
#377 = DIRECTION ( 'NONE',  ( 0.000000000000000000, 0.000000000000000000, -1.000000000000000000 ) ) ;
#378 = VERTEX_POINT ( 'NONE', #995 ) ;
#379 = LINE ( 'NONE', #306, #637 ) ;
#380 = DIRECTION ( 'NONE',  ( 1.112002228190260212E-16, 0.000000000000000000, 1.000000000000000000 ) ) ;
#381 = CARTESIAN_POINT ( 'NONE',  ( 92.29999999999999716, 20.00000000000000000, 24.50000000000000000 ) ) ;
#382 = ORIENTED_EDGE ( 'NONE', *, *, #767, .T. ) ;
#383 = VECTOR ( 'NONE', #246, 1000.000000000000000 ) ;
#384 = ORIENTED_EDGE ( 'NONE', *, *, #757, .F. ) ;
#385 = DIRECTION ( 'NONE',  ( 1.000000000000000000, 0.000000000000000000, -0.000000000000000000 ) ) ;
#386 = DIRECTION ( 'NONE',  ( 0.000000000000000000, -1.000000000000000000, 0.000000000000000000 ) ) ;
#387 = ADVANCED_FACE ( 'NONE', ( #976 ), #834, .F. ) ;
#388 = EDGE_CURVE ( 'NONE', #415, #152, #287, .T. ) ;
#389 = ORIENTED_EDGE ( 'NONE', *, *, #930, .F. ) ;
#390 = CARTESIAN_POINT ( 'NONE',  ( 97.70000000000001705, 25.00000000000000000, 24.50000000000000000 ) ) ;
#391 = CARTESIAN_POINT ( 'NONE',  ( 92.29999999999999716, 25.00000000000000000, 32.29999999999999716 ) ) ;
#392 = DIRECTION ( 'NONE',  ( -1.000000000000000000, 0.000000000000000000, 1.051347561198064416E-15 ) ) ;
#393 = VECTOR ( 'NONE', #40, 1000.000000000000000 ) ;
#394 = ORIENTED_EDGE ( 'NONE', *, *, #286, .F. ) ;
#395 = DIRECTION ( 'NONE',  ( 0.000000000000000000, 0.000000000000000000, 1.000000000000000000 ) ) ;
#396 = EDGE_CURVE ( 'NONE', #738, #261, #751, .T. ) ;
#397 = DIRECTION ( 'NONE',  ( 0.000000000000000000, 0.000000000000000000, -1.000000000000000000 ) ) ;
#398 = DIRECTION ( 'NONE',  ( 0.000000000000000000, 0.000000000000000000, -1.000000000000000000 ) ) ;
#399 = ORIENTED_EDGE ( 'NONE', *, *, #352, .F. ) ;
#400 = LINE ( 'NONE', #888, #650 ) ;
#401 = CARTESIAN_POINT ( 'NONE',  ( 90.00000000000000000, 20.00000000000000000, 0.000000000000000000 ) ) ;
#402 = ORIENTED_EDGE ( 'NONE', *, *, #962, .F. ) ;
#403 = DIRECTION ( 'NONE',  ( 0.000000000000000000, 0.000000000000000000, -1.000000000000000000 ) ) ;
#404 = CARTESIAN_POINT ( 'NONE',  ( 7.699999999999998401, 25.00000000000000000, 7.699999999999994849 ) ) ;
#405 = CARTESIAN_POINT ( 'NONE',  ( 90.00000000000000000, 27.00000000000000000, 10.00000000000000178 ) ) ;
#406 = DIRECTION ( 'NONE',  ( -0.000000000000000000, -1.000000000000000000, -0.000000000000000000 ) ) ;
#407 = ORIENTED_EDGE ( 'NONE', *, *, #800, .T. ) ;
#408 = AXIS2_PLACEMENT_3D ( 'NONE', #668, #60, #45 ) ;
#409 = ORIENTED_EDGE ( 'NONE', *, *, #956, .T. ) ;
#410 = AXIS2_PLACEMENT_3D ( 'NONE', #842, #386, #164 ) ;
#411 = FACE_OUTER_BOUND ( 'NONE', #181, .T. ) ;
#412 = FACE_OUTER_BOUND ( 'NONE', #429, .T. ) ;
#413 = DIRECTION ( 'NONE',  ( -0.000000000000000000, -1.000000000000000000, -0.000000000000000000 ) ) ;
#414 = CARTESIAN_POINT ( 'NONE',  ( 92.29999999999999716, 25.00000000000000000, 7.699999999999994849 ) ) ;
#415 = VERTEX_POINT ( 'NONE', #293 ) ;
#416 = EDGE_CURVE ( 'NONE', #796, #951, #67, .T. ) ;
#417 = VECTOR ( 'NONE', #563, 1000.000000000000000 ) ;
#418 = EDGE_CURVE ( 'NONE', #200, #477, #138, .T. ) ;
#419 = ORIENTED_EDGE ( 'NONE', *, *, #101, .F. ) ;
#420 = DIRECTION ( 'NONE',  ( -0.000000000000000000, -0.000000000000000000, -1.000000000000000000 ) ) ;
#421 = VECTOR ( 'NONE', #406, 1000.000000000000000 ) ;
#422 =( GEOMETRIC_REPRESENTATION_CONTEXT ( 3 ) GLOBAL_UNCERTAINTY_ASSIGNED_CONTEXT ( ( #835 ) ) GLOBAL_UNIT_ASSIGNED_CONTEXT ( ( #198, #295, #369 ) ) REPRESENTATION_CONTEXT ( 'NONE', 'WORKASPACE' ) );
#423 = ORIENTED_EDGE ( 'NONE', *, *, #749, .T. ) ;
#424 = ORIENTED_EDGE ( 'NONE', *, *, #670, .F. ) ;
#425 = PRESENTATION_LAYER_ASSIGNMENT (  '', '', ( #553 ) ) ;
#426 = EDGE_CURVE ( 'NONE', #933, #131, #746, .T. ) ;
#427 = CARTESIAN_POINT ( 'NONE',  ( 92.29999999999999716, 25.00000000000000000, 24.50000000000000000 ) ) ;
#428 = VERTEX_POINT ( 'NONE', #700 ) ;
#429 = EDGE_LOOP ( 'NONE', ( #718, #438, #667, #92 ) ) ;
#430 = CARTESIAN_POINT ( 'NONE',  ( 100.0000000000000000, 20.00000000000000000, 40.00000000000000000 ) ) ;
#431 = PLANE ( 'NONE',  #174 ) ;
#432 = LINE ( 'NONE', #427, #537 ) ;
#433 = ORIENTED_EDGE ( 'NONE', *, *, #792, .T. ) ;
#434 = ORIENTED_EDGE ( 'NONE', *, *, #749, .F. ) ;
#435 = APPLICATION_CONTEXT ( 'automotive_design' ) ;
#436 = DIRECTION ( 'NONE',  ( -1.000000000000000000, 0.000000000000000000, 0.000000000000000000 ) ) ;
#437 = DIRECTION ( 'NONE',  ( -0.000000000000000000, 0.000000000000000000, 1.000000000000000000 ) ) ;
#438 = ORIENTED_EDGE ( 'NONE', *, *, #157, .F. ) ;
#439 = ORIENTED_EDGE ( 'NONE', *, *, #564, .T. ) ;
#440 = ADVANCED_FACE ( 'NONE', ( #465 ), #627, .F. ) ;
#441 = LINE ( 'NONE', #745, #890 ) ;
#442 = DIRECTION ( 'NONE',  ( 1.000000000000000000, 0.000000000000000000, 0.000000000000000000 ) ) ;
#443 = ORIENTED_EDGE ( 'NONE', *, *, #911, .T. ) ;
#444 = CARTESIAN_POINT ( 'NONE',  ( 97.70000000000000284, 25.00000000000000000, 37.69999999999998863 ) ) ;
#445 = PLANE ( 'NONE',  #922 ) ;
#446 = CARTESIAN_POINT ( 'NONE',  ( 2.300000000000010481, 25.00000000000000000, 15.50000000000000000 ) ) ;
#447 = LINE ( 'NONE', #127, #43 ) ;
#448 = DIRECTION ( 'NONE',  ( -0.000000000000000000, -1.000000000000000000, -0.000000000000000000 ) ) ;
#449 = DIRECTION ( 'NONE',  ( -0.000000000000000000, -1.000000000000000000, -0.000000000000000000 ) ) ;
#450 = DIRECTION ( 'NONE',  ( 0.000000000000000000, -1.000000000000000000, 0.000000000000000000 ) ) ;
#451 = ORIENTED_EDGE ( 'NONE', *, *, #371, .F. ) ;
#452 = DIRECTION ( 'NONE',  ( -0.000000000000000000, -1.000000000000000000, -0.000000000000000000 ) ) ;
#453 = VECTOR ( 'NONE', #596, 1000.000000000000000 ) ;
#454 = PLANE ( 'NONE',  #936 ) ;
#455 = ORIENTED_EDGE ( 'NONE', *, *, #240, .F. ) ;
#456 = ADVANCED_FACE ( 'NONE', ( #777 ), #188, .F. ) ;
#457 = VECTOR ( 'NONE', #147, 1000.000000000000000 ) ;
#458 = ORIENTED_EDGE ( 'NONE', *, *, #962, .T. ) ;
#459 = DIRECTION ( 'NONE',  ( -1.051347561198064416E-15, 0.000000000000000000, -1.000000000000000000 ) ) ;
#460 = ORIENTED_EDGE ( 'NONE', *, *, #226, .T. ) ;
#461 = CARTESIAN_POINT ( 'NONE',  ( 7.699999999999998401, 25.00000000000000000, 7.699999999999994849 ) ) ;
#462 = EDGE_CURVE ( 'NONE', #586, #945, #545, .T. ) ;
#463 = LINE ( 'NONE', #769, #541 ) ;
#464 = ORIENTED_EDGE ( 'NONE', *, *, #521, .F. ) ;
#465 = FACE_OUTER_BOUND ( 'NONE', #928, .T. ) ;
#466 = FACE_OUTER_BOUND ( 'NONE', #854, .T. ) ;
#467 = EDGE_LOOP ( 'NONE', ( #407, #72, #474, #783 ) ) ;
#468 = ADVANCED_FACE ( 'NONE', ( #855 ), #622, .F. ) ;
#469 = VECTOR ( 'NONE', #71, 1000.000000000000000 ) ;
#470 = CARTESIAN_POINT ( 'NONE',  ( 0.000000000000000000, 20.00000000000000000, 30.00000000000000355 ) ) ;
#471 = EDGE_LOOP ( 'NONE', ( #585, #593, #129, #362 ) ) ;
#472 = LINE ( 'NONE', #959, #680 ) ;
#473 = VECTOR ( 'NONE', #229, 1000.000000000000000 ) ;
#474 = ORIENTED_EDGE ( 'NONE', *, *, #921, .F. ) ;
#475 = VECTOR ( 'NONE', #111, 1000.000000000000000 ) ;
#476 = CARTESIAN_POINT ( 'NONE',  ( 7.699999999999998401, 20.00000000000000000, 7.699999999999994849 ) ) ;
#477 = VERTEX_POINT ( 'NONE', #687 ) ;
#478 = CARTESIAN_POINT ( 'NONE',  ( 7.699999999999999289, 20.00000000000000000, 15.50000000000000000 ) ) ;
#479 = CARTESIAN_POINT ( 'NONE',  ( 7.699999999999998401, 20.00000000000000000, 32.29999999999999716 ) ) ;
#480 = ORIENTED_EDGE ( 'NONE', *, *, #662, .F. ) ;
#481 = VERTEX_POINT ( 'NONE', #550 ) ;
#482 = CARTESIAN_POINT ( 'NONE',  ( 7.699999999999999289, 20.00000000000000000, 24.50000000000000000 ) ) ;
#483 = DIRECTION ( 'NONE',  ( -1.051347561198065796E-15, 0.000000000000000000, 1.000000000000000000 ) ) ;
#484 = LINE ( 'NONE', #799, #161 ) ;
#485 = FACE_OUTER_BOUND ( 'NONE', #656, .T. ) ;
#486 = ORIENTED_EDGE ( 'NONE', *, *, #982, .T. ) ;
#487 = DIRECTION ( 'NONE',  ( -1.000000000000000000, 0.000000000000000000, 0.000000000000000000 ) ) ;
#488 =( GEOMETRIC_REPRESENTATION_CONTEXT ( 3 ) GLOBAL_UNCERTAINTY_ASSIGNED_CONTEXT ( ( #823 ) ) GLOBAL_UNIT_ASSIGNED_CONTEXT ( ( #594, #278, #581 ) ) REPRESENTATION_CONTEXT ( 'NONE', 'WORKASPACE' ) );
#489 = APPLICATION_CONTEXT ( 'automotive_design' ) ;
#490 = ORIENTED_EDGE ( 'NONE', *, *, #934, .F. ) ;
#491 = ADVANCED_FACE ( 'NONE', ( #942 ), #790, .F. ) ;
#492 = CARTESIAN_POINT ( 'NONE',  ( 0.000000000000000000, 40.00000000000000000, 40.00000000000000000 ) ) ;
#493 = DIRECTION ( 'NONE',  ( 0.000000000000000000, 0.000000000000000000, -1.000000000000000000 ) ) ;
#494 = ORIENTED_EDGE ( 'NONE', *, *, #245, .T. ) ;
#495 = ORIENTED_EDGE ( 'NONE', *, *, #874, .F. ) ;
#496 = CARTESIAN_POINT ( 'NONE',  ( 7.699999999999998401, 25.00000000000000000, 32.29999999999999716 ) ) ;
#497 = ORIENTED_EDGE ( 'NONE', *, *, #921, .T. ) ;
#498 = EDGE_CURVE ( 'NONE', #261, #535, #798, .T. ) ;
#499 = CARTESIAN_POINT ( 'NONE',  ( 92.29999999999999716, 20.00000000000000000, 7.699999999999994849 ) ) ;
#500 = DIRECTION ( 'NONE',  ( -1.051347561198065796E-15, 0.000000000000000000, 1.000000000000000000 ) ) ;
#501 = ORIENTED_EDGE ( 'NONE', *, *, #701, .F. ) ;
#502 = ADVANCED_FACE ( 'NONE', ( #859 ), #178, .F. ) ;
#503 = CARTESIAN_POINT ( 'NONE',  ( 10.00000000000000888, 20.00000000000000000, 10.00000000000000178 ) ) ;
#504 = VECTOR ( 'NONE', #870, 1000.000000000000000 ) ;
#505 = ORIENTED_EDGE ( 'NONE', *, *, #588, .T. ) ;
#506 = VERTEX_POINT ( 'NONE', #880 ) ;
#507 = CARTESIAN_POINT ( 'NONE',  ( 0.000000000000000000, 20.00000000000000000, 40.00000000000000000 ) ) ;
#508 = VECTOR ( 'NONE', #789, 1000.000000000000000 ) ;
#509 = CARTESIAN_POINT ( 'NONE',  ( 90.00000000000000000, 20.00000000000000000, 10.00000000000000178 ) ) ;
#510 = VECTOR ( 'NONE', #912, 1000.000000000000000 ) ;
#511 = EDGE_LOOP ( 'NONE', ( #773, #649, #657, #752 ) ) ;
#512 = ORIENTED_EDGE ( 'NONE', *, *, #874, .T. ) ;
#513 = CARTESIAN_POINT ( 'NONE',  ( 10.00000000000000888, 27.00000000000000000, 10.00000000000000178 ) ) ;
#514 = DIRECTION ( 'NONE',  ( 1.000000000000000000, 0.000000000000000000, 0.000000000000000000 ) ) ;
#515 = DIRECTION ( 'NONE',  ( 1.000000000000000000, 0.000000000000000000, 0.000000000000000000 ) ) ;
#516 = ORIENTED_EDGE ( 'NONE', *, *, #39, .T. ) ;
#517 = CARTESIAN_POINT ( 'NONE',  ( 90.00000000000000000, 27.00000000000000000, 30.00000000000000355 ) ) ;
#518 = CARTESIAN_POINT ( 'NONE',  ( 90.00000000000000000, 27.00000000000000000, 30.00000000000000355 ) ) ;
#519 = ORIENTED_EDGE ( 'NONE', *, *, #719, .F. ) ;
#520 = ORIENTED_EDGE ( 'NONE', *, *, #388, .F. ) ;
#521 = EDGE_CURVE ( 'NONE', #586, #738, #171, .T. ) ;
#522 = DIRECTION ( 'NONE',  ( 0.000000000000000000, 0.000000000000000000, 1.000000000000000000 ) ) ;
#523 = CARTESIAN_POINT ( 'NONE',  ( 100.0000000000000000, 20.00000000000000000, 20.00000000000000000 ) ) ;
#524 = DIRECTION ( 'NONE',  ( -0.000000000000000000, -1.000000000000000000, -0.000000000000000000 ) ) ;
#525 = AXIS2_PLACEMENT_3D ( 'NONE', #518, #297, #437 ) ;
#526 = EDGE_LOOP ( 'NONE', ( #829, #501, #883, #353, #276, #213 ) ) ;
#527 = ORIENTED_EDGE ( 'NONE', *, *, #956, .F. ) ;
#528 = DIRECTION ( 'NONE',  ( 1.000000000000000000, 0.000000000000000000, 0.000000000000000000 ) ) ;
#529 = PLANE ( 'NONE',  #776 ) ;
#530 = FACE_OUTER_BOUND ( 'NONE', #333, .T. ) ;
#531 = CARTESIAN_POINT ( 'NONE',  ( 0.000000000000000000, 20.00000000000000000, 17.00000000000000000 ) ) ;
#532 = CARTESIAN_POINT ( 'NONE',  ( 100.0000000000000000, 20.00000000000000000, 0.000000000000000000 ) ) ;
#533 = EDGE_CURVE ( 'NONE', #215, #100, #167, .T. ) ;
#534 = CARTESIAN_POINT ( 'NONE',  ( 100.0010000000000048, 20.00000000000000000, 20.00000000000000000 ) ) ;
#535 = VERTEX_POINT ( 'NONE', #65 ) ;
#536 = LINE ( 'NONE', #160, #345 ) ;
#537 = VECTOR ( 'NONE', #524, 1000.000000000000000 ) ;
#538 = PLANE ( 'NONE',  #410 ) ;
#539 = AXIS2_PLACEMENT_3D ( 'NONE', #84, #392, #691 ) ;
#540 = DIRECTION ( 'NONE',  ( 1.000000000000000000, 0.000000000000000000, -0.000000000000000000 ) ) ;
#541 = VECTOR ( 'NONE', #87, 1000.000000000000000 ) ;
#542 = ADVANCED_FACE ( 'NONE', ( #364 ), #605, .F. ) ;
#543 = CARTESIAN_POINT ( 'NONE',  ( 90.00000000000000000, 20.00000000000000000, 18.00000000000000355 ) ) ;
#544 = ORIENTED_EDGE ( 'NONE', *, *, #462, .T. ) ;
#545 = LINE ( 'NONE', #938, #383 ) ;
#546 = CARTESIAN_POINT ( 'NONE',  ( 92.29999999999999716, 25.00000000000000000, 15.50000000000000000 ) ) ;
#547 = VERTEX_POINT ( 'NONE', #209 ) ;
#548 = VECTOR ( 'NONE', #925, 1000.000000000000000 ) ;
#549 = CARTESIAN_POINT ( 'NONE',  ( 100.0000000000000000, 20.00000000000000000, 40.00000000000000000 ) ) ;
#550 = CARTESIAN_POINT ( 'NONE',  ( 7.699999999999998401, 25.00000000000000000, 7.699999999999994849 ) ) ;
#551 = LINE ( 'NONE', #405, #124 ) ;
#552 = CARTESIAN_POINT ( 'NONE',  ( 2.299999999999996270, 20.00000000000000000, 2.299999999999993161 ) ) ;
#553 = STYLED_ITEM ( 'NONE', ( #992 ), #621 ) ;
#554 = ORIENTED_EDGE ( 'NONE', *, *, #767, .F. ) ;
#555 = AXIS2_PLACEMENT_3D ( 'NONE', #318, #566, #861 ) ;
#556 = ADVANCED_FACE ( 'NONE', ( #412 ), #431, .T. ) ;
#557 = LINE ( 'NONE', #320, #584 ) ;
#558 = LINE ( 'NONE', #482, #508 ) ;
#559 = CARTESIAN_POINT ( 'NONE',  ( 92.29999999999999716, 25.00000000000000000, 24.50000000000000000 ) ) ;
#560 = LINE ( 'NONE', #14, #729 ) ;
#561 = LINE ( 'NONE', #949, #220 ) ;
#562 = EDGE_LOOP ( 'NONE', ( #69, #576, #191, #47 ) ) ;
#563 = DIRECTION ( 'NONE',  ( 1.000000000000000000, -0.000000000000000000, 0.000000000000000000 ) ) ;
#564 = EDGE_CURVE ( 'NONE', #704, #970, #971, .T. ) ;
#565 = ADVANCED_FACE ( 'NONE', ( #204 ), #908, .F. ) ;
#566 = DIRECTION ( 'NONE',  ( -1.000000000000000000, 0.000000000000000000, 0.000000000000000000 ) ) ;
#567 = CARTESIAN_POINT ( 'NONE',  ( 0.000000000000000000, 40.00000000000000000, 0.000000000000000000 ) ) ;
#568 = VERTEX_POINT ( 'NONE', #354 ) ;
#569 = ORIENTED_EDGE ( 'NONE', *, *, #564, .F. ) ;
#570 = FACE_OUTER_BOUND ( 'NONE', #347, .T. ) ;
#571 = ORIENTED_EDGE ( 'NONE', *, *, #426, .T. ) ;
#572 = VECTOR ( 'NONE', #49, 1000.000000000000000 ) ;
#573 = VECTOR ( 'NONE', #931, 1000.000000000000000 ) ;
#574 = CARTESIAN_POINT ( 'NONE',  ( 7.699999999999999289, 25.00000000000000000, 24.50000000000000000 ) ) ;
#575 = EDGE_CURVE ( 'NONE', #970, #824, #820, .T. ) ;
#576 = ORIENTED_EDGE ( 'NONE', *, *, #59, .F. ) ;
#577 = AXIS2_PLACEMENT_3D ( 'NONE', #165, #262, #540 ) ;
#578 = EDGE_LOOP ( 'NONE', ( #290, #439, #967, #985 ) ) ;
#579 = ORIENTED_EDGE ( 'NONE', *, *, #825, .F. ) ;
#580 = EDGE_CURVE ( 'NONE', #477, #326, #902, .T. ) ;
#581 =( NAMED_UNIT ( * ) SI_UNIT ( $, .STERADIAN. ) SOLID_ANGLE_UNIT ( ) );
#582 = CARTESIAN_POINT ( 'NONE',  ( 2.300000000000010481, 25.00000000000000000, 15.50000000000000000 ) ) ;
#583 = VECTOR ( 'NONE', #292, 1000.000000000000000 ) ;
#584 = VECTOR ( 'NONE', #626, 1000.000000000000000 ) ;
#585 = ORIENTED_EDGE ( 'NONE', *, *, #934, .T. ) ;
#586 = VERTEX_POINT ( 'NONE', #728 ) ;
#587 = CARTESIAN_POINT ( 'NONE',  ( 7.699999999999998401, 20.00000000000000000, 32.29999999999999716 ) ) ;
#588 = EDGE_CURVE ( 'NONE', #251, #738, #734, .T. ) ;
#589 = VECTOR ( 'NONE', #110, 1000.000000000000000 ) ;
#590 = PLANE ( 'NONE',  #602 ) ;
#591 = PLANE ( 'NONE',  #760 ) ;
#592 = VECTOR ( 'NONE', #25, 1000.000000000000000 ) ;
#593 = ORIENTED_EDGE ( 'NONE', *, *, #218, .F. ) ;
#594 =( LENGTH_UNIT ( ) NAMED_UNIT ( * ) SI_UNIT ( .MILLI., .METRE. ) );
#595 = EDGE_CURVE ( 'NONE', #481, #195, #125, .T. ) ;
#596 = DIRECTION ( 'NONE',  ( 0.000000000000000000, 0.000000000000000000, -1.000000000000000000 ) ) ;
#597 = CARTESIAN_POINT ( 'NONE',  ( 2.299999999999996270, 25.00000000000000000, 37.69999999999998863 ) ) ;
#598 = PRODUCT_DEFINITION ( 'UNKNOWN', '', #646, #613 ) ;
#599 = EDGE_LOOP ( 'NONE', ( #156, #170, #311, #443 ) ) ;
#600 = LINE ( 'NONE', #446, #993 ) ;
#601 = DIRECTION ( 'NONE',  ( -1.000000000000000000, -0.000000000000000000, -0.000000000000000000 ) ) ;
#602 = AXIS2_PLACEMENT_3D ( 'NONE', #265, #112, #904 ) ;
#603 = ADVANCED_FACE ( 'NONE', ( #658 ), #529, .F. ) ;
#604 = LINE ( 'NONE', #264, #712 ) ;
#605 = PLANE ( 'NONE',  #289 ) ;
#606 = DIRECTION ( 'NONE',  ( 0.000000000000000000, -0.000000000000000000, 1.000000000000000000 ) ) ;
#607 = AXIS2_PLACEMENT_3D ( 'NONE', #828, #898, #366 ) ;
#608 = EDGE_LOOP ( 'NONE', ( #486, #419, #519, #79 ) ) ;
#609 = LINE ( 'NONE', #153, #208 ) ;
#610 = ADVANCED_FACE ( 'NONE', ( #839 ), #445, .F. ) ;
#611 = LINE ( 'NONE', #753, #573 ) ;
#612 = CARTESIAN_POINT ( 'NONE',  ( 7.699999999999999289, 25.00000000000000000, 15.50000000000000000 ) ) ;
#613 = PRODUCT_DEFINITION_CONTEXT ( 'detailed design', #489, 'design' ) ;
#614 = DIRECTION ( 'NONE',  ( 0.000000000000000000, -1.000000000000000000, 0.000000000000000000 ) ) ;
#615 = CARTESIAN_POINT ( 'NONE',  ( 97.70000000000001705, 25.00000000000000000, 24.50000000000000000 ) ) ;
#616 = DIRECTION ( 'NONE',  ( 1.000000000000000000, -0.000000000000000000, 1.051347561198065796E-15 ) ) ;
#617 = CARTESIAN_POINT ( 'NONE',  ( 100.0000000000000000, 40.00000000000000000, 40.00000000000000000 ) ) ;
#618 = ORIENTED_EDGE ( 'NONE', *, *, #462, .F. ) ;
#619 = DIRECTION ( 'NONE',  ( 1.000000000000000000, 0.000000000000000000, -0.000000000000000000 ) ) ;
#620 = DIRECTION ( 'NONE',  ( 0.000000000000000000, 0.000000000000000000, 1.000000000000000000 ) ) ;
#621 = MANIFOLD_SOLID_BREP ( '∂Øƒ - âüÇµèoÇµ4[2]', #89 ) ;
#622 = PLANE ( 'NONE',  #159 ) ;
#623 = CARTESIAN_POINT ( 'NONE',  ( 0.000000000000000000, 20.00000000000000000, 0.000000000000000000 ) ) ;
#624 = ADVANCED_FACE ( 'NONE', ( #897 ), #740, .F. ) ;
#625 = ORIENTED_EDGE ( 'NONE', *, *, #418, .T. ) ;
#626 = DIRECTION ( 'NONE',  ( 1.000000000000000000, -0.000000000000000000, -0.000000000000000000 ) ) ;
#627 = PLANE ( 'NONE',  #812 ) ;
#628 = LINE ( 'NONE', #401, #761 ) ;
#629 = LINE ( 'NONE', #360, #860 ) ;
#630 = ORIENTED_EDGE ( 'NONE', *, *, #94, .T. ) ;
#631 = LINE ( 'NONE', #694, #918 ) ;
#632 = CARTESIAN_POINT ( 'NONE',  ( 92.29999999999999716, 25.00000000000000000, 7.699999999999994849 ) ) ;
#633 = DIRECTION ( 'NONE',  ( 0.000000000000000000, -1.000000000000000000, 0.000000000000000000 ) ) ;
#634 = VECTOR ( 'NONE', #95, 1000.000000000000000 ) ;
#635 = EDGE_LOOP ( 'NONE', ( #693, #941, #968, #82 ) ) ;
#636 = EDGE_CURVE ( 'NONE', #269, #251, #236, .T. ) ;
#637 = VECTOR ( 'NONE', #6, 1000.000000000000000 ) ;
#638 = EDGE_LOOP ( 'NONE', ( #858, #409, #294, #281, #801, #480 ) ) ;
#639 = DIRECTION ( 'NONE',  ( -1.000000000000000000, 0.000000000000000000, -0.000000000000000000 ) ) ;
#640 = LINE ( 'NONE', #96, #871 ) ;
#641 = LINE ( 'NONE', #104, #504 ) ;
#642 = VERTEX_POINT ( 'NONE', #877 ) ;
#643 = ADVANCED_FACE ( 'NONE', ( #570 ), #793, .F. ) ;
#644 = FACE_BOUND ( 'NONE', #648, .T. ) ;
#645 = VERTEX_POINT ( 'NONE', #50 ) ;
#646 = PRODUCT_DEFINITION_FORMATION_WITH_SPECIFIED_SOURCE ( 'ANY', '', #7, .NOT_KNOWN. ) ;
#647 = EDGE_CURVE ( 'NONE', #58, #326, #805, .T. ) ;
#648 = EDGE_LOOP ( 'NONE', ( #196, #900, #736, #394, #554, #321, #11, #989 ) ) ;
#649 = ORIENTED_EDGE ( 'NONE', *, *, #169, .F. ) ;
#650 = VECTOR ( 'NONE', #500, 1000.000000000000000 ) ;
#651 = CARTESIAN_POINT ( 'NONE',  ( 7.699999999999998401, 25.00000000000000000, 32.29999999999999716 ) ) ;
#652 = EDGE_LOOP ( 'NONE', ( #986, #755, #288, #713, #235, #4, #402, #725 ) ) ;
#653 = EDGE_LOOP ( 'NONE', ( #730, #57, #726, #207 ) ) ;
#654 = VERTEX_POINT ( 'NONE', #342 ) ;
#655 = DIRECTION ( 'NONE',  ( -0.000000000000000000, 1.000000000000000000, 0.000000000000000000 ) ) ;
#656 = EDGE_LOOP ( 'NONE', ( #721, #98, #232, #173, #193, #512, #107, #569 ) ) ;
#657 = ORIENTED_EDGE ( 'NONE', *, *, #737, .F. ) ;
#658 = FACE_OUTER_BOUND ( 'NONE', #804, .T. ) ;
#659 = DIRECTION ( 'NONE',  ( 1.112002228190261691E-16, 0.000000000000000000, -1.000000000000000000 ) ) ;
#660 = CARTESIAN_POINT ( 'NONE',  ( 100.0010000000000048, 20.00000000000000000, 17.00000000000000000 ) ) ;
#661 = VERTEX_POINT ( 'NONE', #126 ) ;
#662 = EDGE_CURVE ( 'NONE', #970, #428, #641, .T. ) ;
#663 = FILL_AREA_STYLE ('',( #370 ) ) ;
#664 = VECTOR ( 'NONE', #984, 1000.000000000000000 ) ;
#665 = LINE ( 'NONE', #517, #453 ) ;
#666 = CARTESIAN_POINT ( 'NONE',  ( 7.699999999999998401, 20.00000000000000000, 32.29999999999999716 ) ) ;
#667 = ORIENTED_EDGE ( 'NONE', *, *, #21, .T. ) ;
#668 = CARTESIAN_POINT ( 'NONE',  ( 7.699999999999998401, 25.00000000000000000, 32.29999999999999716 ) ) ;
#669 = CARTESIAN_POINT ( 'NONE',  ( 90.00000000000000000, 27.00000000000000000, 10.00000000000000178 ) ) ;
#670 = EDGE_CURVE ( 'NONE', #304, #661, #786, .T. ) ;
#671 = DIRECTION ( 'NONE',  ( 1.051347561198065796E-15, 0.000000000000000000, -1.000000000000000000 ) ) ;
#672 = SURFACE_STYLE_USAGE ( .BOTH. , #291 ) ;
#673 = DIRECTION ( 'NONE',  ( 0.000000000000000000, 0.000000000000000000, 1.000000000000000000 ) ) ;
#674 = PLANE ( 'NONE',  #525 ) ;
#675 = EDGE_CURVE ( 'NONE', #225, #36, #629, .T. ) ;
#676 = AXIS2_PLACEMENT_3D ( 'NONE', #496, #26, #659 ) ;
#677 = ORIENTED_EDGE ( 'NONE', *, *, #969, .F. ) ;
#678 = DIRECTION ( 'NONE',  ( 1.000000000000000000, -0.000000000000000000, 0.000000000000000000 ) ) ;
#679 = CARTESIAN_POINT ( 'NONE',  ( 2.300000000000010481, 25.00000000000000000, 24.50000000000000000 ) ) ;
#680 = VECTOR ( 'NONE', #778, 1000.000000000000000 ) ;
#681 = CARTESIAN_POINT ( 'NONE',  ( 0.000000000000000000, 40.00000000000000000, 40.00000000000000000 ) ) ;
#682 = CARTESIAN_POINT ( 'NONE',  ( 97.70000000000001705, 25.00000000000000000, 15.50000000000000000 ) ) ;
#683 = ADVANCED_FACE ( 'NONE', ( #644, #485 ), #590, .F. ) ;
#684 = CYLINDRICAL_SURFACE ( 'NONE', #119, 2.999999999999999112 ) ;
#685 = CARTESIAN_POINT ( 'NONE',  ( 2.299999999999996270, 20.00000000000000000, 2.299999999999993161 ) ) ;
#686 = EDGE_CURVE ( 'NONE', #568, #120, #211, .T. ) ;
#687 = CARTESIAN_POINT ( 'NONE',  ( 97.70000000000000284, 25.00000000000000000, 2.299999999999993161 ) ) ;
#688 = LINE ( 'NONE', #140, #814 ) ;
#689 = CARTESIAN_POINT ( 'NONE',  ( 2.299999999999996270, 20.00000000000000000, 37.69999999999998863 ) ) ;
#690 = VECTOR ( 'NONE', #263, 1000.000000000000000 ) ;
#691 = DIRECTION ( 'NONE',  ( 1.051347561198064416E-15, 0.000000000000000000, 1.000000000000000000 ) ) ;
#692 = VECTOR ( 'NONE', #1001, 1000.000000000000000 ) ;
#693 = ORIENTED_EDGE ( 'NONE', *, *, #647, .T. ) ;
#694 = CARTESIAN_POINT ( 'NONE',  ( 90.00000000000000000, 20.00000000000000000, 0.000000000000000000 ) ) ;
#695 = DIRECTION ( 'NONE',  ( 0.000000000000000000, 0.000000000000000000, 1.000000000000000000 ) ) ;
#696 = LINE ( 'NONE', #492, #475 ) ;
#697 = ORIENTED_EDGE ( 'NONE', *, *, #521, .T. ) ;
#698 = CARTESIAN_POINT ( 'NONE',  ( 100.0000000000000000, 20.00000000000000000, 18.00000000000000355 ) ) ;
#699 = LINE ( 'NONE', #275, #271 ) ;
#700 = CARTESIAN_POINT ( 'NONE',  ( 100.0000000000000000, 40.00000000000000000, 40.00000000000000000 ) ) ;
#701 = EDGE_CURVE ( 'NONE', #568, #36, #201, .T. ) ;
#702 = DIRECTION ( 'NONE',  ( -0.000000000000000000, -1.000000000000000000, -0.000000000000000000 ) ) ;
#703 = CARTESIAN_POINT ( 'NONE',  ( 0.000000000000000000, 20.00000000000000000, 40.00000000000000000 ) ) ;
#704 = VERTEX_POINT ( 'NONE', #703 ) ;
#705 = VECTOR ( 'NONE', #66, 1000.000000000000000 ) ;
#706 = DIRECTION ( 'NONE',  ( -1.000000000000000000, 0.000000000000000000, -0.000000000000000000 ) ) ;
#707 = CARTESIAN_POINT ( 'NONE',  ( 10.00000000000000888, 20.00000000000000000, 0.000000000000000000 ) ) ;
#708 = CARTESIAN_POINT ( 'NONE',  ( 92.29999999999999716, 25.00000000000000000, 15.50000000000000000 ) ) ;
#709 = CARTESIAN_POINT ( 'NONE',  ( 92.29999999999999716, 25.00000000000000000, 15.50000000000000000 ) ) ;
#710 = VECTOR ( 'NONE', #5, 1000.000000000000000 ) ;
#711 = ORIENTED_EDGE ( 'NONE', *, *, #226, .F. ) ;
#712 = VECTOR ( 'NONE', #18, 1000.000000000000000 ) ;
#713 = ORIENTED_EDGE ( 'NONE', *, *, #214, .T. ) ;
#714 = DIRECTION ( 'NONE',  ( -1.000000000000000000, 0.000000000000000000, -0.000000000000000000 ) ) ;
#715 = CARTESIAN_POINT ( 'NONE',  ( 10.00000000000000888, 20.00000000000000000, 23.00000000000000000 ) ) ;
#716 = DIRECTION ( 'NONE',  ( 1.000000000000000000, 0.000000000000000000, 0.000000000000000000 ) ) ;
#717 = VECTOR ( 'NONE', #987, 1000.000000000000000 ) ;
#718 = ORIENTED_EDGE ( 'NONE', *, *, #895, .T. ) ;
#719 = EDGE_CURVE ( 'NONE', #477, #933, #561, .T. ) ;
#720 = CARTESIAN_POINT ( 'NONE',  ( 92.29999999999999716, 20.00000000000000000, 32.29999999999999716 ) ) ;
#721 = ORIENTED_EDGE ( 'NONE', *, *, #130, .F. ) ;
#722 = ORIENTED_EDGE ( 'NONE', *, *, #595, .T. ) ;
#723 = VECTOR ( 'NONE', #716, 1000.000000000000000 ) ;
#724 = LINE ( 'NONE', #651, #690 ) ;
#725 = ORIENTED_EDGE ( 'NONE', *, *, #895, .F. ) ;
#726 = ORIENTED_EDGE ( 'NONE', *, *, #363, .F. ) ;
#727 = VECTOR ( 'NONE', #51, 1000.000000000000000 ) ;
#728 = CARTESIAN_POINT ( 'NONE',  ( 7.699999999999998401, 25.00000000000000000, 32.29999999999999716 ) ) ;
#729 = VECTOR ( 'NONE', #881, 1000.000000000000000 ) ;
#730 = ORIENTED_EDGE ( 'NONE', *, *, #864, .T. ) ;
#731 = EDGE_CURVE ( 'NONE', #645, #23, #180, .T. ) ;
#732 = CIRCLE ( 'NONE', #795, 1.999999999999998224 ) ;
#733 = ORIENTED_EDGE ( 'NONE', *, *, #1003, .F. ) ;
#734 = LINE ( 'NONE', #587, #109 ) ;
#735 = DIRECTION ( 'NONE',  ( -1.000000000000000000, 0.000000000000000000, 0.000000000000000000 ) ) ;
#736 = ORIENTED_EDGE ( 'NONE', *, *, #588, .F. ) ;
#737 = EDGE_CURVE ( 'NONE', #100, #115, #964, .T. ) ;
#738 = VERTEX_POINT ( 'NONE', #479 ) ;
#739 = EDGE_CURVE ( 'NONE', #120, #42, #328, .T. ) ;
#740 = PLANE ( 'NONE',  #102 ) ;
#741 = CARTESIAN_POINT ( 'NONE',  ( 97.70000000000001705, 25.00000000000000000, 24.50000000000000000 ) ) ;
#742 = EDGE_LOOP ( 'NONE', ( #223, #780, #889, #356, #947, #458 ) ) ;
#743 = ORIENTED_EDGE ( 'NONE', *, *, #982, .F. ) ;
#744 = DIRECTION ( 'NONE',  ( -1.112002228190261691E-16, -0.000000000000000000, 1.000000000000000000 ) ) ;
#745 = CARTESIAN_POINT ( 'NONE',  ( 100.0000000000000000, 20.00000000000000000, 22.00000000000000000 ) ) ;
#746 = LINE ( 'NONE', #838, #457 ) ;
#747 = ORIENTED_EDGE ( 'NONE', *, *, #245, .F. ) ;
#748 = CARTESIAN_POINT ( 'NONE',  ( 0.000000000000000000, 25.00000000000000000, 0.000000000000000000 ) ) ;
#749 = EDGE_CURVE ( 'NONE', #415, #506, #19, .T. ) ;
#750 = LINE ( 'NONE', #615, #469 ) ;
#751 = LINE ( 'NONE', #666, #664 ) ;
#752 = ORIENTED_EDGE ( 'NONE', *, *, #533, .F. ) ;
#753 = CARTESIAN_POINT ( 'NONE',  ( 2.300000000000010481, 25.00000000000000000, 24.50000000000000000 ) ) ;
#754 = PLANE ( 'NONE',  #771 ) ;
#755 = ORIENTED_EDGE ( 'NONE', *, *, #352, .T. ) ;
#756 = AXIS2_PLACEMENT_3D ( 'NONE', #821, #260, #55 ) ;
#757 = EDGE_CURVE ( 'NONE', #152, #808, #665, .T. ) ;
#758 = CARTESIAN_POINT ( 'NONE',  ( 0.000000000000000000, 40.00000000000000000, 40.00000000000000000 ) ) ;
#759 = DIRECTION ( 'NONE',  ( 0.000000000000000000, 0.000000000000000000, -1.000000000000000000 ) ) ;
#760 = AXIS2_PLACEMENT_3D ( 'NONE', #212, #515, #377 ) ;
#761 = VECTOR ( 'NONE', #620, 1000.000000000000000 ) ;
#762 = ADVANCED_FACE ( 'NONE', ( #144 ), #684, .F. ) ;
#763 = CARTESIAN_POINT ( 'NONE',  ( 10.00000000000000888, 20.00000000000000000, 17.00000000000000000 ) ) ;
#764 = CARTESIAN_POINT ( 'NONE',  ( 97.70000000000001705, 20.00000000000000000, 15.50000000000000000 ) ) ;
#765 = CARTESIAN_POINT ( 'NONE',  ( 90.00000000000000000, 27.00000000000000000, 30.00000000000000355 ) ) ;
#766 = CARTESIAN_POINT ( 'NONE',  ( 7.699999999999999289, 25.00000000000000000, 24.50000000000000000 ) ) ;
#767 = EDGE_CURVE ( 'NONE', #951, #231, #376, .T. ) ;
#768 = ADVANCED_FACE ( 'NONE', ( #909 ), #983, .F. ) ;
#769 = CARTESIAN_POINT ( 'NONE',  ( 92.29999999999999716, 25.00000000000000000, 24.50000000000000000 ) ) ;
#770 = CARTESIAN_POINT ( 'NONE',  ( 100.0000000000000000, 0.000000000000000000, 0.000000000000000000 ) ) ;
#771 = AXIS2_PLACEMENT_3D ( 'NONE', #234, #759, #76 ) ;
#772 = PLANE ( 'NONE',  #539 ) ;
#773 = ORIENTED_EDGE ( 'NONE', *, *, #214, .F. ) ;
#774 = EDGE_CURVE ( 'NONE', #304, #200, #600, .T. ) ;
#775 = DIRECTION ( 'NONE',  ( -1.000000000000000000, 0.000000000000000000, 0.000000000000000000 ) ) ;
#776 = AXIS2_PLACEMENT_3D ( 'NONE', #143, #359, #375 ) ;
#777 = FACE_OUTER_BOUND ( 'NONE', #116, .T. ) ;
#778 = DIRECTION ( 'NONE',  ( -0.000000000000000000, -1.000000000000000000, -0.000000000000000000 ) ) ;
#779 = AXIS2_PLACEMENT_3D ( 'NONE', #623, #791, #103 ) ;
#780 = ORIENTED_EDGE ( 'NONE', *, *, #135, .T. ) ;
#781 = DIRECTION ( 'NONE',  ( -1.000000000000000000, -0.000000000000000000, -0.000000000000000000 ) ) ;
#782 = EDGE_CURVE ( 'NONE', #64, #704, #1, .T. ) ;
#783 = ORIENTED_EDGE ( 'NONE', *, *, #298, .T. ) ;
#784 = CARTESIAN_POINT ( 'NONE',  ( 2.300000000000010481, 25.00000000000000000, 24.50000000000000000 ) ) ;
#785 = DIRECTION ( 'NONE',  ( 0.000000000000000000, -1.000000000000000000, 0.000000000000000000 ) ) ;
#786 = LINE ( 'NONE', #960, #896 ) ;
#787 = ORIENTED_EDGE ( 'NONE', *, *, #205, .F. ) ;
#788 = PLANE ( 'NONE',  #577 ) ;
#789 = DIRECTION ( 'NONE',  ( 1.000000000000000000, -0.000000000000000000, -0.000000000000000000 ) ) ;
#790 = PLANE ( 'NONE',  #224 ) ;
#791 = DIRECTION ( 'NONE',  ( 0.000000000000000000, 1.000000000000000000, 0.000000000000000000 ) ) ;
#792 = EDGE_CURVE ( 'NONE', #367, #28, #750, .T. ) ;
#793 = PLANE ( 'NONE',  #676 ) ;
#794 = EDGE_LOOP ( 'NONE', ( #15, #2, #618, #697 ) ) ;
#795 = AXIS2_PLACEMENT_3D ( 'NONE', #16, #775, #395 ) ;
#796 = VERTEX_POINT ( 'NONE', #310 ) ;
#797 = CARTESIAN_POINT ( 'NONE',  ( 7.699999999999999289, 20.00000000000000000, 15.50000000000000000 ) ) ;
#798 = LINE ( 'NONE', #875, #901 ) ;
#799 = CARTESIAN_POINT ( 'NONE',  ( 97.70000000000001705, 25.00000000000000000, 15.50000000000000000 ) ) ;
#800 = EDGE_CURVE ( 'NONE', #535, #919, #994, .T. ) ;
#801 = ORIENTED_EDGE ( 'NONE', *, *, #911, .F. ) ;
#802 = LINE ( 'NONE', #430, #239 ) ;
#803 = CARTESIAN_POINT ( 'NONE',  ( 7.699999999999999289, 20.00000000000000000, 24.50000000000000000 ) ) ;
#804 = EDGE_LOOP ( 'NONE', ( #219, #274, #677, #368 ) ) ;
#805 = LINE ( 'NONE', #552, #723 ) ;
#806 = ORIENTED_EDGE ( 'NONE', *, *, #21, .F. ) ;
#807 = VERTEX_POINT ( 'NONE', #679 ) ;
#808 = VERTEX_POINT ( 'NONE', #669 ) ;
#809 = VECTOR ( 'NONE', #514, 1000.000000000000000 ) ;
#810 = CARTESIAN_POINT ( 'NONE',  ( 97.70000000000000284, 20.00000000000000000, 2.299999999999993161 ) ) ;
#811 = ORIENTED_EDGE ( 'NONE', *, *, #61, .F. ) ;
#812 = AXIS2_PLACEMENT_3D ( 'NONE', #708, #695, #619 ) ;
#813 = CARTESIAN_POINT ( 'NONE',  ( 100.0000000000000000, 0.000000000000000000, 40.00000000000000000 ) ) ;
#814 = VECTOR ( 'NONE', #920, 1000.000000000000000 ) ;
#815 = ADVANCED_FACE ( 'NONE', ( #843 ), #935, .F. ) ;
#816 = CARTESIAN_POINT ( 'NONE',  ( 92.29999999999999716, 20.00000000000000000, 15.50000000000000000 ) ) ;
#817 = ORIENTED_EDGE ( 'NONE', *, *, #163, .F. ) ;
#818 = EDGE_LOOP ( 'NONE', ( #162, #52, #886, #399 ) ) ;
#819 = ORIENTED_EDGE ( 'NONE', *, *, #182, .T. ) ;
#820 = LINE ( 'NONE', #302, #473 ) ;
#821 = CARTESIAN_POINT ( 'NONE',  ( 0.000000000000000000, 20.00000000000000000, 20.00000000000000000 ) ) ;
#822 = LINE ( 'NONE', #660, #334 ) ;
#823 = UNCERTAINTY_MEASURE_WITH_UNIT (LENGTH_MEASURE( 1.000000000000000082E-05 ), #594, 'distance_accuracy_value', 'NONE');
#824 = VERTEX_POINT ( 'NONE', #238 ) ;
#825 = EDGE_CURVE ( 'NONE', #299, #266, #155, .T. ) ;
#826 = ORIENTED_EDGE ( 'NONE', *, *, #105, .F. ) ;
#827 = CARTESIAN_POINT ( 'NONE',  ( 97.70000000000000284, 20.00000000000000000, 37.69999999999998863 ) ) ;
#828 = CARTESIAN_POINT ( 'NONE',  ( 7.699999999999998401, 25.00000000000000000, 7.699999999999994849 ) ) ;
#829 = ORIENTED_EDGE ( 'NONE', *, *, #675, .T. ) ;
#830 = ADVANCED_FACE ( 'NONE', ( #530 ), #454, .T. ) ;
#831 = AXIS2_PLACEMENT_3D ( 'NONE', #192, #403, #714 ) ;
#832 = DIRECTION ( 'NONE',  ( 1.000000000000000000, 0.000000000000000000, 0.000000000000000000 ) ) ;
#833 = CARTESIAN_POINT ( 'NONE',  ( 2.300000000000010481, 20.00000000000000000, 24.50000000000000000 ) ) ;
#834 = PLANE ( 'NONE',  #607 ) ;
#835 = UNCERTAINTY_MEASURE_WITH_UNIT (LENGTH_MEASURE( 1.000000000000000082E-05 ), #198, 'distance_accuracy_value', 'NONE');
#836 = VERTEX_POINT ( 'NONE', #827 ) ;
#837 = LINE ( 'NONE', #242, #903 ) ;
#838 = CARTESIAN_POINT ( 'NONE',  ( 92.29999999999999716, 25.00000000000000000, 15.50000000000000000 ) ) ;
#839 = FACE_OUTER_BOUND ( 'NONE', #358, .T. ) ;
#840 = DIRECTION ( 'NONE',  ( 1.000000000000000000, 0.000000000000000000, 0.000000000000000000 ) ) ;
#841 = ORIENTED_EDGE ( 'NONE', *, *, #636, .T. ) ;
#842 = CARTESIAN_POINT ( 'NONE',  ( 0.000000000000000000, 27.00000000000000000, 0.000000000000000000 ) ) ;
#843 = FACE_OUTER_BOUND ( 'NONE', #48, .T. ) ;
#844 = ADVANCED_FACE ( 'NONE', ( #151 ), #754, .F. ) ;
#845 = VECTOR ( 'NONE', #450, 1000.000000000000000 ) ;
#846 = ORIENTED_EDGE ( 'NONE', *, *, #267, .T. ) ;
#847 = CARTESIAN_POINT ( 'NONE',  ( 0.000000000000000000, 0.000000000000000000, 40.00000000000000000 ) ) ;
#848 = VECTOR ( 'NONE', #442, 1000.000000000000000 ) ;
#849 = EDGE_CURVE ( 'NONE', #661, #58, #536, .T. ) ;
#850 = CIRCLE ( 'NONE', #981, 1.999999999999998224 ) ;
#851 = VERTEX_POINT ( 'NONE', #764 ) ;
#852 = PRODUCT_RELATED_PRODUCT_CATEGORY ( 'part', '', ( #7 ) ) ;
#853 = VECTOR ( 'NONE', #244, 1000.000000000000000 ) ;
#854 = EDGE_LOOP ( 'NONE', ( #893, #811, #339, #906 ) ) ;
#855 = FACE_OUTER_BOUND ( 'NONE', #471, .T. ) ;
#856 = DIRECTION ( 'NONE',  ( 0.000000000000000000, 0.000000000000000000, 1.000000000000000000 ) ) ;
#857 = LINE ( 'NONE', #314, #417 ) ;
#858 = ORIENTED_EDGE ( 'NONE', *, *, #575, .T. ) ;
#859 = FACE_OUTER_BOUND ( 'NONE', #41, .T. ) ;
#860 = VECTOR ( 'NONE', #975, 1000.000000000000000 ) ;
#861 = DIRECTION ( 'NONE',  ( 0.000000000000000000, 0.000000000000000000, 1.000000000000000000 ) ) ;
#862 = VECTOR ( 'NONE', #420, 1000.000000000000000 ) ;
#863 = ORIENTED_EDGE ( 'NONE', *, *, #963, .F. ) ;
#864 = EDGE_CURVE ( 'NONE', #836, #951, #365, .T. ) ;
#865 = LINE ( 'NONE', #175, #20 ) ;
#866 = ORIENTED_EDGE ( 'NONE', *, *, #210, .F. ) ;
#867 = VECTOR ( 'NONE', #972, 1000.000000000000000 ) ;
#868 = DIRECTION ( 'NONE',  ( 0.000000000000000000, 0.000000000000000000, -1.000000000000000000 ) ) ;
#869 = PLANE ( 'NONE',  #555 ) ;
#870 = DIRECTION ( 'NONE',  ( 0.000000000000000000, 1.000000000000000000, 0.000000000000000000 ) ) ;
#871 = VECTOR ( 'NONE', #702, 1000.000000000000000 ) ;
#872 = ORIENTED_EDGE ( 'NONE', *, *, #163, .T. ) ;
#873 = LINE ( 'NONE', #617, #853 ) ;
#874 = EDGE_CURVE ( 'NONE', #136, #824, #441, .T. ) ;
#875 = CARTESIAN_POINT ( 'NONE',  ( 92.29999999999999716, 20.00000000000000000, 32.29999999999999716 ) ) ;
#876 = FACE_OUTER_BOUND ( 'NONE', #123, .T. ) ;
#877 = CARTESIAN_POINT ( 'NONE',  ( 100.0000000000000000, 20.00000000000000000, 18.00000000000000355 ) ) ;
#878 = ORIENTED_EDGE ( 'NONE', *, *, #1003, .T. ) ;
#879 = LINE ( 'NONE', #698, #114 ) ;
#880 = CARTESIAN_POINT ( 'NONE',  ( 10.00000000000000888, 20.00000000000000000, 30.00000000000000355 ) ) ;
#881 = DIRECTION ( 'NONE',  ( 0.000000000000000000, 0.000000000000000000, 1.000000000000000000 ) ) ;
#882 = DIRECTION ( 'NONE',  ( -1.000000000000000000, -0.000000000000000000, -0.000000000000000000 ) ) ;
#883 = ORIENTED_EDGE ( 'NONE', *, *, #130, .T. ) ;
#884 = DIRECTION ( 'NONE',  ( -0.000000000000000000, -0.000000000000000000, 1.000000000000000000 ) ) ;
#885 = ADVANCED_FACE ( 'NONE', ( #296 ), #916, .T. ) ;
#886 = ORIENTED_EDGE ( 'NONE', *, *, #701, .T. ) ;
#887 = EDGE_LOOP ( 'NONE', ( #747, #787, #490, #733, #451, #743, #973, #351 ) ) ;
#888 = CARTESIAN_POINT ( 'NONE',  ( 97.70000000000001705, 20.00000000000000000, 24.50000000000000000 ) ) ;
#889 = ORIENTED_EDGE ( 'NONE', *, *, #73, .F. ) ;
#890 = VECTOR ( 'NONE', #62, 1000.000000000000000 ) ;
#891 = ORIENTED_EDGE ( 'NONE', *, *, #416, .T. ) ;
#892 = ADVANCED_FACE ( 'NONE', ( #3 ), #788, .F. ) ;
#893 = ORIENTED_EDGE ( 'NONE', *, *, #849, .T. ) ;
#894 = ORIENTED_EDGE ( 'NONE', *, *, #240, .T. ) ;
#895 = EDGE_CURVE ( 'NONE', #266, #315, #857, .T. ) ;
#896 = VECTOR ( 'NONE', #338, 1000.000000000000000 ) ;
#897 = FACE_OUTER_BOUND ( 'NONE', #608, .T. ) ;
#898 = DIRECTION ( 'NONE',  ( 1.000000000000000000, 0.000000000000000000, -1.112002228190260212E-16 ) ) ;
#899 = VERTEX_POINT ( 'NONE', #317 ) ;
#900 = ORIENTED_EDGE ( 'NONE', *, *, #396, .F. ) ;
#901 = VECTOR ( 'NONE', #868, 1000.000000000000000 ) ;
#902 = LINE ( 'NONE', #914, #979 ) ;
#903 = VECTOR ( 'NONE', #146, 1000.000000000000000 ) ;
#904 = DIRECTION ( 'NONE',  ( 0.000000000000000000, -0.000000000000000000, 1.000000000000000000 ) ) ;
#905 = CARTESIAN_POINT ( 'NONE',  ( 0.000000000000000000, 40.00000000000000000, 40.00000000000000000 ) ) ;
#906 = ORIENTED_EDGE ( 'NONE', *, *, #670, .T. ) ;
#907 = ORIENTED_EDGE ( 'NONE', *, *, #363, .T. ) ;
#908 = PLANE ( 'NONE',  #408 ) ;
#909 = FACE_OUTER_BOUND ( 'NONE', #316, .T. ) ;
#910 = CARTESIAN_POINT ( 'NONE',  ( 2.299999999999996270, 25.00000000000000000, 2.299999999999993161 ) ) ;
#911 = EDGE_CURVE ( 'NONE', #428, #100, #873, .T. ) ;
#912 = DIRECTION ( 'NONE',  ( -0.000000000000000000, -0.000000000000000000, -1.000000000000000000 ) ) ;
#913 = CARTESIAN_POINT ( 'NONE',  ( 0.000000000000000000, 0.000000000000000000, 0.000000000000000000 ) ) ;
#914 = CARTESIAN_POINT ( 'NONE',  ( 97.70000000000000284, 25.00000000000000000, 2.299999999999993161 ) ) ;
#915 = AXIS2_PLACEMENT_3D ( 'NONE', #97, #190, #493 ) ;
#916 = PLANE ( 'NONE',  #12 ) ;
#917 = LINE ( 'NONE', #816, #727 ) ;
#918 = VECTOR ( 'NONE', #13, 1000.000000000000000 ) ;
#919 = VERTEX_POINT ( 'NONE', #99 ) ;
#920 = DIRECTION ( 'NONE',  ( -1.000000000000000000, -0.000000000000000000, -0.000000000000000000 ) ) ;
#921 = EDGE_CURVE ( 'NONE', #378, #367, #463, .T. ) ;
#922 = AXIS2_PLACEMENT_3D ( 'NONE', #748, #655, #974 ) ;
#923 = DIRECTION ( 'NONE',  ( 0.000000000000000000, 0.000000000000000000, 1.000000000000000000 ) ) ;
#924 = DIRECTION ( 'NONE',  ( -0.000000000000000000, 0.000000000000000000, 1.000000000000000000 ) ) ;
#925 = DIRECTION ( 'NONE',  ( 1.000000000000000000, 0.000000000000000000, 0.000000000000000000 ) ) ;
#926 = DIRECTION ( 'NONE',  ( 0.000000000000000000, -0.000000000000000000, -1.000000000000000000 ) ) ;
#927 = ADVANCED_BREP_SHAPE_REPRESENTATION ( 'USB_socket_2', ( #621, #329 ), #422 ) ;
#928 = EDGE_LOOP ( 'NONE', ( #202, #826, #965, #85 ) ) ;
#929 = LINE ( 'NONE', #681, #510 ) ;
#930 = EDGE_CURVE ( 'NONE', #642, #134, #879, .T. ) ;
#931 = DIRECTION ( 'NONE',  ( -0.000000000000000000, -1.000000000000000000, -0.000000000000000000 ) ) ;
#932 = DIRECTION ( 'NONE',  ( -1.000000000000000000, -0.000000000000000000, -0.000000000000000000 ) ) ;
#933 = VERTEX_POINT ( 'NONE', #327 ) ;
#934 = EDGE_CURVE ( 'NONE', #23, #654, #249, .T. ) ;
#935 = CYLINDRICAL_SURFACE ( 'NONE', #361, 1.999999999999998224 ) ;
#936 = AXIS2_PLACEMENT_3D ( 'NONE', #216, #840, #308 ) ;
#937 = CARTESIAN_POINT ( 'NONE',  ( 92.29999999999999716, 20.00000000000000000, 7.699999999999994849 ) ) ;
#938 = CARTESIAN_POINT ( 'NONE',  ( 7.699999999999998401, 25.00000000000000000, 32.29999999999999716 ) ) ;
#939 = DIRECTION ( 'NONE',  ( -1.000000000000000000, -0.000000000000000000, -0.000000000000000000 ) ) ;
#940 = DIRECTION ( 'NONE',  ( -1.051347561198064416E-15, 0.000000000000000000, -1.000000000000000000 ) ) ;
#941 = ORIENTED_EDGE ( 'NONE', *, *, #580, .F. ) ;
#942 = FACE_OUTER_BOUND ( 'NONE', #467, .T. ) ;
#943 = EDGE_CURVE ( 'NONE', #547, #506, #81, .T. ) ;
#944 = CARTESIAN_POINT ( 'NONE',  ( 2.299999999999996270, 25.00000000000000000, 2.299999999999993161 ) ) ;
#945 = VERTEX_POINT ( 'NONE', #391 ) ;
#946 = CARTESIAN_POINT ( 'NONE',  ( 92.29999999999999716, 25.00000000000000000, 32.29999999999999716 ) ) ;
#947 = ORIENTED_EDGE ( 'NONE', *, *, #157, .T. ) ;
#948 = DIRECTION ( 'NONE',  ( -1.000000000000000000, 0.000000000000000000, -0.000000000000000000 ) ) ;
#949 = CARTESIAN_POINT ( 'NONE',  ( 97.70000000000001705, 25.00000000000000000, 15.50000000000000000 ) ) ;
#950 = ORIENTED_EDGE ( 'NONE', *, *, #182, .F. ) ;
#951 = VERTEX_POINT ( 'NONE', #689 ) ;
#952 = DIRECTION ( 'NONE',  ( 0.000000000000000000, -1.000000000000000000, 0.000000000000000000 ) ) ;
#953 = CARTESIAN_POINT ( 'NONE',  ( 90.00000000000000000, 20.00000000000000000, 22.00000000000000000 ) ) ;
#954 = CARTESIAN_POINT ( 'NONE',  ( 100.0010000000000048, 20.00000000000000000, 23.00000000000000000 ) ) ;
#955 = ORIENTED_EDGE ( 'NONE', *, *, #719, .T. ) ;
#956 = EDGE_CURVE ( 'NONE', #824, #642, #732, .T. ) ;
#957 = CARTESIAN_POINT ( 'NONE',  ( 0.000000000000000000, 20.00000000000000000, 0.000000000000000000 ) ) ;
#958 = CARTESIAN_POINT ( 'NONE',  ( 7.699999999999999289, 25.00000000000000000, 24.50000000000000000 ) ) ;
#959 = CARTESIAN_POINT ( 'NONE',  ( 0.000000000000000000, 0.000000000000000000, 0.000000000000000000 ) ) ;
#960 = CARTESIAN_POINT ( 'NONE',  ( 2.300000000000010481, 25.00000000000000000, 15.50000000000000000 ) ) ;
#961 = ORIENTED_EDGE ( 'NONE', *, *, #73, .T. ) ;
#962 = EDGE_CURVE ( 'NONE', #315, #134, #631, .T. ) ;
#963 = EDGE_CURVE ( 'NONE', #807, #269, #557, .T. ) ;
#964 = LINE ( 'NONE', #567, #300 ) ;
#965 = ORIENTED_EDGE ( 'NONE', *, *, #426, .F. ) ;
#966 = AXIS2_PLACEMENT_3D ( 'NONE', #349, #952, #257 ) ;
#967 = ORIENTED_EDGE ( 'NONE', *, *, #662, .T. ) ;
#968 = ORIENTED_EDGE ( 'NONE', *, *, #418, .F. ) ;
#969 = EDGE_CURVE ( 'NONE', #945, #378, #93, .T. ) ;
#970 = VERTEX_POINT ( 'NONE', #549 ) ;
#971 = LINE ( 'NONE', #507, #305 ) ;
#972 = DIRECTION ( 'NONE',  ( -0.000000000000000000, -1.000000000000000000, -0.000000000000000000 ) ) ;
#973 = ORIENTED_EDGE ( 'NONE', *, *, #647, .F. ) ;
#974 = DIRECTION ( 'NONE',  ( 0.000000000000000000, -0.000000000000000000, 1.000000000000000000 ) ) ;
#975 = DIRECTION ( 'NONE',  ( 0.000000000000000000, 0.000000000000000000, 1.000000000000000000 ) ) ;
#976 = FACE_OUTER_BOUND ( 'NONE', #255, .T. ) ;
#977 = ORIENTED_EDGE ( 'NONE', *, *, #739, .T. ) ;
#978 = ORIENTED_EDGE ( 'NONE', *, *, #286, .T. ) ;
#979 = VECTOR ( 'NONE', #285, 1000.000000000000000 ) ;
#980 = SURFACE_STYLE_FILL_AREA ( #663 ) ;
#981 = AXIS2_PLACEMENT_3D ( 'NONE', #189, #939, #856 ) ;
#982 = EDGE_CURVE ( 'NONE', #326, #851, #865, .T. ) ;
#983 = PLANE ( 'NONE',  #154 ) ;
#984 = DIRECTION ( 'NONE',  ( 1.000000000000000000, 0.000000000000000000, 0.000000000000000000 ) ) ;
#985 = ORIENTED_EDGE ( 'NONE', *, *, #117, .T. ) ;
#986 = ORIENTED_EDGE ( 'NONE', *, *, #267, .F. ) ;
#987 = DIRECTION ( 'NONE',  ( -1.000000000000000000, -0.000000000000000000, -0.000000000000000000 ) ) ;
#988 = FACE_OUTER_BOUND ( 'NONE', #599, .T. ) ;
#989 = ORIENTED_EDGE ( 'NONE', *, *, #800, .F. ) ;
#990 = EDGE_CURVE ( 'NONE', #642, #215, #802, .T. ) ;
#991 = FACE_OUTER_BOUND ( 'NONE', #38, .T. ) ;
#992 = PRESENTATION_STYLE_ASSIGNMENT (( #672 ) ) ;
#993 = VECTOR ( 'NONE', #372, 1000.000000000000000 ) ;
#994 = LINE ( 'NONE', #381, #548 ) ;
#995 = CARTESIAN_POINT ( 'NONE',  ( 92.29999999999999716, 25.00000000000000000, 24.50000000000000000 ) ) ;
#996 = ORIENTED_EDGE ( 'NONE', *, *, #313, .F. ) ;
#997 = PLANE ( 'NONE',  #336 ) ;
#998 = MECHANICAL_DESIGN_GEOMETRIC_PRESENTATION_REPRESENTATION (  '', ( #553 ), #488 ) ;
#999 = CARTESIAN_POINT ( 'NONE',  ( 7.699999999999998401, 25.00000000000000000, 7.699999999999994849 ) ) ;
#1000 = CARTESIAN_POINT ( 'NONE',  ( 10.00000000000000888, 27.00000000000000000, 10.00000000000000178 ) ) ;
#1001 = DIRECTION ( 'NONE',  ( -1.000000000000000000, -0.000000000000000000, -0.000000000000000000 ) ) ;
#1002 = DIRECTION ( 'NONE',  ( 1.000000000000000000, 0.000000000000000000, -1.051347561198064416E-15 ) ) ;
#1003 = EDGE_CURVE ( 'NONE', #899, #23, #341, .T. ) ;
ENDSEC;
END-ISO-10303-21;
