ISO-10303-21;
HEADER;
FILE_DESCRIPTION (( 'STEP AP214' ),
    '1' );
FILE_NAME ('USB_socket_1.STEP',
    '2026-09-14T09:56:20',
    ( '' ),
    ( '' ),
    'SwSTEP 2.0',
    'SolidWorks 2024',
    '' );
FILE_SCHEMA (( 'AUTOMOTIVE_DESIGN' ));
ENDSEC;

DATA;
#1 = ORIENTED_EDGE ( 'NONE', *, *, #539, .F. ) ;
#2 = EDGE_CURVE ( 'NONE', #553, #116, #325, .T. ) ;
#3 = DIRECTION ( 'NONE',  ( -0.000000000000000000, -1.000000000000000000, -0.000000000000000000 ) ) ;
#4 = EDGE_CURVE ( 'NONE', #342, #294, #167, .T. ) ;
#5 = FACE_OUTER_BOUND ( 'NONE', #426, .T. ) ;
#6 = LINE ( 'NONE', #729, #842 ) ;
#7 = ORIENTED_EDGE ( 'NONE', *, *, #359, .F. ) ;
#8 = DIRECTION ( 'NONE',  ( 1.000000000000000000, 0.000000000000000000, 0.000000000000000000 ) ) ;
#9 = SURFACE_SIDE_STYLE ('',( #529 ) ) ;
#10 = CARTESIAN_POINT ( 'NONE',  ( 92.50000000000000000, 25.00000000000000000, 15.00000000000000000 ) ) ;
#11 = CARTESIAN_POINT ( 'NONE',  ( 7.499999999999992895, 25.00000000000000000, 7.500000000000003553 ) ) ;
#12 = VERTEX_POINT ( 'NONE', #400 ) ;
#13 =( LENGTH_UNIT ( ) NAMED_UNIT ( * ) SI_UNIT ( .MILLI., .METRE. ) );
#14 = AXIS2_PLACEMENT_3D ( 'NONE', #205, #208, #908 ) ;
#15 = LINE ( 'NONE', #713, #670 ) ;
#16 = EDGE_CURVE ( 'NONE', #379, #545, #164, .T. ) ;
#17 = VECTOR ( 'NONE', #358, 1000.000000000000000 ) ;
#18 = VECTOR ( 'NONE', #985, 1000.000000000000000 ) ;
#19 = ORIENTED_EDGE ( 'NONE', *, *, #348, .T. ) ;
#20 = ORIENTED_EDGE ( 'NONE', *, *, #585, .T. ) ;
#21 = VERTEX_POINT ( 'NONE', #475 ) ;
#22 = CARTESIAN_POINT ( 'NONE',  ( 92.50000000000000000, 20.00000000000000000, 7.500000000000003553 ) ) ;
#23 = LINE ( 'NONE', #227, #658 ) ;
#24 = FACE_OUTER_BOUND ( 'NONE', #176, .T. ) ;
#25 = ORIENTED_EDGE ( 'NONE', *, *, #972, .F. ) ;
#26 = ORIENTED_EDGE ( 'NONE', *, *, #445, .F. ) ;
#27 = CARTESIAN_POINT ( 'NONE',  ( 10.00000000000000888, 13.00000000000000178, 30.00000000000000355 ) ) ;
#28 = CARTESIAN_POINT ( 'NONE',  ( 7.499999999999992895, 25.00000000000000000, 32.50000000000000000 ) ) ;
#29 = PRODUCT_RELATED_PRODUCT_CATEGORY ( 'part', '', ( #958 ) ) ;
#30 = CARTESIAN_POINT ( 'NONE',  ( 10.00000000000000888, 27.00000000000000000, 10.00000000000000178 ) ) ;
#31 = ORIENTED_EDGE ( 'NONE', *, *, #16, .F. ) ;
#32 = DIRECTION ( 'NONE',  ( 1.000000000000000000, 0.000000000000000000, 0.000000000000000000 ) ) ;
#33 = VECTOR ( 'NONE', #767, 1000.000000000000000 ) ;
#34 = CARTESIAN_POINT ( 'NONE',  ( 97.50000000000001421, 25.00000000000000000, 2.500000000000002220 ) ) ;
#35 = FACE_OUTER_BOUND ( 'NONE', #955, .T. ) ;
#36 = ORIENTED_EDGE ( 'NONE', *, *, #692, .T. ) ;
#37 = EDGE_CURVE ( 'NONE', #665, #721, #489, .T. ) ;
#38 = CARTESIAN_POINT ( 'NONE',  ( 7.499999999999992895, 25.00000000000000000, 32.50000000000000000 ) ) ;
#39 = CARTESIAN_POINT ( 'NONE',  ( 92.50000000000000000, 25.00000000000000000, 32.50000000000000000 ) ) ;
#40 = ORIENTED_EDGE ( 'NONE', *, *, #337, .F. ) ;
#41 = DIRECTION ( 'NONE',  ( -0.000000000000000000, -1.000000000000000000, -0.000000000000000000 ) ) ;
#42 = DIRECTION ( 'NONE',  ( 1.000000000000000000, 0.000000000000000000, 0.000000000000000000 ) ) ;
#43 = VERTEX_POINT ( 'NONE', #86 ) ;
#44 = CARTESIAN_POINT ( 'NONE',  ( 92.50000000000000000, 20.00000000000000000, 15.00000000000000000 ) ) ;
#45 = CARTESIAN_POINT ( 'NONE',  ( 0.000000000000000000, 20.00000000000000000, 20.00000000000000000 ) ) ;
#46 = DIRECTION ( 'NONE',  ( -0.000000000000000000, -0.000000000000000000, -1.000000000000000000 ) ) ;
#47 = ADVANCED_FACE ( 'NONE', ( #711 ), #552, .F. ) ;
#48 = VECTOR ( 'NONE', #79, 1000.000000000000000 ) ;
#49 = EDGE_LOOP ( 'NONE', ( #984, #903, #567, #774 ) ) ;
#50 = DIRECTION ( 'NONE',  ( -1.000000000000000000, -0.000000000000000000, -0.000000000000000000 ) ) ;
#51 = DIRECTION ( 'NONE',  ( -0.000000000000000000, -0.000000000000000000, -1.000000000000000000 ) ) ;
#52 = CARTESIAN_POINT ( 'NONE',  ( 100.0000000000000000, 0.000000000000000000, 40.00000000000000000 ) ) ;
#53 = ADVANCED_FACE ( 'NONE', ( #24 ), #945, .F. ) ;
#54 = VERTEX_POINT ( 'NONE', #240 ) ;
#55 = LINE ( 'NONE', #361, #300 ) ;
#56 = LINE ( 'NONE', #238, #267 ) ;
#57 = ORIENTED_EDGE ( 'NONE', *, *, #750, .F. ) ;
#58 = ORIENTED_EDGE ( 'NONE', *, *, #77, .F. ) ;
#59 = CARTESIAN_POINT ( 'NONE',  ( 7.499999999999992895, 25.00000000000000000, 7.500000000000003553 ) ) ;
#60 = ORIENTED_EDGE ( 'NONE', *, *, #281, .F. ) ;
#61 = VECTOR ( 'NONE', #550, 1000.000000000000000 ) ;
#62 = FACE_OUTER_BOUND ( 'NONE', #931, .T. ) ;
#63 = PRODUCT_DEFINITION_FORMATION_WITH_SPECIFIED_SOURCE ( 'ANY', '', #958, .NOT_KNOWN. ) ;
#64 = LINE ( 'NONE', #119, #399 ) ;
#65 = EDGE_CURVE ( 'NONE', #559, #114, #780, .T. ) ;
#66 = DIRECTION ( 'NONE',  ( 1.110223024625156738E-15, 0.000000000000000000, 1.000000000000000000 ) ) ;
#67 = ORIENTED_EDGE ( 'NONE', *, *, #797, .F. ) ;
#68 = FACE_OUTER_BOUND ( 'NONE', #716, .T. ) ;
#69 = CARTESIAN_POINT ( 'NONE',  ( 97.50000000000002842, 25.00000000000000000, 25.00000000000000000 ) ) ;
#70 = CARTESIAN_POINT ( 'NONE',  ( 2.500000000000023093, 25.00000000000000000, 15.00000000000000000 ) ) ;
#71 = ORIENTED_EDGE ( 'NONE', *, *, #555, .T. ) ;
#72 = CARTESIAN_POINT ( 'NONE',  ( 90.00000000000000000, 27.00000000000000000, 30.00000000000000355 ) ) ;
#73 = DIRECTION ( 'NONE',  ( -0.000000000000000000, -1.000000000000000000, -0.000000000000000000 ) ) ;
#74 = FACE_OUTER_BOUND ( 'NONE', #98, .T. ) ;
#75 = EDGE_CURVE ( 'NONE', #534, #394, #937, .T. ) ;
#76 = ORIENTED_EDGE ( 'NONE', *, *, #591, .F. ) ;
#77 = EDGE_CURVE ( 'NONE', #721, #437, #96, .T. ) ;
#78 = VERTEX_POINT ( 'NONE', #875 ) ;
#79 = DIRECTION ( 'NONE',  ( 1.000000000000000000, -0.000000000000000000, -0.000000000000000000 ) ) ;
#80 = CARTESIAN_POINT ( 'NONE',  ( 90.00000000000000000, 20.00000000000000000, 10.00000000000000178 ) ) ;
#81 = VECTOR ( 'NONE', #174, 1000.000000000000000 ) ;
#82 = CARTESIAN_POINT ( 'NONE',  ( 90.00000000000000000, 20.00000000000000000, 0.000000000000000000 ) ) ;
#83 = DIRECTION ( 'NONE',  ( 0.000000000000000000, 0.000000000000000000, 1.000000000000000000 ) ) ;
#84 = EDGE_LOOP ( 'NONE', ( #580, #522, #7, #593 ) ) ;
#85 = CARTESIAN_POINT ( 'NONE',  ( 2.500000000000023093, 25.00000000000000000, 2.500000000000002220 ) ) ;
#86 = CARTESIAN_POINT ( 'NONE',  ( 2.500000000000023093, 20.00000000000000000, 15.00000000000000000 ) ) ;
#87 = ADVANCED_FACE ( 'NONE', ( #175 ), #799, .T. ) ;
#88 = CARTESIAN_POINT ( 'NONE',  ( 7.499999999999992895, 20.00000000000000000, 32.50000000000000000 ) ) ;
#89 = LINE ( 'NONE', #467, #61 ) ;
#90 = EDGE_LOOP ( 'NONE', ( #441, #418, #407, #824 ) ) ;
#91 = ORIENTED_EDGE ( 'NONE', *, *, #988, .T. ) ;
#92 = DIRECTION ( 'NONE',  ( -1.000000000000000000, -0.000000000000000000, -0.000000000000000000 ) ) ;
#93 = VECTOR ( 'NONE', #333, 1000.000000000000000 ) ;
#94 = EDGE_CURVE ( 'NONE', #248, #534, #181, .T. ) ;
#95 = VECTOR ( 'NONE', #41, 1000.000000000000000 ) ;
#96 = LINE ( 'NONE', #406, #789 ) ;
#97 = VERTEX_POINT ( 'NONE', #106 ) ;
#98 = EDGE_LOOP ( 'NONE', ( #314, #476, #140, #794 ) ) ;
#99 = PLANE ( 'NONE',  #934 ) ;
#100 = VERTEX_POINT ( 'NONE', #415 ) ;
#101 = VERTEX_POINT ( 'NONE', #725 ) ;
#102 = ORIENTED_EDGE ( 'NONE', *, *, #445, .T. ) ;
#103 = ADVANCED_FACE ( 'NONE', ( #35 ), #341, .F. ) ;
#104 = CARTESIAN_POINT ( 'NONE',  ( 0.000000000000000000, 0.000000000000000000, 0.000000000000000000 ) ) ;
#105 = EDGE_CURVE ( 'NONE', #97, #257, #122, .T. ) ;
#106 = CARTESIAN_POINT ( 'NONE',  ( 10.00000000000000888, 20.00000000000000000, 10.00000000000000178 ) ) ;
#107 = ORIENTED_EDGE ( 'NONE', *, *, #961, .T. ) ;
#108 = VECTOR ( 'NONE', #804, 1000.000000000000000 ) ;
#109 = AXIS2_PLACEMENT_3D ( 'NONE', #783, #700, #547 ) ;
#110 = VECTOR ( 'NONE', #850, 1000.000000000000000 ) ;
#111 = PLANE ( 'NONE',  #517 ) ;
#112 = DIRECTION ( 'NONE',  ( -1.000000000000000000, 0.000000000000000000, 0.000000000000000000 ) ) ;
#113 = DIRECTION ( 'NONE',  ( -1.000000000000000000, 0.000000000000000000, -0.000000000000000000 ) ) ;
#114 = VERTEX_POINT ( 'NONE', #292 ) ;
#115 = ADVANCED_BREP_SHAPE_REPRESENTATION ( 'USB_socket_1', ( #220, #710 ), #305 ) ;
#116 = VERTEX_POINT ( 'NONE', #595 ) ;
#117 = CARTESIAN_POINT ( 'NONE',  ( 0.000000000000000000, 20.00000000000000000, 30.00000000000000355 ) ) ;
#118 = EDGE_CURVE ( 'NONE', #911, #310, #897, .T. ) ;
#119 = CARTESIAN_POINT ( 'NONE',  ( 97.50000000000002842, 20.00000000000000000, 25.00000000000000000 ) ) ;
#120 = DIRECTION ( 'NONE',  ( -0.000000000000000000, -1.000000000000000000, -0.000000000000000000 ) ) ;
#121 = VERTEX_POINT ( 'NONE', #278 ) ;
#122 = LINE ( 'NONE', #676, #790 ) ;
#123 = ADVANCED_FACE ( 'NONE', ( #664 ), #273, .F. ) ;
#124 = VECTOR ( 'NONE', #112, 1000.000000000000000 ) ;
#125 = LINE ( 'NONE', #661, #17 ) ;
#126 = VECTOR ( 'NONE', #519, 1000.000000000000000 ) ;
#127 = ORIENTED_EDGE ( 'NONE', *, *, #684, .T. ) ;
#128 = FACE_OUTER_BOUND ( 'NONE', #963, .T. ) ;
#129 = DIRECTION ( 'NONE',  ( 1.000000000000000000, 0.000000000000000000, -0.000000000000000000 ) ) ;
#130 = CARTESIAN_POINT ( 'NONE',  ( 0.000000000000000000, 0.000000000000000000, 40.00000000000000000 ) ) ;
#131 = DIRECTION ( 'NONE',  ( -0.000000000000000000, -1.000000000000000000, -0.000000000000000000 ) ) ;
#132 = CARTESIAN_POINT ( 'NONE',  ( 92.50000000000000000, 20.00000000000000000, 25.00000000000000000 ) ) ;
#133 = ORIENTED_EDGE ( 'NONE', *, *, #671, .T. ) ;
#134 = EDGE_CURVE ( 'NONE', #234, #598, #707, .T. ) ;
#135 = VERTEX_POINT ( 'NONE', #592 ) ;
#136 = LINE ( 'NONE', #229, #268 ) ;
#137 = CARTESIAN_POINT ( 'NONE',  ( 100.0000000000000000, 20.00000000000000000, 20.00000000000000000 ) ) ;
#138 = EDGE_LOOP ( 'NONE', ( #691, #331, #518, #210 ) ) ;
#139 = VECTOR ( 'NONE', #194, 1000.000000000000000 ) ;
#140 = ORIENTED_EDGE ( 'NONE', *, *, #37, .F. ) ;
#141 = CARTESIAN_POINT ( 'NONE',  ( 100.0000000000000000, 20.00000000000000000, 22.00000000000000000 ) ) ;
#142 = DIRECTION ( 'NONE',  ( 0.000000000000000000, -0.000000000000000000, 1.000000000000000000 ) ) ;
#143 = LINE ( 'NONE', #280, #126 ) ;
#144 = DIRECTION ( 'NONE',  ( -0.000000000000000000, -1.000000000000000000, -0.000000000000000000 ) ) ;
#145 = ORIENTED_EDGE ( 'NONE', *, *, #293, .T. ) ;
#146 = LINE ( 'NONE', #380, #935 ) ;
#147 = ADVANCED_FACE ( 'NONE', ( #438 ), #604, .F. ) ;
#148 = LINE ( 'NONE', #856, #33 ) ;
#149 = EDGE_CURVE ( 'NONE', #760, #326, #520, .T. ) ;
#150 = ORIENTED_EDGE ( 'NONE', *, *, #947, .T. ) ;
#151 = PLANE ( 'NONE',  #353 ) ;
#152 = FILL_AREA_STYLE_COLOUR ( '', #809 ) ;
#153 = LINE ( 'NONE', #1001, #773 ) ;
#154 = LINE ( 'NONE', #70, #611 ) ;
#155 = EDGE_CURVE ( 'NONE', #717, #343, #669, .T. ) ;
#156 = ORIENTED_EDGE ( 'NONE', *, *, #105, .T. ) ;
#157 = DIRECTION ( 'NONE',  ( -1.156482317317871971E-16, -0.000000000000000000, -1.000000000000000000 ) ) ;
#158 = ORIENTED_EDGE ( 'NONE', *, *, #134, .T. ) ;
#159 = LINE ( 'NONE', #470, #173 ) ;
#160 = CARTESIAN_POINT ( 'NONE',  ( 0.000000000000000000, 0.000000000000000000, 40.00000000000000000 ) ) ;
#161 = VECTOR ( 'NONE', #488, 1000.000000000000000 ) ;
#162 = LINE ( 'NONE', #975, #743 ) ;
#163 = ADVANCED_FACE ( 'NONE', ( #432 ), #212, .F. ) ;
#164 = LINE ( 'NONE', #715, #501 ) ;
#165 = ORIENTED_EDGE ( 'NONE', *, *, #206, .T. ) ;
#166 = DIRECTION ( 'NONE',  ( 0.000000000000000000, 0.000000000000000000, 1.000000000000000000 ) ) ;
#167 = LINE ( 'NONE', #233, #365 ) ;
#168 = ORIENTED_EDGE ( 'NONE', *, *, #539, .T. ) ;
#169 = ADVANCED_FACE ( 'NONE', ( #512 ), #200, .F. ) ;
#170 = PLANE ( 'NONE',  #625 ) ;
#171 = CARTESIAN_POINT ( 'NONE',  ( 0.000000000000000000, 0.000000000000000000, 40.00000000000000000 ) ) ;
#172 = ORIENTED_EDGE ( 'NONE', *, *, #179, .F. ) ;
#173 = VECTOR ( 'NONE', #777, 1000.000000000000000 ) ;
#174 = DIRECTION ( 'NONE',  ( -0.000000000000000000, -1.000000000000000000, -0.000000000000000000 ) ) ;
#175 = FACE_OUTER_BOUND ( 'NONE', #537, .T. ) ;
#176 = EDGE_LOOP ( 'NONE', ( #279, #886, #862, #693 ) ) ;
#177 = ORIENTED_EDGE ( 'NONE', *, *, #4, .T. ) ;
#178 = EDGE_CURVE ( 'NONE', #355, #760, #64, .T. ) ;
#179 = EDGE_CURVE ( 'NONE', #702, #559, #524, .T. ) ;
#180 = CARTESIAN_POINT ( 'NONE',  ( 90.00000000000000000, 27.00000000000000000, 30.00000000000000355 ) ) ;
#181 = LINE ( 'NONE', #494, #108 ) ;
#182 = ORIENTED_EDGE ( 'NONE', *, *, #281, .T. ) ;
#183 = ORIENTED_EDGE ( 'NONE', *, *, #118, .F. ) ;
#184 = DIRECTION ( 'NONE',  ( -1.000000000000000000, 0.000000000000000000, -0.000000000000000000 ) ) ;
#185 = ORIENTED_EDGE ( 'NONE', *, *, #226, .F. ) ;
#186 = UNCERTAINTY_MEASURE_WITH_UNIT (LENGTH_MEASURE( 1.000000000000000082E-05 ), #13, 'distance_accuracy_value', 'NONE');
#187 = FACE_OUTER_BOUND ( 'NONE', #49, .T. ) ;
#188 = PRODUCT_DEFINITION_SHAPE ( 'NONE', 'NONE',  #756 ) ;
#189 = VECTOR ( 'NONE', #144, 1000.000000000000000 ) ;
#190 = DIRECTION ( 'NONE',  ( -0.000000000000000000, -1.000000000000000000, -0.000000000000000000 ) ) ;
#191 = EDGE_CURVE ( 'NONE', #726, #946, #481, .T. ) ;
#192 = VERTEX_POINT ( 'NONE', #660 ) ;
#193 = LINE ( 'NONE', #907, #95 ) ;
#194 = DIRECTION ( 'NONE',  ( 1.000000000000000000, 0.000000000000000000, 0.000000000000000000 ) ) ;
#195 = DIRECTION ( 'NONE',  ( 0.000000000000000000, -0.000000000000000000, 1.000000000000000000 ) ) ;
#196 = EDGE_CURVE ( 'NONE', #78, #116, #55, .T. ) ;
#197 = DIRECTION ( 'NONE',  ( 1.000000000000000000, 0.000000000000000000, 0.000000000000000000 ) ) ;
#198 = LINE ( 'NONE', #514, #873 ) ;
#199 = ORIENTED_EDGE ( 'NONE', *, *, #318, .F. ) ;
#200 = PLANE ( 'NONE',  #918 ) ;
#201 = VECTOR ( 'NONE', #263, 1000.000000000000000 ) ;
#202 = ORIENTED_EDGE ( 'NONE', *, *, #318, .T. ) ;
#203 = APPLICATION_CONTEXT ( 'automotive_design' ) ;
#204 = ORIENTED_EDGE ( 'NONE', *, *, #612, .T. ) ;
#205 = CARTESIAN_POINT ( 'NONE',  ( 92.50000000000000000, 25.00000000000000000, 7.500000000000003553 ) ) ;
#206 = EDGE_CURVE ( 'NONE', #257, #801, #930, .T. ) ;
#207 = LINE ( 'NONE', #523, #583 ) ;
#208 = DIRECTION ( 'NONE',  ( 1.000000000000000000, 0.000000000000000000, 0.000000000000000000 ) ) ;
#209 = CARTESIAN_POINT ( 'NONE',  ( 7.499999999999992895, 25.00000000000000000, 7.500000000000003553 ) ) ;
#210 = ORIENTED_EDGE ( 'NONE', *, *, #749, .F. ) ;
#211 = LINE ( 'NONE', #224, #450 ) ;
#212 = PLANE ( 'NONE',  #668 ) ;
#213 = SHAPE_DEFINITION_REPRESENTATION ( #188, #115 ) ;
#214 = AXIS2_PLACEMENT_3D ( 'NONE', #171, #472, #571 ) ;
#215 = VERTEX_POINT ( 'NONE', #977 ) ;
#216 = EDGE_LOOP ( 'NONE', ( #1, #158, #948, #429, #678, #877 ) ) ;
#217 = CARTESIAN_POINT ( 'NONE',  ( 0.000000000000000000, 25.00000000000000000, 0.000000000000000000 ) ) ;
#218 = ADVANCED_FACE ( 'NONE', ( #282 ), #906, .F. ) ;
#219 = CARTESIAN_POINT ( 'NONE',  ( 100.0010000000000048, 20.00000000000000000, 20.00000000000000000 ) ) ;
#220 = MANIFOLD_SOLID_BREP ( '∂Øƒ - âüÇµèoÇµ4[1]', #232 ) ;
#221 = DIRECTION ( 'NONE',  ( 0.000000000000000000, 0.000000000000000000, -1.000000000000000000 ) ) ;
#222 = VERTEX_POINT ( 'NONE', #316 ) ;
#223 = ORIENTED_EDGE ( 'NONE', *, *, #149, .F. ) ;
#224 = CARTESIAN_POINT ( 'NONE',  ( 92.50000000000000000, 20.00000000000000000, 7.500000000000003553 ) ) ;
#225 = CARTESIAN_POINT ( 'NONE',  ( 0.000000000000000000, 0.000000000000000000, 40.00000000000000000 ) ) ;
#226 = EDGE_CURVE ( 'NONE', #290, #101, #835, .T. ) ;
#227 = CARTESIAN_POINT ( 'NONE',  ( 92.50000000000000000, 25.00000000000000000, 7.500000000000003553 ) ) ;
#228 = ORIENTED_EDGE ( 'NONE', *, *, #105, .F. ) ;
#229 = CARTESIAN_POINT ( 'NONE',  ( 2.500000000000023093, 20.00000000000000000, 25.00000000000000000 ) ) ;
#230 = DIRECTION ( 'NONE',  ( 0.000000000000000000, 1.000000000000000000, 0.000000000000000000 ) ) ;
#231 =( NAMED_UNIT ( * ) PLANE_ANGLE_UNIT ( ) SI_UNIT ( $, .RADIAN. ) );
#232 = CLOSED_SHELL ( 'NONE', ( #409, #762, #239, #163, #891, #391, #53, #575, #87, #622, #542, #169, #218, #329, #927, #251, #574, #283, #47, #123, #900, #377, #829, #455, #858, #733, #499, #828, #103, #818, #147, #262 ) ) ;
#233 = CARTESIAN_POINT ( 'NONE',  ( 7.499999999999992895, 20.00000000000000000, 32.50000000000000000 ) ) ;
#234 = VERTEX_POINT ( 'NONE', #629 ) ;
#235 = DIRECTION ( 'NONE',  ( 0.000000000000000000, -0.000000000000000000, 1.000000000000000000 ) ) ;
#236 = AXIS2_PLACEMENT_3D ( 'NONE', #219, #454, #704 ) ;
#237 = VECTOR ( 'NONE', #817, 1000.000000000000000 ) ;
#238 = CARTESIAN_POINT ( 'NONE',  ( 2.500000000000023093, 25.00000000000000000, 37.50000000000000711 ) ) ;
#239 = ADVANCED_FACE ( 'NONE', ( #5 ), #376, .F. ) ;
#240 = CARTESIAN_POINT ( 'NONE',  ( 97.50000000000002842, 25.00000000000000000, 37.50000000000000711 ) ) ;
#241 = ORIENTED_EDGE ( 'NONE', *, *, #75, .F. ) ;
#242 = PLANE ( 'NONE',  #402 ) ;
#243 = LINE ( 'NONE', #709, #568 ) ;
#244 = EDGE_LOOP ( 'NONE', ( #746, #586, #648, #557 ) ) ;
#245 = ORIENTED_EDGE ( 'NONE', *, *, #910, .T. ) ;
#246 = FACE_OUTER_BOUND ( 'NONE', #491, .T. ) ;
#247 = DIRECTION ( 'NONE',  ( 0.000000000000000000, 1.000000000000000000, 0.000000000000000000 ) ) ;
#248 = VERTEX_POINT ( 'NONE', #608 ) ;
#249 = EDGE_CURVE ( 'NONE', #135, #726, #396, .T. ) ;
#250 = ORIENTED_EDGE ( 'NONE', *, *, #644, .T. ) ;
#251 = ADVANCED_FACE ( 'NONE', ( #772 ), #457, .F. ) ;
#252 = CARTESIAN_POINT ( 'NONE',  ( 0.000000000000000000, 20.00000000000000000, 0.000000000000000000 ) ) ;
#253 = VECTOR ( 'NONE', #131, 1000.000000000000000 ) ;
#254 = DIRECTION ( 'NONE',  ( -0.000000000000000000, -1.000000000000000000, -0.000000000000000000 ) ) ;
#255 = DIRECTION ( 'NONE',  ( -0.000000000000000000, -0.000000000000000000, 1.000000000000000000 ) ) ;
#256 = EDGE_LOOP ( 'NONE', ( #870, #452, #943, #91, #378, #403, #133, #459 ) ) ;
#257 = VERTEX_POINT ( 'NONE', #80 ) ;
#258 = LINE ( 'NONE', #787, #81 ) ;
#259 = DIRECTION ( 'NONE',  ( 0.000000000000000000, 0.000000000000000000, -1.000000000000000000 ) ) ;
#260 = ORIENTED_EDGE ( 'NONE', *, *, #466, .T. ) ;
#261 = CARTESIAN_POINT ( 'NONE',  ( 0.000000000000000000, 0.000000000000000000, 0.000000000000000000 ) ) ;
#262 = ADVANCED_FACE ( 'NONE', ( #919 ), #618, .F. ) ;
#263 = DIRECTION ( 'NONE',  ( 0.000000000000000000, 1.000000000000000000, 0.000000000000000000 ) ) ;
#264 = EDGE_LOOP ( 'NONE', ( #71, #57, #883, #389 ) ) ;
#265 = ORIENTED_EDGE ( 'NONE', *, *, #178, .T. ) ;
#266 = CARTESIAN_POINT ( 'NONE',  ( 0.000000000000000000, 20.00000000000000000, 17.00000000000000000 ) ) ;
#267 = VECTOR ( 'NONE', #861, 1000.000000000000000 ) ;
#268 = VECTOR ( 'NONE', #528, 1000.000000000000000 ) ;
#269 = DIRECTION ( 'NONE',  ( -0.000000000000000000, -1.000000000000000000, -0.000000000000000000 ) ) ;
#270 = EDGE_CURVE ( 'NONE', #545, #634, #778, .T. ) ;
#271 = VERTEX_POINT ( 'NONE', #385 ) ;
#272 = LINE ( 'NONE', #587, #434 ) ;
#273 = PLANE ( 'NONE',  #338 ) ;
#274 = CARTESIAN_POINT ( 'NONE',  ( 92.50000000000000000, 25.00000000000000000, 15.00000000000000000 ) ) ;
#275 = VERTEX_POINT ( 'NONE', #540 ) ;
#276 = ORIENTED_EDGE ( 'NONE', *, *, #16, .T. ) ;
#277 = LINE ( 'NONE', #904, #690 ) ;
#278 = CARTESIAN_POINT ( 'NONE',  ( 97.50000000000001421, 20.00000000000000000, 2.500000000000002220 ) ) ;
#279 = ORIENTED_EDGE ( 'NONE', *, *, #782, .F. ) ;
#280 = CARTESIAN_POINT ( 'NONE',  ( 92.50000000000000000, 20.00000000000000000, 32.50000000000000000 ) ) ;
#281 = EDGE_CURVE ( 'NONE', #490, #379, #148, .T. ) ;
#282 = FACE_OUTER_BOUND ( 'NONE', #244, .T. ) ;
#283 = ADVANCED_FACE ( 'NONE', ( #763 ), #392, .F. ) ;
#284 = AXIS2_PLACEMENT_3D ( 'NONE', #137, #913, #588 ) ;
#285 = VECTOR ( 'NONE', #615, 1000.000000000000000 ) ;
#286 = ORIENTED_EDGE ( 'NONE', *, *, #719, .F. ) ;
#287 = DIRECTION ( 'NONE',  ( -1.000000000000000000, 0.000000000000000000, 0.000000000000000000 ) ) ;
#288 = DIRECTION ( 'NONE',  ( 0.000000000000000000, 0.000000000000000000, 1.000000000000000000 ) ) ;
#289 = CARTESIAN_POINT ( 'NONE',  ( 97.50000000000002842, 25.00000000000000000, 15.00000000000000000 ) ) ;
#290 = VERTEX_POINT ( 'NONE', #933 ) ;
#291 = FACE_OUTER_BOUND ( 'NONE', #954, .T. ) ;
#292 = CARTESIAN_POINT ( 'NONE',  ( 100.0000000000000000, 20.00000000000000000, 0.000000000000000000 ) ) ;
#293 = EDGE_CURVE ( 'NONE', #545, #222, #306, .T. ) ;
#294 = VERTEX_POINT ( 'NONE', #88 ) ;
#295 = FACE_OUTER_BOUND ( 'NONE', #256, .T. ) ;
#296 = LINE ( 'NONE', #1003, #792 ) ;
#297 = VECTOR ( 'NONE', #3, 1000.000000000000000 ) ;
#298 = VECTOR ( 'NONE', #247, 1000.000000000000000 ) ;
#299 = ORIENTED_EDGE ( 'NONE', *, *, #191, .T. ) ;
#300 = VECTOR ( 'NONE', #447, 1000.000000000000000 ) ;
#301 = VECTOR ( 'NONE', #120, 1000.000000000000000 ) ;
#302 = EDGE_CURVE ( 'NONE', #800, #760, #554, .T. ) ;
#303 = ORIENTED_EDGE ( 'NONE', *, *, #769, .T. ) ;
#304 = DIRECTION ( 'NONE',  ( 1.000000000000000000, -0.000000000000000000, 0.000000000000000000 ) ) ;
#305 =( GEOMETRIC_REPRESENTATION_CONTEXT ( 3 ) GLOBAL_UNCERTAINTY_ASSIGNED_CONTEXT ( ( #838 ) ) GLOBAL_UNIT_ASSIGNED_CONTEXT ( ( #382, #231, #312 ) ) REPRESENTATION_CONTEXT ( 'NONE', 'WORKASPACE' ) );
#306 = LINE ( 'NONE', #695, #285 ) ;
#307 = DIRECTION ( 'NONE',  ( 0.000000000000000000, -1.000000000000000000, 0.000000000000000000 ) ) ;
#308 = PRODUCT_CONTEXT ( 'NONE', #203, 'mechanical' ) ;
#309 = ORIENTED_EDGE ( 'NONE', *, *, #226, .T. ) ;
#310 = VERTEX_POINT ( 'NONE', #160 ) ;
#311 = CARTESIAN_POINT ( 'NONE',  ( 0.000000000000000000, 20.00000000000000000, 40.00000000000000000 ) ) ;
#312 =( NAMED_UNIT ( * ) SI_UNIT ( $, .STERADIAN. ) SOLID_ANGLE_UNIT ( ) );
#313 = VERTEX_POINT ( 'NONE', #548 ) ;
#314 = ORIENTED_EDGE ( 'NONE', *, *, #155, .T. ) ;
#315 = CARTESIAN_POINT ( 'NONE',  ( 7.499999999999993783, 25.00000000000000000, 25.00000000000000000 ) ) ;
#316 = CARTESIAN_POINT ( 'NONE',  ( 2.500000000000023093, 25.00000000000000000, 37.50000000000000711 ) ) ;
#317 = CARTESIAN_POINT ( 'NONE',  ( 92.50000000000000000, 20.00000000000000000, 25.00000000000000000 ) ) ;
#318 = EDGE_CURVE ( 'NONE', #310, #536, #851, .T. ) ;
#319 = CARTESIAN_POINT ( 'NONE',  ( 92.50000000000000000, 25.00000000000000000, 15.00000000000000000 ) ) ;
#320 = ORIENTED_EDGE ( 'NONE', *, *, #348, .F. ) ;
#321 = FILL_AREA_STYLE ('',( #152 ) ) ;
#322 = AXIS2_PLACEMENT_3D ( 'NONE', #217, #686, #235 ) ;
#323 = DIRECTION ( 'NONE',  ( -1.156482317317871478E-16, 0.000000000000000000, 1.000000000000000000 ) ) ;
#324 = DIRECTION ( 'NONE',  ( 1.000000000000000000, 0.000000000000000000, 0.000000000000000000 ) ) ;
#325 = LINE ( 'NONE', #636, #807 ) ;
#326 = VERTEX_POINT ( 'NONE', #317 ) ;
#327 = EDGE_CURVE ( 'NONE', #465, #598, #162, .T. ) ;
#328 = DIRECTION ( 'NONE',  ( 0.000000000000000000, 0.000000000000000000, 1.000000000000000000 ) ) ;
#329 = ADVANCED_FACE ( 'NONE', ( #74 ), #689, .F. ) ;
#330 = ORIENTED_EDGE ( 'NONE', *, *, #662, .T. ) ;
#331 = ORIENTED_EDGE ( 'NONE', *, *, #464, .F. ) ;
#332 = ORIENTED_EDGE ( 'NONE', *, *, #94, .F. ) ;
#333 = DIRECTION ( 'NONE',  ( 1.000000000000000000, 0.000000000000000000, 0.000000000000000000 ) ) ;
#334 = DIRECTION ( 'NONE',  ( 1.000000000000000000, 0.000000000000000000, -0.000000000000000000 ) ) ;
#335 = DIRECTION ( 'NONE',  ( -0.000000000000000000, 0.000000000000000000, 1.000000000000000000 ) ) ;
#336 = ORIENTED_EDGE ( 'NONE', *, *, #846, .F. ) ;
#337 = EDGE_CURVE ( 'NONE', #97, #553, #153, .T. ) ;
#338 = AXIS2_PLACEMENT_3D ( 'NONE', #59, #364, #757 ) ;
#339 = AXIS2_PLACEMENT_3D ( 'NONE', #960, #92, #638 ) ;
#340 = LINE ( 'NONE', #739, #551 ) ;
#341 = PLANE ( 'NONE',  #724 ) ;
#342 = VERTEX_POINT ( 'NONE', #462 ) ;
#343 = VERTEX_POINT ( 'NONE', #609 ) ;
#344 = EDGE_CURVE ( 'NONE', #222, #54, #56, .T. ) ;
#345 = FACE_OUTER_BOUND ( 'NONE', #816, .T. ) ;
#346 = ORIENTED_EDGE ( 'NONE', *, *, #4, .F. ) ;
#347 = FACE_OUTER_BOUND ( 'NONE', #635, .T. ) ;
#348 = EDGE_CURVE ( 'NONE', #257, #728, #992, .T. ) ;
#349 = CARTESIAN_POINT ( 'NONE',  ( 100.0000000000000000, 20.00000000000000000, 22.00000000000000000 ) ) ;
#350 = DIRECTION ( 'NONE',  ( 0.000000000000000000, 0.000000000000000000, 1.000000000000000000 ) ) ;
#351 = DIRECTION ( 'NONE',  ( 0.000000000000000000, -1.000000000000000000, 0.000000000000000000 ) ) ;
#352 = VECTOR ( 'NONE', #745, 1000.000000000000000 ) ;
#353 = AXIS2_PLACEMENT_3D ( 'NONE', #771, #535, #855 ) ;
#354 = LINE ( 'NONE', #424, #727 ) ;
#355 = VERTEX_POINT ( 'NONE', #696 ) ;
#356 = CARTESIAN_POINT ( 'NONE',  ( 0.000000000000000000, 20.00000000000000000, 0.000000000000000000 ) ) ;
#357 = DIRECTION ( 'NONE',  ( -1.000000000000000000, 0.000000000000000000, 0.000000000000000000 ) ) ;
#358 = DIRECTION ( 'NONE',  ( 1.000000000000000000, -0.000000000000000000, -0.000000000000000000 ) ) ;
#359 = EDGE_CURVE ( 'NONE', #628, #313, #6, .T. ) ;
#360 = ORIENTED_EDGE ( 'NONE', *, *, #302, .T. ) ;
#361 = CARTESIAN_POINT ( 'NONE',  ( 10.00000000000000888, 27.00000000000000000, 30.00000000000000355 ) ) ;
#362 = ORIENTED_EDGE ( 'NONE', *, *, #654, .T. ) ;
#363 = CARTESIAN_POINT ( 'NONE',  ( 97.50000000000002842, 25.00000000000000000, 15.00000000000000000 ) ) ;
#364 = DIRECTION ( 'NONE',  ( 0.000000000000000000, 0.000000000000000000, -1.000000000000000000 ) ) ;
#365 = VECTOR ( 'NONE', #410, 1000.000000000000000 ) ;
#366 = VECTOR ( 'NONE', #599, 1000.000000000000000 ) ;
#367 = VECTOR ( 'NONE', #768, 1000.000000000000000 ) ;
#368 = AXIS2_PLACEMENT_3D ( 'NONE', #677, #532, #66 ) ;
#369 = ORIENTED_EDGE ( 'NONE', *, *, #910, .F. ) ;
#370 = ORIENTED_EDGE ( 'NONE', *, *, #327, .T. ) ;
#371 = DIRECTION ( 'NONE',  ( -1.000000000000000000, 0.000000000000000000, -0.000000000000000000 ) ) ;
#372 = EDGE_CURVE ( 'NONE', #490, #294, #15, .T. ) ;
#373 = CARTESIAN_POINT ( 'NONE',  ( 7.499999999999992895, 25.00000000000000000, 32.50000000000000000 ) ) ;
#374 = ORIENTED_EDGE ( 'NONE', *, *, #644, .F. ) ;
#375 = PLANE ( 'NONE',  #874 ) ;
#376 = PLANE ( 'NONE',  #708 ) ;
#377 = ADVANCED_FACE ( 'NONE', ( #944 ), #99, .F. ) ;
#378 = ORIENTED_EDGE ( 'NONE', *, *, #972, .T. ) ;
#379 = VERTEX_POINT ( 'NONE', #478 ) ;
#380 = CARTESIAN_POINT ( 'NONE',  ( 0.000000000000000000, 0.000000000000000000, 40.00000000000000000 ) ) ;
#381 = PRESENTATION_STYLE_ASSIGNMENT (( #681 ) ) ;
#382 =( LENGTH_UNIT ( ) NAMED_UNIT ( * ) SI_UNIT ( .MILLI., .METRE. ) );
#383 = AXIS2_PLACEMENT_3D ( 'NONE', #503, #32, #939 ) ;
#384 = LINE ( 'NONE', #694, #297 ) ;
#385 = CARTESIAN_POINT ( 'NONE',  ( 10.00000000000000888, 20.00000000000000000, 23.00000000000000000 ) ) ;
#386 = DIRECTION ( 'NONE',  ( 0.000000000000000000, 0.000000000000000000, 1.000000000000000000 ) ) ;
#387 = CARTESIAN_POINT ( 'NONE',  ( 2.500000000000023093, 20.00000000000000000, 37.50000000000000711 ) ) ;
#388 = EDGE_CURVE ( 'NONE', #728, #290, #549, .T. ) ;
#389 = ORIENTED_EDGE ( 'NONE', *, *, #591, .T. ) ;
#390 = PLANE ( 'NONE',  #740 ) ;
#391 = ADVANCED_FACE ( 'NONE', ( #246 ), #956, .T. ) ;
#392 = PLANE ( 'NONE',  #1000 ) ;
#393 = LINE ( 'NONE', #289, #189 ) ;
#394 = VERTEX_POINT ( 'NONE', #22 ) ;
#395 = ORIENTED_EDGE ( 'NONE', *, *, #879, .F. ) ;
#396 = LINE ( 'NONE', #687, #433 ) ;
#397 = LINE ( 'NONE', #560, #920 ) ;
#398 = CARTESIAN_POINT ( 'NONE',  ( 92.50000000000000000, 25.00000000000000000, 7.500000000000003553 ) ) ;
#399 = VECTOR ( 'NONE', #737, 1000.000000000000000 ) ;
#400 = CARTESIAN_POINT ( 'NONE',  ( 7.499999999999993783, 20.00000000000000000, 15.00000000000000000 ) ) ;
#401 = ORIENTED_EDGE ( 'NONE', *, *, #388, .F. ) ;
#402 = AXIS2_PLACEMENT_3D ( 'NONE', #408, #413, #705 ) ;
#403 = ORIENTED_EDGE ( 'NONE', *, *, #614, .T. ) ;
#404 = VECTOR ( 'NONE', #463, 1000.000000000000000 ) ;
#405 = FACE_OUTER_BOUND ( 'NONE', #573, .T. ) ;
#406 = CARTESIAN_POINT ( 'NONE',  ( 97.50000000000002842, 25.00000000000000000, 15.00000000000000000 ) ) ;
#407 = ORIENTED_EDGE ( 'NONE', *, *, #671, .F. ) ;
#408 = CARTESIAN_POINT ( 'NONE',  ( 0.000000000000000000, 20.00000000000000000, 0.000000000000000000 ) ) ;
#409 = ADVANCED_FACE ( 'NONE', ( #871, #878 ), #242, .T. ) ;
#410 = DIRECTION ( 'NONE',  ( -1.000000000000000000, -0.000000000000000000, -0.000000000000000000 ) ) ;
#411 = ORIENTED_EDGE ( 'NONE', *, *, #879, .T. ) ;
#412 = ORIENTED_EDGE ( 'NONE', *, *, #555, .F. ) ;
#413 = DIRECTION ( 'NONE',  ( 0.000000000000000000, 1.000000000000000000, 0.000000000000000000 ) ) ;
#414 = CARTESIAN_POINT ( 'NONE',  ( 2.500000000000023093, 25.00000000000000000, 15.00000000000000000 ) ) ;
#415 = CARTESIAN_POINT ( 'NONE',  ( 7.499999999999993783, 25.00000000000000000, 15.00000000000000000 ) ) ;
#416 = ORIENTED_EDGE ( 'NONE', *, *, #683, .F. ) ;
#417 = VECTOR ( 'NONE', #970, 1000.000000000000000 ) ;
#418 = ORIENTED_EDGE ( 'NONE', *, *, #940, .F. ) ;
#419 = STYLED_ITEM ( 'NONE', ( #381 ), #220 ) ;
#420 = AXIS2_PLACEMENT_3D ( 'NONE', #941, #328, #334 ) ;
#421 = DIRECTION ( 'NONE',  ( 1.000000000000000000, 0.000000000000000000, 0.000000000000000000 ) ) ;
#422 = DIRECTION ( 'NONE',  ( -0.000000000000000000, -1.000000000000000000, -0.000000000000000000 ) ) ;
#423 = EDGE_CURVE ( 'NONE', #192, #43, #397, .T. ) ;
#424 = CARTESIAN_POINT ( 'NONE',  ( 97.50000000000002842, 25.00000000000000000, 37.50000000000000711 ) ) ;
#425 = ORIENTED_EDGE ( 'NONE', *, *, #600, .F. ) ;
#426 = EDGE_LOOP ( 'NONE', ( #204, #172, #848, #202 ) ) ;
#427 = CARTESIAN_POINT ( 'NONE',  ( 0.000000000000000000, 13.00000000000000178, 0.000000000000000000 ) ) ;
#428 = PLANE ( 'NONE',  #758 ) ;
#429 = ORIENTED_EDGE ( 'NONE', *, *, #631, .F. ) ;
#430 = LINE ( 'NONE', #515, #124 ) ;
#431 = AXIS2_PLACEMENT_3D ( 'NONE', #315, #613, #924 ) ;
#432 = FACE_OUTER_BOUND ( 'NONE', #216, .T. ) ;
#433 = VECTOR ( 'NONE', #461, 1000.000000000000000 ) ;
#434 = VECTOR ( 'NONE', #510, 1000.000000000000000 ) ;
#435 = DIRECTION ( 'NONE',  ( 0.000000000000000000, 0.000000000000000000, -1.000000000000000000 ) ) ;
#436 = EDGE_CURVE ( 'NONE', #628, #326, #258, .T. ) ;
#437 = VERTEX_POINT ( 'NONE', #722 ) ;
#438 = FACE_OUTER_BOUND ( 'NONE', #577, .T. ) ;
#439 = DIRECTION ( 'NONE',  ( -1.000000000000000000, 0.000000000000000000, -0.000000000000000000 ) ) ;
#440 = ORIENTED_EDGE ( 'NONE', *, *, #654, .F. ) ;
#441 = ORIENTED_EDGE ( 'NONE', *, *, #521, .T. ) ;
#442 = CARTESIAN_POINT ( 'NONE',  ( 2.500000000000023093, 25.00000000000000000, 15.00000000000000000 ) ) ;
#443 = CARTESIAN_POINT ( 'NONE',  ( 92.50000000000000000, 20.00000000000000000, 15.00000000000000000 ) ) ;
#444 = ORIENTED_EDGE ( 'NONE', *, *, #749, .T. ) ;
#445 = EDGE_CURVE ( 'NONE', #800, #628, #888, .T. ) ;
#446 = DIRECTION ( 'NONE',  ( 1.000000000000000000, 0.000000000000000000, 0.000000000000000000 ) ) ;
#447 = DIRECTION ( 'NONE',  ( 0.000000000000000000, -1.000000000000000000, 0.000000000000000000 ) ) ;
#448 = AXIS2_PLACEMENT_3D ( 'NONE', #748, #974, #827 ) ;
#449 = AXIS2_PLACEMENT_3D ( 'NONE', #261, #795, #578 ) ;
#450 = VECTOR ( 'NONE', #675, 1000.000000000000000 ) ;
#451 = PRODUCT_DEFINITION_CONTEXT ( 'detailed design', #601, 'design' ) ;
#452 = ORIENTED_EDGE ( 'NONE', *, *, #37, .T. ) ;
#453 = LINE ( 'NONE', #72, #1002 ) ;
#454 = DIRECTION ( 'NONE',  ( -1.000000000000000000, -0.000000000000000000, -0.000000000000000000 ) ) ;
#455 = ADVANCED_FACE ( 'NONE', ( #187 ), #865, .F. ) ;
#456 = FACE_OUTER_BOUND ( 'NONE', #703, .T. ) ;
#457 = PLANE ( 'NONE',  #109 ) ;
#458 = CARTESIAN_POINT ( 'NONE',  ( 100.0000000000000000, 20.00000000000000000, 18.00000000000000355 ) ) ;
#459 = ORIENTED_EDGE ( 'NONE', *, *, #94, .T. ) ;
#460 = LINE ( 'NONE', #141, #530 ) ;
#461 = DIRECTION ( 'NONE',  ( 0.000000000000000000, 0.000000000000000000, 1.000000000000000000 ) ) ;
#462 = CARTESIAN_POINT ( 'NONE',  ( 92.50000000000000000, 20.00000000000000000, 32.50000000000000000 ) ) ;
#463 = DIRECTION ( 'NONE',  ( -0.000000000000000000, -1.000000000000000000, -0.000000000000000000 ) ) ;
#464 = EDGE_CURVE ( 'NONE', #116, #21, #718, .T. ) ;
#465 = VERTEX_POINT ( 'NONE', #814 ) ;
#466 = EDGE_CURVE ( 'NONE', #135, #114, #949, .T. ) ;
#467 = CARTESIAN_POINT ( 'NONE',  ( 10.00000000000000888, 13.00000000000000178, 10.00000000000000178 ) ) ;
#468 = VECTOR ( 'NONE', #474, 1000.000000000000000 ) ;
#469 = ORIENTED_EDGE ( 'NONE', *, *, #149, .T. ) ;
#470 = CARTESIAN_POINT ( 'NONE',  ( 10.00000000000000888, 20.00000000000000000, 0.000000000000000000 ) ) ;
#471 = CARTESIAN_POINT ( 'NONE',  ( 7.499999999999993783, 25.00000000000000000, 15.00000000000000000 ) ) ;
#472 = DIRECTION ( 'NONE',  ( 0.000000000000000000, 0.000000000000000000, -1.000000000000000000 ) ) ;
#473 = ORIENTED_EDGE ( 'NONE', *, *, #563, .T. ) ;
#474 = DIRECTION ( 'NONE',  ( 0.000000000000000000, 0.000000000000000000, 1.000000000000000000 ) ) ;
#475 = CARTESIAN_POINT ( 'NONE',  ( 90.00000000000000000, 13.00000000000000178, 30.00000000000000355 ) ) ;
#476 = ORIENTED_EDGE ( 'NONE', *, *, #947, .F. ) ;
#477 = EDGE_CURVE ( 'NONE', #938, #355, #802, .T. ) ;
#478 = CARTESIAN_POINT ( 'NONE',  ( 7.499999999999993783, 25.00000000000000000, 25.00000000000000000 ) ) ;
#479 = CARTESIAN_POINT ( 'NONE',  ( 7.499999999999992895, 20.00000000000000000, 32.50000000000000000 ) ) ;
#480 = CIRCLE ( 'NONE', #485, 2.999999999999999112 ) ;
#481 = CIRCLE ( 'NONE', #950, 2.999999999999999112 ) ;
#482 = CARTESIAN_POINT ( 'NONE',  ( 92.50000000000000000, 25.00000000000000000, 7.500000000000003553 ) ) ;
#483 = EDGE_LOOP ( 'NONE', ( #674, #299, #994, #652 ) ) ;
#484 = VECTOR ( 'NONE', #157, 1000.000000000000000 ) ;
#485 = AXIS2_PLACEMENT_3D ( 'NONE', #619, #932, #221 ) ;
#486 = DIRECTION ( 'NONE',  ( -1.000000000000000000, -0.000000000000000000, -0.000000000000000000 ) ) ;
#487 = EDGE_CURVE ( 'NONE', #946, #271, #798, .T. ) ;
#488 = DIRECTION ( 'NONE',  ( 1.000000000000000000, 0.000000000000000000, 0.000000000000000000 ) ) ;
#489 = LINE ( 'NONE', #319, #623 ) ;
#490 = VERTEX_POINT ( 'NONE', #28 ) ;
#491 = EDGE_LOOP ( 'NONE', ( #369, #260, #786, #679 ) ) ;
#492 = DIRECTION ( 'NONE',  ( -0.000000000000000000, -0.000000000000000000, 1.000000000000000000 ) ) ;
#493 = CARTESIAN_POINT ( 'NONE',  ( 7.499999999999992895, 25.00000000000000000, 32.50000000000000000 ) ) ;
#494 = CARTESIAN_POINT ( 'NONE',  ( 7.499999999999992895, 25.00000000000000000, 7.500000000000003553 ) ) ;
#495 = ORIENTED_EDGE ( 'NONE', *, *, #423, .F. ) ;
#496 = ORIENTED_EDGE ( 'NONE', *, *, #249, .F. ) ;
#497 = DIRECTION ( 'NONE',  ( -0.000000000000000000, -1.000000000000000000, -0.000000000000000000 ) ) ;
#498 = LINE ( 'NONE', #962, #352 ) ;
#499 = ADVANCED_FACE ( 'NONE', ( #405 ), #714, .F. ) ;
#500 = ORIENTED_EDGE ( 'NONE', *, *, #738, .F. ) ;
#501 = VECTOR ( 'NONE', #640, 1000.000000000000000 ) ;
#502 = ORIENTED_EDGE ( 'NONE', *, *, #585, .F. ) ;
#503 = CARTESIAN_POINT ( 'NONE',  ( 2.500000000000023093, 25.00000000000000000, 25.00000000000000000 ) ) ;
#504 = VECTOR ( 'NONE', #909, 1000.000000000000000 ) ;
#505 = DIRECTION ( 'NONE',  ( -0.000000000000000000, -1.000000000000000000, -0.000000000000000000 ) ) ;
#506 = ORIENTED_EDGE ( 'NONE', *, *, #526, .F. ) ;
#507 = ORIENTED_EDGE ( 'NONE', *, *, #359, .T. ) ;
#508 = CARTESIAN_POINT ( 'NONE',  ( 97.50000000000002842, 25.00000000000000000, 25.00000000000000000 ) ) ;
#509 = LINE ( 'NONE', #493, #890 ) ;
#510 = DIRECTION ( 'NONE',  ( 0.000000000000000000, 0.000000000000000000, 1.000000000000000000 ) ) ;
#511 = EDGE_CURVE ( 'NONE', #294, #759, #639, .T. ) ;
#512 = FACE_OUTER_BOUND ( 'NONE', #983, .T. ) ;
#513 = EDGE_CURVE ( 'NONE', #534, #665, #23, .T. ) ;
#514 = CARTESIAN_POINT ( 'NONE',  ( 7.499999999999992895, 25.00000000000000000, 7.500000000000003553 ) ) ;
#515 = CARTESIAN_POINT ( 'NONE',  ( 7.499999999999993783, 20.00000000000000000, 25.00000000000000000 ) ) ;
#516 = DIRECTION ( 'NONE',  ( 0.000000000000000000, 0.000000000000000000, 1.000000000000000000 ) ) ;
#517 = AXIS2_PLACEMENT_3D ( 'NONE', #965, #421, #435 ) ;
#518 = ORIENTED_EDGE ( 'NONE', *, *, #196, .F. ) ;
#519 = DIRECTION ( 'NONE',  ( -0.000000000000000000, -0.000000000000000000, 1.000000000000000000 ) ) ;
#520 = LINE ( 'NONE', #132, #657 ) ;
#521 = EDGE_CURVE ( 'NONE', #12, #275, #544, .T. ) ;
#522 = ORIENTED_EDGE ( 'NONE', *, *, #563, .F. ) ;
#523 = CARTESIAN_POINT ( 'NONE',  ( 2.500000000000023093, 25.00000000000000000, 2.500000000000002220 ) ) ;
#524 = LINE ( 'NONE', #822, #966 ) ;
#525 = DIRECTION ( 'NONE',  ( -0.000000000000000000, -0.000000000000000000, 1.000000000000000000 ) ) ;
#526 = EDGE_CURVE ( 'NONE', #801, #553, #89, .T. ) ;
#527 = ORIENTED_EDGE ( 'NONE', *, *, #155, .F. ) ;
#528 = DIRECTION ( 'NONE',  ( 0.000000000000000000, 0.000000000000000000, 1.000000000000000000 ) ) ;
#529 = SURFACE_STYLE_FILL_AREA ( #321 ) ;
#530 = VECTOR ( 'NONE', #617, 1000.000000000000000 ) ;
#531 = AXIS2_PLACEMENT_3D ( 'NONE', #11, #953, #561 ) ;
#532 = DIRECTION ( 'NONE',  ( -1.000000000000000000, 0.000000000000000000, 1.110223024625156738E-15 ) ) ;
#533 = VECTOR ( 'NONE', #386, 1000.000000000000000 ) ;
#534 = VERTEX_POINT ( 'NONE', #398 ) ;
#535 = DIRECTION ( 'NONE',  ( 0.000000000000000000, 1.000000000000000000, 0.000000000000000000 ) ) ;
#536 = VERTEX_POINT ( 'NONE', #775 ) ;
#537 = EDGE_LOOP ( 'NONE', ( #751, #506, #990, #228 ) ) ;
#538 = CARTESIAN_POINT ( 'NONE',  ( 10.00000000000000888, 20.00000000000000000, 0.000000000000000000 ) ) ;
#539 = EDGE_CURVE ( 'NONE', #234, #114, #243, .T. ) ;
#540 = CARTESIAN_POINT ( 'NONE',  ( 7.499999999999992895, 20.00000000000000000, 7.500000000000003553 ) ) ;
#541 = FACE_OUTER_BOUND ( 'NONE', #764, .T. ) ;
#542 = ADVANCED_FACE ( 'NONE', ( #866 ), #170, .T. ) ;
#543 = ORIENTED_EDGE ( 'NONE', *, *, #837, .F. ) ;
#544 = LINE ( 'NONE', #853, #484 ) ;
#545 = VERTEX_POINT ( 'NONE', #885 ) ;
#546 = CARTESIAN_POINT ( 'NONE',  ( 97.50000000000002842, 25.00000000000000000, 25.00000000000000000 ) ) ;
#547 = DIRECTION ( 'NONE',  ( 1.000000000000000000, 0.000000000000000000, -0.000000000000000000 ) ) ;
#548 = CARTESIAN_POINT ( 'NONE',  ( 92.50000000000000000, 25.00000000000000000, 32.50000000000000000 ) ) ;
#549 = CIRCLE ( 'NONE', #339, 1.999999999999998224 ) ;
#550 = DIRECTION ( 'NONE',  ( -1.000000000000000000, -0.000000000000000000, -0.000000000000000000 ) ) ;
#551 = VECTOR ( 'NONE', #46, 1000.000000000000000 ) ;
#552 = PLANE ( 'NONE',  #531 ) ;
#553 = VERTEX_POINT ( 'NONE', #646 ) ;
#554 = LINE ( 'NONE', #69, #110 ) ;
#555 = EDGE_CURVE ( 'NONE', #121, #192, #498, .T. ) ;
#556 = DIRECTION ( 'NONE',  ( 1.156482317317871478E-16, 0.000000000000000000, -1.000000000000000000 ) ) ;
#557 = ORIENTED_EDGE ( 'NONE', *, *, #75, .T. ) ;
#558 = EDGE_LOOP ( 'NONE', ( #651, #839, #156, #19, #562, #168, #735, #895 ) ) ;
#559 = VERTEX_POINT ( 'NONE', #952 ) ;
#560 = CARTESIAN_POINT ( 'NONE',  ( 2.500000000000023093, 20.00000000000000000, 15.00000000000000000 ) ) ;
#561 = DIRECTION ( 'NONE',  ( 1.156482317317871971E-16, 0.000000000000000000, 1.000000000000000000 ) ) ;
#562 = ORIENTED_EDGE ( 'NONE', *, *, #961, .F. ) ;
#563 = EDGE_CURVE ( 'NONE', #313, #342, #655, .T. ) ;
#564 = ORIENTED_EDGE ( 'NONE', *, *, #782, .T. ) ;
#565 = DIRECTION ( 'NONE',  ( -0.000000000000000000, -0.000000000000000000, 1.000000000000000000 ) ) ;
#566 = DIRECTION ( 'NONE',  ( -1.110223024625156738E-15, 0.000000000000000000, -1.000000000000000000 ) ) ;
#567 = ORIENTED_EDGE ( 'NONE', *, *, #293, .F. ) ;
#568 = VECTOR ( 'NONE', #632, 1000.000000000000000 ) ;
#569 = DIRECTION ( 'NONE',  ( 1.000000000000000000, -0.000000000000000000, 0.000000000000000000 ) ) ;
#570 = DIRECTION ( 'NONE',  ( 0.000000000000000000, 0.000000000000000000, -1.000000000000000000 ) ) ;
#571 = DIRECTION ( 'NONE',  ( -1.000000000000000000, 0.000000000000000000, -0.000000000000000000 ) ) ;
#572 = ORIENTED_EDGE ( 'NONE', *, *, #436, .F. ) ;
#573 = EDGE_LOOP ( 'NONE', ( #469, #572, #26, #360 ) ) ;
#574 = ADVANCED_FACE ( 'NONE', ( #345 ), #880, .F. ) ;
#575 = ADVANCED_FACE ( 'NONE', ( #898 ), #428, .T. ) ;
#576 = LINE ( 'NONE', #34, #857 ) ;
#577 = EDGE_LOOP ( 'NONE', ( #107, #868, #411, #867 ) ) ;
#578 = DIRECTION ( 'NONE',  ( -1.000000000000000000, 0.000000000000000000, -0.000000000000000000 ) ) ;
#579 = LINE ( 'NONE', #889, #791 ) ;
#580 = ORIENTED_EDGE ( 'NONE', *, *, #683, .T. ) ;
#581 = CARTESIAN_POINT ( 'NONE',  ( 90.00000000000000000, 20.00000000000000000, 18.00000000000000355 ) ) ;
#582 = VECTOR ( 'NONE', #254, 1000.000000000000000 ) ;
#583 = VECTOR ( 'NONE', #422, 1000.000000000000000 ) ;
#584 = LINE ( 'NONE', #894, #139 ) ;
#585 = EDGE_CURVE ( 'NONE', #313, #490, #509, .T. ) ;
#586 = ORIENTED_EDGE ( 'NONE', *, *, #642, .F. ) ;
#587 = CARTESIAN_POINT ( 'NONE',  ( 0.000000000000000000, 20.00000000000000000, 40.00000000000000000 ) ) ;
#588 = DIRECTION ( 'NONE',  ( 0.000000000000000000, 0.000000000000000000, 1.000000000000000000 ) ) ;
#589 = CARTESIAN_POINT ( 'NONE',  ( 2.500000000000023093, 20.00000000000000000, 25.00000000000000000 ) ) ;
#590 = LINE ( 'NONE', #899, #626 ) ;
#591 = EDGE_CURVE ( 'NONE', #437, #121, #576, .T. ) ;
#592 = CARTESIAN_POINT ( 'NONE',  ( 0.000000000000000000, 20.00000000000000000, 0.000000000000000000 ) ) ;
#593 = ORIENTED_EDGE ( 'NONE', *, *, #436, .T. ) ;
#594 = CARTESIAN_POINT ( 'NONE',  ( 97.50000000000002842, 20.00000000000000000, 25.00000000000000000 ) ) ;
#595 = CARTESIAN_POINT ( 'NONE',  ( 10.00000000000000888, 13.00000000000000178, 30.00000000000000355 ) ) ;
#596 = VECTOR ( 'NONE', #569, 1000.000000000000000 ) ;
#597 = EDGE_LOOP ( 'NONE', ( #806, #673, #60, #776 ) ) ;
#598 = VERTEX_POINT ( 'NONE', #349 ) ;
#599 = DIRECTION ( 'NONE',  ( 0.000000000000000000, -1.000000000000000000, 0.000000000000000000 ) ) ;
#600 = EDGE_CURVE ( 'NONE', #54, #800, #340, .T. ) ;
#601 = APPLICATION_CONTEXT ( 'automotive_design' ) ;
#602 = ORIENTED_EDGE ( 'NONE', *, *, #902, .F. ) ;
#603 = CARTESIAN_POINT ( 'NONE',  ( 2.500000000000023093, 25.00000000000000000, 37.50000000000000711 ) ) ;
#604 = CYLINDRICAL_SURFACE ( 'NONE', #284, 1.999999999999998224 ) ;
#605 = APPLICATION_PROTOCOL_DEFINITION ( 'draft international standard', 'automotive_design', 1998, #203 ) ;
#606 = ORIENTED_EDGE ( 'NONE', *, *, #796, .T. ) ;
#607 = LINE ( 'NONE', #844, #48 ) ;
#608 = CARTESIAN_POINT ( 'NONE',  ( 7.499999999999992895, 25.00000000000000000, 7.500000000000003553 ) ) ;
#609 = CARTESIAN_POINT ( 'NONE',  ( 97.50000000000002842, 20.00000000000000000, 15.00000000000000000 ) ) ;
#610 = VECTOR ( 'NONE', #42, 1000.000000000000000 ) ;
#611 = VECTOR ( 'NONE', #525, 1000.000000000000000 ) ;
#612 = EDGE_CURVE ( 'NONE', #536, #559, #803, .T. ) ;
#613 = DIRECTION ( 'NONE',  ( 0.000000000000000000, -0.000000000000000000, 1.000000000000000000 ) ) ;
#614 = EDGE_CURVE ( 'NONE', #215, #100, #125, .T. ) ;
#615 = DIRECTION ( 'NONE',  ( 0.000000000000000000, 0.000000000000000000, 1.000000000000000000 ) ) ;
#616 = ORIENTED_EDGE ( 'NONE', *, *, #719, .T. ) ;
#617 = DIRECTION ( 'NONE',  ( 1.000000000000000000, 0.000000000000000000, 0.000000000000000000 ) ) ;
#618 = CYLINDRICAL_SURFACE ( 'NONE', #236, 2.999999999999999112 ) ;
#619 = CARTESIAN_POINT ( 'NONE',  ( 10.00000000000000888, 20.00000000000000000, 20.00000000000000000 ) ) ;
#620 = DIRECTION ( 'NONE',  ( -1.000000000000000000, 0.000000000000000000, -0.000000000000000000 ) ) ;
#621 = DIRECTION ( 'NONE',  ( 0.000000000000000000, 0.000000000000000000, -1.000000000000000000 ) ) ;
#622 = ADVANCED_FACE ( 'NONE', ( #808 ), #111, .T. ) ;
#623 = VECTOR ( 'NONE', #784, 1000.000000000000000 ) ;
#624 = MECHANICAL_DESIGN_GEOMETRIC_PRESENTATION_REPRESENTATION (  '', ( #419 ), #905 ) ;
#625 = AXIS2_PLACEMENT_3D ( 'NONE', #823, #570, #113 ) ;
#626 = VECTOR ( 'NONE', #917, 1000.000000000000000 ) ;
#627 = ORIENTED_EDGE ( 'NONE', *, *, #2, .T. ) ;
#628 = VERTEX_POINT ( 'NONE', #730 ) ;
#629 = CARTESIAN_POINT ( 'NONE',  ( 100.0000000000000000, 20.00000000000000000, 18.00000000000000355 ) ) ;
#630 = CARTESIAN_POINT ( 'NONE',  ( 92.50000000000000000, 25.00000000000000000, 25.00000000000000000 ) ) ;
#631 = EDGE_CURVE ( 'NONE', #702, #465, #650, .T. ) ;
#632 = DIRECTION ( 'NONE',  ( 0.000000000000000000, 0.000000000000000000, -1.000000000000000000 ) ) ;
#633 = ORIENTED_EDGE ( 'NONE', *, *, #372, .F. ) ;
#634 = VERTEX_POINT ( 'NONE', #589 ) ;
#635 = EDGE_LOOP ( 'NONE', ( #656, #303, #564, #370, #395, #309, #444, #697 ) ) ;
#636 = CARTESIAN_POINT ( 'NONE',  ( 10.00000000000000888, 13.00000000000000178, 30.00000000000000355 ) ) ;
#637 = ORIENTED_EDGE ( 'NONE', *, *, #477, .T. ) ;
#638 = DIRECTION ( 'NONE',  ( 0.000000000000000000, 0.000000000000000000, 1.000000000000000000 ) ) ;
#639 = LINE ( 'NONE', #479, #951 ) ;
#640 = DIRECTION ( 'NONE',  ( -1.000000000000000000, 0.000000000000000000, 0.000000000000000000 ) ) ;
#641 = VERTEX_POINT ( 'NONE', #815 ) ;
#642 = EDGE_CURVE ( 'NONE', #665, #717, #579, .T. ) ;
#643 = VECTOR ( 'NONE', #73, 1000.000000000000000 ) ;
#644 = EDGE_CURVE ( 'NONE', #54, #355, #354, .T. ) ;
#645 = CARTESIAN_POINT ( 'NONE',  ( 2.500000000000023093, 20.00000000000000000, 37.50000000000000711 ) ) ;
#646 = CARTESIAN_POINT ( 'NONE',  ( 10.00000000000000888, 13.00000000000000178, 10.00000000000000178 ) ) ;
#647 = ORIENTED_EDGE ( 'NONE', *, *, #477, .F. ) ;
#648 = ORIENTED_EDGE ( 'NONE', *, *, #513, .F. ) ;
#649 = DIRECTION ( 'NONE',  ( -1.000000000000000000, 0.000000000000000000, -1.156482317317871478E-16 ) ) ;
#650 = LINE ( 'NONE', #52, #201 ) ;
#651 = ORIENTED_EDGE ( 'NONE', *, *, #706, .F. ) ;
#652 = ORIENTED_EDGE ( 'NONE', *, *, #915, .F. ) ;
#653 = FACE_BOUND ( 'NONE', #863, .T. ) ;
#654 = EDGE_CURVE ( 'NONE', #275, #394, #584, .T. ) ;
#655 = LINE ( 'NONE', #39, #582 ) ;
#656 = ORIENTED_EDGE ( 'NONE', *, *, #487, .F. ) ;
#657 = VECTOR ( 'NONE', #744, 1000.000000000000000 ) ;
#658 = VECTOR ( 'NONE', #166, 1000.000000000000000 ) ;
#659 = AXIS2_PLACEMENT_3D ( 'NONE', #356, #964, #195 ) ;
#660 = CARTESIAN_POINT ( 'NONE',  ( 2.500000000000023093, 20.00000000000000000, 2.500000000000002220 ) ) ;
#661 = CARTESIAN_POINT ( 'NONE',  ( 7.499999999999993783, 25.00000000000000000, 15.00000000000000000 ) ) ;
#662 = EDGE_CURVE ( 'NONE', #379, #759, #820, .T. ) ;
#663 = CARTESIAN_POINT ( 'NONE',  ( 0.000000000000000000, 20.00000000000000000, 40.00000000000000000 ) ) ;
#664 = FACE_OUTER_BOUND ( 'NONE', #781, .T. ) ;
#665 = VERTEX_POINT ( 'NONE', #274 ) ;
#666 = CARTESIAN_POINT ( 'NONE',  ( 90.00000000000000000, 27.00000000000000000, 10.00000000000000178 ) ) ;
#667 = LINE ( 'NONE', #825, #237 ) ;
#668 = AXIS2_PLACEMENT_3D ( 'NONE', #753, #982, #516 ) ;
#669 = LINE ( 'NONE', #443, #979 ) ;
#670 = VECTOR ( 'NONE', #497, 1000.000000000000000 ) ;
#671 = EDGE_CURVE ( 'NONE', #100, #248, #198, .T. ) ;
#672 = AXIS2_PLACEMENT_3D ( 'NONE', #508, #896, #350 ) ;
#673 = ORIENTED_EDGE ( 'NONE', *, *, #662, .F. ) ;
#674 = ORIENTED_EDGE ( 'NONE', *, *, #706, .T. ) ;
#675 = DIRECTION ( 'NONE',  ( 0.000000000000000000, 0.000000000000000000, 1.000000000000000000 ) ) ;
#676 = CARTESIAN_POINT ( 'NONE',  ( 0.000000000000000000, 20.00000000000000000, 10.00000000000000178 ) ) ;
#677 = CARTESIAN_POINT ( 'NONE',  ( 97.50000000000002842, 25.00000000000000000, 15.00000000000000000 ) ) ;
#678 = ORIENTED_EDGE ( 'NONE', *, *, #179, .T. ) ;
#679 = ORIENTED_EDGE ( 'NONE', *, *, #612, .F. ) ;
#680 = LINE ( 'NONE', #538, #18 ) ;
#681 = SURFACE_STYLE_USAGE ( .BOTH. , #9 ) ;
#682 = DIRECTION ( 'NONE',  ( -1.156482317317871971E-16, -0.000000000000000000, -1.000000000000000000 ) ) ;
#683 = EDGE_CURVE ( 'NONE', #326, #342, #143, .T. ) ;
#684 = EDGE_CURVE ( 'NONE', #21, #801, #277, .T. ) ;
#685 = ORIENTED_EDGE ( 'NONE', *, *, #915, .T. ) ;
#686 = DIRECTION ( 'NONE',  ( 0.000000000000000000, 1.000000000000000000, 0.000000000000000000 ) ) ;
#687 = CARTESIAN_POINT ( 'NONE',  ( 0.000000000000000000, 20.00000000000000000, 40.00000000000000000 ) ) ;
#688 = VECTOR ( 'NONE', #793, 1000.000000000000000 ) ;
#689 = PLANE ( 'NONE',  #811 ) ;
#690 = VECTOR ( 'NONE', #893, 1000.000000000000000 ) ;
#691 = ORIENTED_EDGE ( 'NONE', *, *, #797, .T. ) ;
#692 = EDGE_CURVE ( 'NONE', #215, #43, #831, .T. ) ;
#693 = ORIENTED_EDGE ( 'NONE', *, *, #631, .T. ) ;
#694 = CARTESIAN_POINT ( 'NONE',  ( 0.000000000000000000, 0.000000000000000000, 0.000000000000000000 ) ) ;
#695 = CARTESIAN_POINT ( 'NONE',  ( 2.500000000000023093, 25.00000000000000000, 25.00000000000000000 ) ) ;
#696 = CARTESIAN_POINT ( 'NONE',  ( 97.50000000000002842, 20.00000000000000000, 37.50000000000000711 ) ) ;
#697 = ORIENTED_EDGE ( 'NONE', *, *, #884, .T. ) ;
#698 = CARTESIAN_POINT ( 'NONE',  ( 90.00000000000000000, 13.00000000000000178, 10.00000000000000178 ) ) ;
#699 = EDGE_CURVE ( 'NONE', #100, #12, #193, .T. ) ;
#700 = DIRECTION ( 'NONE',  ( 0.000000000000000000, 0.000000000000000000, 1.000000000000000000 ) ) ;
#701 = DIRECTION ( 'NONE',  ( 0.000000000000000000, 0.000000000000000000, -1.000000000000000000 ) ) ;
#702 = VERTEX_POINT ( 'NONE', #752 ) ;
#703 = EDGE_LOOP ( 'NONE', ( #182, #276, #145, #916, #892, #102, #507, #20 ) ) ;
#704 = DIRECTION ( 'NONE',  ( 0.000000000000000000, 0.000000000000000000, 1.000000000000000000 ) ) ;
#705 = DIRECTION ( 'NONE',  ( 0.000000000000000000, -0.000000000000000000, 1.000000000000000000 ) ) ;
#706 = EDGE_CURVE ( 'NONE', #641, #726, #732, .T. ) ;
#707 = CIRCLE ( 'NONE', #448, 1.999999999999998224 ) ;
#708 = AXIS2_PLACEMENT_3D ( 'NONE', #225, #230, #142 ) ;
#709 = CARTESIAN_POINT ( 'NONE',  ( 100.0000000000000000, 20.00000000000000000, 40.00000000000000000 ) ) ;
#710 = AXIS2_PLACEMENT_3D ( 'NONE', #779, #83, #987 ) ;
#711 = FACE_OUTER_BOUND ( 'NONE', #90, .T. ) ;
#712 = EDGE_LOOP ( 'NONE', ( #401, #320, #165, #843, #67, #185 ) ) ;
#713 = CARTESIAN_POINT ( 'NONE',  ( 7.499999999999992895, 25.00000000000000000, 32.50000000000000000 ) ) ;
#714 = PLANE ( 'NONE',  #420 ) ;
#715 = CARTESIAN_POINT ( 'NONE',  ( 7.499999999999993783, 25.00000000000000000, 25.00000000000000000 ) ) ;
#716 = EDGE_LOOP ( 'NONE', ( #616, #785, #31, #330 ) ) ;
#717 = VERTEX_POINT ( 'NONE', #44 ) ;
#718 = LINE ( 'NONE', #27, #93 ) ;
#719 = EDGE_CURVE ( 'NONE', #759, #634, #430, .T. ) ;
#720 = CARTESIAN_POINT ( 'NONE',  ( 100.0000000000000000, 0.000000000000000000, 0.000000000000000000 ) ) ;
#721 = VERTEX_POINT ( 'NONE', #363 ) ;
#722 = CARTESIAN_POINT ( 'NONE',  ( 97.50000000000001421, 25.00000000000000000, 2.500000000000002220 ) ) ;
#723 = DIRECTION ( 'NONE',  ( -0.000000000000000000, 0.000000000000000000, 1.000000000000000000 ) ) ;
#724 = AXIS2_PLACEMENT_3D ( 'NONE', #373, #901, #129 ) ;
#725 = CARTESIAN_POINT ( 'NONE',  ( 90.00000000000000000, 20.00000000000000000, 30.00000000000000355 ) ) ;
#726 = VERTEX_POINT ( 'NONE', #266 ) ;
#727 = VECTOR ( 'NONE', #269, 1000.000000000000000 ) ;
#728 = VERTEX_POINT ( 'NONE', #581 ) ;
#729 = CARTESIAN_POINT ( 'NONE',  ( 92.50000000000000000, 25.00000000000000000, 32.50000000000000000 ) ) ;
#730 = CARTESIAN_POINT ( 'NONE',  ( 92.50000000000000000, 25.00000000000000000, 25.00000000000000000 ) ) ;
#731 = ORIENTED_EDGE ( 'NONE', *, *, #511, .F. ) ;
#732 = LINE ( 'NONE', #980, #813 ) ;
#733 = ADVANCED_FACE ( 'NONE', ( #128 ), #736, .F. ) ;
#734 = DIRECTION ( 'NONE',  ( 1.000000000000000000, -0.000000000000000000, 0.000000000000000000 ) ) ;
#735 = ORIENTED_EDGE ( 'NONE', *, *, #466, .F. ) ;
#736 = PLANE ( 'NONE',  #672 ) ;
#737 = DIRECTION ( 'NONE',  ( -0.000000000000000000, -0.000000000000000000, -1.000000000000000000 ) ) ;
#738 = EDGE_CURVE ( 'NONE', #343, #121, #667, .T. ) ;
#739 = CARTESIAN_POINT ( 'NONE',  ( 97.50000000000002842, 25.00000000000000000, 25.00000000000000000 ) ) ;
#740 = AXIS2_PLACEMENT_3D ( 'NONE', #991, #8, #849 ) ;
#741 = ORIENTED_EDGE ( 'NONE', *, *, #178, .F. ) ;
#742 = PLANE ( 'NONE',  #659 ) ;
#743 = VECTOR ( 'NONE', #701, 1000.000000000000000 ) ;
#744 = DIRECTION ( 'NONE',  ( -1.000000000000000000, -0.000000000000000000, -0.000000000000000000 ) ) ;
#745 = DIRECTION ( 'NONE',  ( -1.000000000000000000, -0.000000000000000000, -0.000000000000000000 ) ) ;
#746 = ORIENTED_EDGE ( 'NONE', *, *, #869, .T. ) ;
#747 = CARTESIAN_POINT ( 'NONE',  ( 7.499999999999993783, 20.00000000000000000, 25.00000000000000000 ) ) ;
#748 = CARTESIAN_POINT ( 'NONE',  ( 100.0000000000000000, 20.00000000000000000, 20.00000000000000000 ) ) ;
#749 = EDGE_CURVE ( 'NONE', #101, #78, #969, .T. ) ;
#750 = EDGE_CURVE ( 'NONE', #847, #192, #207, .T. ) ;
#751 = ORIENTED_EDGE ( 'NONE', *, *, #337, .T. ) ;
#752 = CARTESIAN_POINT ( 'NONE',  ( 100.0000000000000000, 0.000000000000000000, 40.00000000000000000 ) ) ;
#753 = CARTESIAN_POINT ( 'NONE',  ( 100.0000000000000000, 0.000000000000000000, 40.00000000000000000 ) ) ;
#754 = ORIENTED_EDGE ( 'NONE', *, *, #2, .F. ) ;
#755 = PLANE ( 'NONE',  #431 ) ;
#756 = PRODUCT_DEFINITION ( 'UNKNOWN', '', #63, #451 ) ;
#757 = DIRECTION ( 'NONE',  ( -1.000000000000000000, 0.000000000000000000, -0.000000000000000000 ) ) ;
#758 = AXIS2_PLACEMENT_3D ( 'NONE', #180, #184, #723 ) ;
#759 = VERTEX_POINT ( 'NONE', #747 ) ;
#760 = VERTEX_POINT ( 'NONE', #594 ) ;
#761 = DIRECTION ( 'NONE',  ( 0.000000000000000000, 0.000000000000000000, -1.000000000000000000 ) ) ;
#762 = ADVANCED_FACE ( 'NONE', ( #347, #653 ), #742, .T. ) ;
#763 = FACE_OUTER_BOUND ( 'NONE', #765, .T. ) ;
#764 = EDGE_LOOP ( 'NONE', ( #942, #76, #58, #150 ) ) ;
#765 = EDGE_LOOP ( 'NONE', ( #978, #923, #996, #36 ) ) ;
#766 = FACE_OUTER_BOUND ( 'NONE', #84, .T. ) ;
#767 = DIRECTION ( 'NONE',  ( 1.156482317317871478E-16, 0.000000000000000000, -1.000000000000000000 ) ) ;
#768 = DIRECTION ( 'NONE',  ( -0.000000000000000000, -0.000000000000000000, -1.000000000000000000 ) ) ;
#769 = EDGE_CURVE ( 'NONE', #946, #911, #272, .T. ) ;
#770 = EDGE_LOOP ( 'NONE', ( #685, #805, #989, #754, #40, #336 ) ) ;
#771 = CARTESIAN_POINT ( 'NONE',  ( 0.000000000000000000, 25.00000000000000000, 0.000000000000000000 ) ) ;
#772 = FACE_OUTER_BOUND ( 'NONE', #264, .T. ) ;
#773 = VECTOR ( 'NONE', #307, 1000.000000000000000 ) ;
#774 = ORIENTED_EDGE ( 'NONE', *, *, #270, .T. ) ;
#775 = CARTESIAN_POINT ( 'NONE',  ( 0.000000000000000000, 0.000000000000000000, 0.000000000000000000 ) ) ;
#776 = ORIENTED_EDGE ( 'NONE', *, *, #372, .T. ) ;
#777 = DIRECTION ( 'NONE',  ( 0.000000000000000000, 0.000000000000000000, -1.000000000000000000 ) ) ;
#778 = LINE ( 'NONE', #928, #643 ) ;
#779 = CARTESIAN_POINT ( 'NONE',  ( 0.000000000000000000, 0.000000000000000000, 0.000000000000000000 ) ) ;
#780 = LINE ( 'NONE', #720, #298 ) ;
#781 = EDGE_LOOP ( 'NONE', ( #362, #241, #332, #976 ) ) ;
#782 = EDGE_CURVE ( 'NONE', #911, #465, #821, .T. ) ;
#783 = CARTESIAN_POINT ( 'NONE',  ( 2.500000000000023093, 25.00000000000000000, 2.500000000000002220 ) ) ;
#784 = DIRECTION ( 'NONE',  ( 1.000000000000000000, 0.000000000000000000, 0.000000000000000000 ) ) ;
#785 = ORIENTED_EDGE ( 'NONE', *, *, #270, .F. ) ;
#786 = ORIENTED_EDGE ( 'NONE', *, *, #65, .F. ) ;
#787 = CARTESIAN_POINT ( 'NONE',  ( 92.50000000000000000, 25.00000000000000000, 25.00000000000000000 ) ) ;
#788 = VECTOR ( 'NONE', #973, 1000.000000000000000 ) ;
#789 = VECTOR ( 'NONE', #566, 1000.000000000000000 ) ;
#790 = VECTOR ( 'NONE', #986, 1000.000000000000000 ) ;
#791 = VECTOR ( 'NONE', #505, 1000.000000000000000 ) ;
#792 = VECTOR ( 'NONE', #836, 1000.000000000000000 ) ;
#793 = DIRECTION ( 'NONE',  ( -0.000000000000000000, -1.000000000000000000, -0.000000000000000000 ) ) ;
#794 = ORIENTED_EDGE ( 'NONE', *, *, #642, .T. ) ;
#795 = DIRECTION ( 'NONE',  ( 0.000000000000000000, 0.000000000000000000, -1.000000000000000000 ) ) ;
#796 = EDGE_CURVE ( 'NONE', #222, #938, #590, .T. ) ;
#797 = EDGE_CURVE ( 'NONE', #101, #21, #453, .T. ) ;
#798 = LINE ( 'NONE', #936, #826 ) ;
#799 = PLANE ( 'NONE',  #872 ) ;
#800 = VERTEX_POINT ( 'NONE', #546 ) ;
#801 = VERTEX_POINT ( 'NONE', #698 ) ;
#802 = LINE ( 'NONE', #645, #161 ) ;
#803 = LINE ( 'NONE', #104, #610 ) ;
#804 = DIRECTION ( 'NONE',  ( 1.000000000000000000, 0.000000000000000000, 0.000000000000000000 ) ) ;
#805 = ORIENTED_EDGE ( 'NONE', *, *, #884, .F. ) ;
#806 = ORIENTED_EDGE ( 'NONE', *, *, #511, .T. ) ;
#807 = VECTOR ( 'NONE', #255, 1000.000000000000000 ) ;
#808 = FACE_OUTER_BOUND ( 'NONE', #770, .T. ) ;
#809 = COLOUR_RGB ( '',0.7921568627450980005, 0.8196078431372548767, 0.9333333333333333481 ) ;
#810 = EDGE_CURVE ( 'NONE', #310, #702, #146, .T. ) ;
#811 = AXIS2_PLACEMENT_3D ( 'NONE', #10, #621, #439 ) ;
#812 = ORIENTED_EDGE ( 'NONE', *, *, #423, .T. ) ;
#813 = VECTOR ( 'NONE', #50, 1000.000000000000000 ) ;
#814 = CARTESIAN_POINT ( 'NONE',  ( 100.0000000000000000, 20.00000000000000000, 40.00000000000000000 ) ) ;
#815 = CARTESIAN_POINT ( 'NONE',  ( 10.00000000000000888, 20.00000000000000000, 17.00000000000000000 ) ) ;
#816 = EDGE_LOOP ( 'NONE', ( #812, #860, #25, #887 ) ) ;
#817 = DIRECTION ( 'NONE',  ( -1.110223024625156738E-15, 0.000000000000000000, -1.000000000000000000 ) ) ;
#818 = ADVANCED_FACE ( 'NONE', ( #456 ), #840, .T. ) ;
#819 = DIRECTION ( 'NONE',  ( 0.000000000000000000, -0.000000000000000000, -1.000000000000000000 ) ) ;
#820 = LINE ( 'NONE', #971, #301 ) ;
#821 = LINE ( 'NONE', #663, #788 ) ;
#822 = CARTESIAN_POINT ( 'NONE',  ( 100.0000000000000000, 0.000000000000000000, 40.00000000000000000 ) ) ;
#823 = CARTESIAN_POINT ( 'NONE',  ( 10.00000000000000888, 27.00000000000000000, 30.00000000000000355 ) ) ;
#824 = ORIENTED_EDGE ( 'NONE', *, *, #699, .T. ) ;
#825 = CARTESIAN_POINT ( 'NONE',  ( 97.50000000000002842, 20.00000000000000000, 15.00000000000000000 ) ) ;
#826 = VECTOR ( 'NONE', #324, 1000.000000000000000 ) ;
#827 = DIRECTION ( 'NONE',  ( 0.000000000000000000, 0.000000000000000000, 1.000000000000000000 ) ) ;
#828 = ADVANCED_FACE ( 'NONE', ( #766 ), #997, .F. ) ;
#829 = ADVANCED_FACE ( 'NONE', ( #68 ), #755, .F. ) ;
#830 = ORIENTED_EDGE ( 'NONE', *, *, #344, .F. ) ;
#831 = LINE ( 'NONE', #442, #253 ) ;
#832 = CARTESIAN_POINT ( 'NONE',  ( 0.000000000000000000, 0.000000000000000000, 40.00000000000000000 ) ) ;
#833 = ORIENTED_EDGE ( 'NONE', *, *, #464, .T. ) ;
#834 = CARTESIAN_POINT ( 'NONE',  ( 92.50000000000000000, 25.00000000000000000, 32.50000000000000000 ) ) ;
#835 = LINE ( 'NONE', #925, #468 ) ;
#836 = DIRECTION ( 'NONE',  ( -1.000000000000000000, -0.000000000000000000, -0.000000000000000000 ) ) ;
#837 = EDGE_CURVE ( 'NONE', #634, #938, #136, .T. ) ;
#838 = UNCERTAINTY_MEASURE_WITH_UNIT (LENGTH_MEASURE( 1.000000000000000082E-05 ), #382, 'distance_accuracy_value', 'NONE');
#839 = ORIENTED_EDGE ( 'NONE', *, *, #846, .T. ) ;
#840 = PLANE ( 'NONE',  #322 ) ;
#841 =( NAMED_UNIT ( * ) PLANE_ANGLE_UNIT ( ) SI_UNIT ( $, .RADIAN. ) );
#842 = VECTOR ( 'NONE', #565, 1000.000000000000000 ) ;
#843 = ORIENTED_EDGE ( 'NONE', *, *, #684, .F. ) ;
#844 = CARTESIAN_POINT ( 'NONE',  ( 7.499999999999993783, 20.00000000000000000, 15.00000000000000000 ) ) ;
#845 =( NAMED_UNIT ( * ) SI_UNIT ( $, .STERADIAN. ) SOLID_ANGLE_UNIT ( ) );
#846 = EDGE_CURVE ( 'NONE', #641, #97, #159, .T. ) ;
#847 = VERTEX_POINT ( 'NONE', #85 ) ;
#848 = ORIENTED_EDGE ( 'NONE', *, *, #810, .F. ) ;
#849 = DIRECTION ( 'NONE',  ( 0.000000000000000000, 0.000000000000000000, -1.000000000000000000 ) ) ;
#850 = DIRECTION ( 'NONE',  ( -0.000000000000000000, -1.000000000000000000, -0.000000000000000000 ) ) ;
#851 = LINE ( 'NONE', #130, #367 ) ;
#852 = PLANE ( 'NONE',  #368 ) ;
#853 = CARTESIAN_POINT ( 'NONE',  ( 7.499999999999992895, 20.00000000000000000, 7.500000000000003553 ) ) ;
#854 = ORIENTED_EDGE ( 'NONE', *, *, #869, .F. ) ;
#855 = DIRECTION ( 'NONE',  ( 0.000000000000000000, -0.000000000000000000, 1.000000000000000000 ) ) ;
#856 = CARTESIAN_POINT ( 'NONE',  ( 7.499999999999992895, 25.00000000000000000, 32.50000000000000000 ) ) ;
#857 = VECTOR ( 'NONE', #190, 1000.000000000000000 ) ;
#858 = ADVANCED_FACE ( 'NONE', ( #62 ), #375, .F. ) ;
#859 = ORIENTED_EDGE ( 'NONE', *, *, #521, .F. ) ;
#860 = ORIENTED_EDGE ( 'NONE', *, *, #692, .F. ) ;
#861 = DIRECTION ( 'NONE',  ( 1.000000000000000000, 0.000000000000000000, 0.000000000000000000 ) ) ;
#862 = ORIENTED_EDGE ( 'NONE', *, *, #810, .T. ) ;
#863 = EDGE_LOOP ( 'NONE', ( #286, #731, #346, #416, #223, #741, #647, #543 ) ) ;
#864 = ORIENTED_EDGE ( 'NONE', *, *, #526, .T. ) ;
#865 = PLANE ( 'NONE',  #383 ) ;
#866 = FACE_OUTER_BOUND ( 'NONE', #138, .T. ) ;
#867 = ORIENTED_EDGE ( 'NONE', *, *, #134, .F. ) ;
#868 = ORIENTED_EDGE ( 'NONE', *, *, #388, .T. ) ;
#869 = EDGE_CURVE ( 'NONE', #394, #717, #211, .T. ) ;
#870 = ORIENTED_EDGE ( 'NONE', *, *, #513, .T. ) ;
#871 = FACE_OUTER_BOUND ( 'NONE', #558, .T. ) ;
#872 = AXIS2_PLACEMENT_3D ( 'NONE', #30, #335, #881 ) ;
#873 = VECTOR ( 'NONE', #682, 1000.000000000000000 ) ;
#874 = AXIS2_PLACEMENT_3D ( 'NONE', #603, #926, #371 ) ;
#875 = CARTESIAN_POINT ( 'NONE',  ( 10.00000000000000888, 20.00000000000000000, 30.00000000000000355 ) ) ;
#876 = ORIENTED_EDGE ( 'NONE', *, *, #191, .F. ) ;
#877 = ORIENTED_EDGE ( 'NONE', *, *, #65, .T. ) ;
#878 = FACE_BOUND ( 'NONE', #968, .T. ) ;
#879 = EDGE_CURVE ( 'NONE', #290, #598, #460, .T. ) ;
#880 = PLANE ( 'NONE',  #981 ) ;
#881 = DIRECTION ( 'NONE',  ( 1.000000000000000000, 0.000000000000000000, 0.000000000000000000 ) ) ;
#882 = ORIENTED_EDGE ( 'NONE', *, *, #302, .F. ) ;
#883 = ORIENTED_EDGE ( 'NONE', *, *, #988, .F. ) ;
#884 = EDGE_CURVE ( 'NONE', #78, #271, #680, .T. ) ;
#885 = CARTESIAN_POINT ( 'NONE',  ( 2.500000000000023093, 25.00000000000000000, 25.00000000000000000 ) ) ;
#886 = ORIENTED_EDGE ( 'NONE', *, *, #118, .T. ) ;
#887 = ORIENTED_EDGE ( 'NONE', *, *, #750, .T. ) ;
#888 = LINE ( 'NONE', #630, #967 ) ;
#889 = CARTESIAN_POINT ( 'NONE',  ( 92.50000000000000000, 25.00000000000000000, 15.00000000000000000 ) ) ;
#890 = VECTOR ( 'NONE', #957, 1000.000000000000000 ) ;
#891 = ADVANCED_FACE ( 'NONE', ( #291 ), #390, .F. ) ;
#892 = ORIENTED_EDGE ( 'NONE', *, *, #600, .T. ) ;
#893 = DIRECTION ( 'NONE',  ( 0.000000000000000000, 0.000000000000000000, -1.000000000000000000 ) ) ;
#894 = CARTESIAN_POINT ( 'NONE',  ( 7.499999999999992895, 20.00000000000000000, 7.500000000000003553 ) ) ;
#895 = ORIENTED_EDGE ( 'NONE', *, *, #249, .T. ) ;
#896 = DIRECTION ( 'NONE',  ( -1.000000000000000000, 0.000000000000000000, 0.000000000000000000 ) ) ;
#897 = LINE ( 'NONE', #832, #417 ) ;
#898 = FACE_OUTER_BOUND ( 'NONE', #712, .T. ) ;
#899 = CARTESIAN_POINT ( 'NONE',  ( 2.500000000000023093, 25.00000000000000000, 37.50000000000000711 ) ) ;
#900 = ADVANCED_FACE ( 'NONE', ( #295 ), #151, .T. ) ;
#901 = DIRECTION ( 'NONE',  ( 0.000000000000000000, 0.000000000000000000, 1.000000000000000000 ) ) ;
#902 = EDGE_CURVE ( 'NONE', #43, #12, #607, .T. ) ;
#903 = ORIENTED_EDGE ( 'NONE', *, *, #796, .F. ) ;
#904 = CARTESIAN_POINT ( 'NONE',  ( 90.00000000000000000, 13.00000000000000178, 30.00000000000000355 ) ) ;
#905 =( GEOMETRIC_REPRESENTATION_CONTEXT ( 3 ) GLOBAL_UNCERTAINTY_ASSIGNED_CONTEXT ( ( #186 ) ) GLOBAL_UNIT_ASSIGNED_CONTEXT ( ( #13, #841, #845 ) ) REPRESENTATION_CONTEXT ( 'NONE', 'WORKASPACE' ) );
#906 = PLANE ( 'NONE',  #14 ) ;
#907 = CARTESIAN_POINT ( 'NONE',  ( 7.499999999999993783, 25.00000000000000000, 15.00000000000000000 ) ) ;
#908 = DIRECTION ( 'NONE',  ( 0.000000000000000000, 0.000000000000000000, -1.000000000000000000 ) ) ;
#909 = DIRECTION ( 'NONE',  ( -1.000000000000000000, -0.000000000000000000, -0.000000000000000000 ) ) ;
#910 = EDGE_CURVE ( 'NONE', #135, #536, #384, .T. ) ;
#911 = VERTEX_POINT ( 'NONE', #311 ) ;
#912 = DIRECTION ( 'NONE',  ( 0.000000000000000000, -1.000000000000000000, 0.000000000000000000 ) ) ;
#913 = DIRECTION ( 'NONE',  ( -1.000000000000000000, -0.000000000000000000, -0.000000000000000000 ) ) ;
#914 = APPLICATION_PROTOCOL_DEFINITION ( 'draft international standard', 'automotive_design', 1998, #601 ) ;
#915 = EDGE_CURVE ( 'NONE', #641, #271, #480, .T. ) ;
#916 = ORIENTED_EDGE ( 'NONE', *, *, #344, .T. ) ;
#917 = DIRECTION ( 'NONE',  ( -0.000000000000000000, -1.000000000000000000, -0.000000000000000000 ) ) ;
#918 = AXIS2_PLACEMENT_3D ( 'NONE', #427, #351, #819 ) ;
#919 = FACE_OUTER_BOUND ( 'NONE', #483, .T. ) ;
#920 = VECTOR ( 'NONE', #492, 1000.000000000000000 ) ;
#921 = VECTOR ( 'NONE', #287, 1000.000000000000000 ) ;
#922 = LINE ( 'NONE', #458, #504 ) ;
#923 = ORIENTED_EDGE ( 'NONE', *, *, #699, .F. ) ;
#924 = DIRECTION ( 'NONE',  ( 1.000000000000000000, 0.000000000000000000, -0.000000000000000000 ) ) ;
#925 = CARTESIAN_POINT ( 'NONE',  ( 90.00000000000000000, 20.00000000000000000, 0.000000000000000000 ) ) ;
#926 = DIRECTION ( 'NONE',  ( 0.000000000000000000, 0.000000000000000000, -1.000000000000000000 ) ) ;
#927 = ADVANCED_FACE ( 'NONE', ( #541 ), #852, .F. ) ;
#928 = CARTESIAN_POINT ( 'NONE',  ( 2.500000000000023093, 25.00000000000000000, 25.00000000000000000 ) ) ;
#929 = CARTESIAN_POINT ( 'NONE',  ( 0.000000000000000000, 20.00000000000000000, 23.00000000000000000 ) ) ;
#930 = LINE ( 'NONE', #666, #366 ) ;
#931 = EDGE_LOOP ( 'NONE', ( #637, #374, #830, #606 ) ) ;
#932 = DIRECTION ( 'NONE',  ( -1.000000000000000000, -0.000000000000000000, -0.000000000000000000 ) ) ;
#933 = CARTESIAN_POINT ( 'NONE',  ( 90.00000000000000000, 20.00000000000000000, 22.00000000000000000 ) ) ;
#934 = AXIS2_PLACEMENT_3D ( 'NONE', #38, #649, #323 ) ;
#935 = VECTOR ( 'NONE', #446, 1000.000000000000000 ) ;
#936 = CARTESIAN_POINT ( 'NONE',  ( 100.0010000000000048, 20.00000000000000000, 23.00000000000000000 ) ) ;
#937 = LINE ( 'NONE', #482, #688 ) ;
#938 = VERTEX_POINT ( 'NONE', #387 ) ;
#939 = DIRECTION ( 'NONE',  ( 0.000000000000000000, 0.000000000000000000, -1.000000000000000000 ) ) ;
#940 = EDGE_CURVE ( 'NONE', #248, #275, #993, .T. ) ;
#941 = CARTESIAN_POINT ( 'NONE',  ( 92.50000000000000000, 25.00000000000000000, 25.00000000000000000 ) ) ;
#942 = ORIENTED_EDGE ( 'NONE', *, *, #738, .T. ) ;
#943 = ORIENTED_EDGE ( 'NONE', *, *, #77, .T. ) ;
#944 = FACE_OUTER_BOUND ( 'NONE', #597, .T. ) ;
#945 = PLANE ( 'NONE',  #214 ) ;
#946 = VERTEX_POINT ( 'NONE', #929 ) ;
#947 = EDGE_CURVE ( 'NONE', #721, #343, #393, .T. ) ;
#948 = ORIENTED_EDGE ( 'NONE', *, *, #327, .F. ) ;
#949 = LINE ( 'NONE', #252, #596 ) ;
#950 = AXIS2_PLACEMENT_3D ( 'NONE', #45, #357, #288 ) ;
#951 = VECTOR ( 'NONE', #556, 1000.000000000000000 ) ;
#952 = CARTESIAN_POINT ( 'NONE',  ( 100.0000000000000000, 0.000000000000000000, 0.000000000000000000 ) ) ;
#953 = DIRECTION ( 'NONE',  ( -1.000000000000000000, 0.000000000000000000, 1.156482317317871971E-16 ) ) ;
#954 = EDGE_LOOP ( 'NONE', ( #959, #876, #496, #245, #199, #183 ) ) ;
#955 = EDGE_LOOP ( 'NONE', ( #177, #633, #502, #473 ) ) ;
#956 = PLANE ( 'NONE',  #449 ) ;
#957 = DIRECTION ( 'NONE',  ( -1.000000000000000000, -0.000000000000000000, -0.000000000000000000 ) ) ;
#958 = PRODUCT ( 'USB_socket_1', 'USB_socket_1', '', ( #308 ) ) ;
#959 = ORIENTED_EDGE ( 'NONE', *, *, #769, .F. ) ;
#960 = CARTESIAN_POINT ( 'NONE',  ( 90.00000000000000000, 20.00000000000000000, 20.00000000000000000 ) ) ;
#961 = EDGE_CURVE ( 'NONE', #234, #728, #922, .T. ) ;
#962 = CARTESIAN_POINT ( 'NONE',  ( 2.500000000000023093, 20.00000000000000000, 2.500000000000002220 ) ) ;
#963 = EDGE_LOOP ( 'NONE', ( #265, #882, #425, #250 ) ) ;
#964 = DIRECTION ( 'NONE',  ( 0.000000000000000000, 1.000000000000000000, 0.000000000000000000 ) ) ;
#965 = CARTESIAN_POINT ( 'NONE',  ( 10.00000000000000888, 27.00000000000000000, 30.00000000000000355 ) ) ;
#966 = VECTOR ( 'NONE', #51, 1000.000000000000000 ) ;
#967 = VECTOR ( 'NONE', #486, 1000.000000000000000 ) ;
#968 = EDGE_LOOP ( 'NONE', ( #527, #854, #440, #859, #602, #495, #412, #500 ) ) ;
#969 = LINE ( 'NONE', #117, #921 ) ;
#970 = DIRECTION ( 'NONE',  ( -0.000000000000000000, -1.000000000000000000, -0.000000000000000000 ) ) ;
#971 = CARTESIAN_POINT ( 'NONE',  ( 7.499999999999993783, 25.00000000000000000, 25.00000000000000000 ) ) ;
#972 = EDGE_CURVE ( 'NONE', #847, #215, #154, .T. ) ;
#973 = DIRECTION ( 'NONE',  ( 1.000000000000000000, -0.000000000000000000, 0.000000000000000000 ) ) ;
#974 = DIRECTION ( 'NONE',  ( -1.000000000000000000, 0.000000000000000000, 0.000000000000000000 ) ) ;
#975 = CARTESIAN_POINT ( 'NONE',  ( 100.0000000000000000, 20.00000000000000000, 40.00000000000000000 ) ) ;
#976 = ORIENTED_EDGE ( 'NONE', *, *, #940, .T. ) ;
#977 = CARTESIAN_POINT ( 'NONE',  ( 2.500000000000023093, 25.00000000000000000, 15.00000000000000000 ) ) ;
#978 = ORIENTED_EDGE ( 'NONE', *, *, #902, .T. ) ;
#979 = VECTOR ( 'NONE', #197, 1000.000000000000000 ) ;
#980 = CARTESIAN_POINT ( 'NONE',  ( 100.0010000000000048, 20.00000000000000000, 17.00000000000000000 ) ) ;
#981 = AXIS2_PLACEMENT_3D ( 'NONE', #414, #734, #259 ) ;
#982 = DIRECTION ( 'NONE',  ( -1.000000000000000000, 0.000000000000000000, 0.000000000000000000 ) ) ;
#983 = EDGE_LOOP ( 'NONE', ( #127, #864, #627, #833 ) ) ;
#984 = ORIENTED_EDGE ( 'NONE', *, *, #837, .T. ) ;
#985 = DIRECTION ( 'NONE',  ( 0.000000000000000000, 0.000000000000000000, -1.000000000000000000 ) ) ;
#986 = DIRECTION ( 'NONE',  ( 1.000000000000000000, -0.000000000000000000, 0.000000000000000000 ) ) ;
#987 = DIRECTION ( 'NONE',  ( 1.000000000000000000, 0.000000000000000000, 0.000000000000000000 ) ) ;
#988 = EDGE_CURVE ( 'NONE', #437, #847, #296, .T. ) ;
#989 = ORIENTED_EDGE ( 'NONE', *, *, #196, .T. ) ;
#990 = ORIENTED_EDGE ( 'NONE', *, *, #206, .F. ) ;
#991 = CARTESIAN_POINT ( 'NONE',  ( 0.000000000000000000, 0.000000000000000000, 40.00000000000000000 ) ) ;
#992 = LINE ( 'NONE', #82, #533 ) ;
#993 = LINE ( 'NONE', #209, #404 ) ;
#994 = ORIENTED_EDGE ( 'NONE', *, *, #487, .T. ) ;
#995 = AXIS2_PLACEMENT_3D ( 'NONE', #834, #304, #761 ) ;
#996 = ORIENTED_EDGE ( 'NONE', *, *, #614, .F. ) ;
#997 = PLANE ( 'NONE',  #995 ) ;
#998 = PRESENTATION_LAYER_ASSIGNMENT (  '', '', ( #419 ) ) ;
#999 = DIRECTION ( 'NONE',  ( 0.000000000000000000, 0.000000000000000000, -1.000000000000000000 ) ) ;
#1000 = AXIS2_PLACEMENT_3D ( 'NONE', #471, #999, #620 ) ;
#1001 = CARTESIAN_POINT ( 'NONE',  ( 10.00000000000000888, 27.00000000000000000, 10.00000000000000178 ) ) ;
#1002 = VECTOR ( 'NONE', #912, 1000.000000000000000 ) ;
#1003 = CARTESIAN_POINT ( 'NONE',  ( 2.500000000000023093, 25.00000000000000000, 2.500000000000002220 ) ) ;
ENDSEC;
END-ISO-10303-21;
